<?xml version="1.0" standalone="no"?>
<!DOCTYPE svg PUBLIC "-//W3C//DTD SVG 1.1//EN" "http://www.w3.org/Graphics/SVG/1.1/DTD/svg11.dtd" >
<svg xmlns="http://www.w3.org/2000/svg" xmlns:xlink="http://www.w3.org/1999/xlink" version="1.1">
<metadata>
Created by FontForge 20150318 at Tue Sep 15 06:17:24 2015
 By uniteet7
Copyright (c) 2011 by Anja Meiners, with Reserved Font Name 'ABeeZee'
</metadata>
<defs>
<font id="ABeeZee-Regular" horiz-adv-x="600" >
  <font-face 
    font-family="ABeeZee"
    font-weight="400"
    font-stretch="normal"
    units-per-em="1000"
    panose-1="2 0 0 0 0 0 0 0 0 0"
    ascent="800"
    descent="-200"
    x-height="520"
    cap-height="700"
    bbox="-85 -262 977 920"
    underline-thickness="50"
    underline-position="-50"
    unicode-range="U+0001-F6C3"
  />
<missing-glyph 
d="M106 700h388v-700h-388v700zM426 68v564h-252v-564h252z" />
    <glyph glyph-name=".notdef" 
d="M106 700h388v-700h-388v700zM426 68v564h-252v-564h252z" />
    <glyph glyph-name=".null" horiz-adv-x="0" 
 />
    <glyph glyph-name="nonmarkingreturn" horiz-adv-x="300" 
 />
    <glyph glyph-name="space" unicode=" " horiz-adv-x="300" 
 />
    <glyph glyph-name="uni0003" horiz-adv-x="0" 
 />
    <glyph glyph-name="uni0004" horiz-adv-x="0" 
 />
    <glyph glyph-name="uni0005" horiz-adv-x="0" 
 />
    <glyph glyph-name="uni0006" horiz-adv-x="0" 
 />
    <glyph glyph-name="uni0007" horiz-adv-x="0" 
 />
    <glyph glyph-name="uni0008" horiz-adv-x="0" 
 />
    <glyph glyph-name="uni0009" unicode="&#x9;" horiz-adv-x="0" 
 />
    <glyph glyph-name="uni0001" horiz-adv-x="0" 
 />
    <glyph glyph-name="uni0010" horiz-adv-x="0" 
 />
    <glyph glyph-name="uni0011" horiz-adv-x="0" 
 />
    <glyph glyph-name="uni0012" horiz-adv-x="0" 
 />
    <glyph glyph-name="uni0013" horiz-adv-x="0" 
 />
    <glyph glyph-name="uni0014" horiz-adv-x="0" 
 />
    <glyph glyph-name="uni0015" horiz-adv-x="0" 
 />
    <glyph glyph-name="uni0016" horiz-adv-x="0" 
 />
    <glyph glyph-name="uni0017" horiz-adv-x="0" 
 />
    <glyph glyph-name="uni0018" horiz-adv-x="0" 
 />
    <glyph glyph-name="uni0019" horiz-adv-x="0" 
 />
    <glyph glyph-name="uni0002" horiz-adv-x="0" 
 />
    <glyph glyph-name="exclam" unicode="!" horiz-adv-x="314" 
d="M106 729h100v-249l-13 -273h-74l-13 273v249zM90 55q0 31 17.5 49t49.5 18q26 0 46.5 -20t20.5 -47q0 -30 -19 -48.5t-48 -18.5q-27 0 -47 20t-20 47z" />
    <glyph glyph-name="quotedbl" unicode="&#x22;" horiz-adv-x="300" 
d="M113 700l-8 -223h-71l-8 223h87zM274 700l-8 -223h-71l-8 223h87z" />
    <glyph glyph-name="numbersign" unicode="#" horiz-adv-x="750" 
d="M140 0l22 124h-91l12 73h92l43 250h-91l12 73h92l22 124h80l-22 -124h196l22 124h80l-22 -124h92l-12 -73h-93l-43 -250h91l-12 -73h-92l-22 -124h-80l22 124h-196l-22 -124h-80zM255 197h196l43 250h-196z" />
    <glyph glyph-name="dollar" unicode="$" 
d="M110 156q33 -28 74 -45.5t97 -17.5q66 0 104.5 27.5t38.5 74.5q0 20 -5.5 36.5t-21.5 31.5t-45 30t-75 33q-50 19 -84 38.5t-55 42t-30.5 49t-9.5 61.5q0 31 12 59.5t35.5 50t57.5 36t78 18.5l-8 114h88l-9 -114q45 -3 82.5 -14t73.5 -28l-32 -75q-32 18 -73.5 31
t-87.5 13q-61 0 -96 -24t-35 -62q0 -18 5 -32.5t20 -28t42.5 -27.5t72.5 -30q54 -20 90.5 -41t58.5 -45t31.5 -51.5t9.5 -60.5q0 -40 -13.5 -72t-38 -55.5t-58.5 -38.5t-74 -20l9 -115h-88l8 112q-60 4 -110 21t-83 44z" />
    <glyph glyph-name="percent" unicode="%" horiz-adv-x="900" 
d="M199 -2l437 742l60 -38l-437 -742zM380 490q0 -104 -44 -162t-128 -58t-127 57.5t-43 162.5q0 104 44 160.5t127 56.5t127 -56.5t44 -160.5zM297 490q0 75 -23 113t-66 38q-41 0 -64 -33.5t-23 -117.5q0 -75 23 -114t65 -39q21 0 37.5 8t27.5 26t17 47t6 72zM862 214
q0 -104 -44 -162t-128 -58t-127 57.5t-43 162.5q0 104 44 160.5t127 56.5t127 -56.5t44 -160.5zM779 214q0 75 -23 113t-66 38q-41 0 -64 -33.5t-23 -117.5q0 -75 23 -114t65 -39q21 0 37.5 8t27.5 26t17 47t6 72z" />
    <glyph glyph-name="ampersand" unicode="&#x26;" horiz-adv-x="737" 
d="M273 336q-45 -31 -66.5 -64.5t-21.5 -80.5q0 -26 10.5 -48t29 -38.5t44 -25.5t55.5 -9q43 0 80 20.5t66 56.5zM237 545q0 -34 15.5 -65t49.5 -64q63 32 89 63.5t26 73.5q0 36 -24 61.5t-64 25.5t-66 -27t-26 -68zM228 384q-38 41 -56 76.5t-18 83.5q0 36 12.5 66.5
t35.5 53t55.5 35.5t73.5 13q40 0 71.5 -12t53 -32.5t33 -47.5t11.5 -58q0 -64 -37 -109t-117 -84l165 -157q10 19 16 41t10.5 44t11 42.5t18.5 36t32 25t52 9.5l22 -71q-21 0 -33.5 -8.5t-20 -22.5t-12 -32.5t-9.5 -38.5t-11.5 -40t-17.5 -37l118 -108l-56 -60l-106 100
q-41 -47 -91 -75.5t-124 -28.5q-45 0 -85 13.5t-70 38.5t-47.5 60t-17.5 78q0 63 32 114t106 92z" />
    <glyph glyph-name="quotesingle" unicode="'" horiz-adv-x="150" 
d="M119 700l-8 -222h-71l-8 222h87z" />
    <glyph glyph-name="parenleft" unicode="(" horiz-adv-x="300" 
d="M152 320q0 -122 26 -224t64 -189l-53 -30q-63 111 -97.5 218.5t-34.5 224.5q0 124 35 231t97 212l53 -30q-38 -85 -64 -188t-26 -225z" />
    <glyph glyph-name="parenright" unicode=")" horiz-adv-x="300" 
d="M148 320q0 122 -26 225t-64 188l53 30q31 -53 55.5 -105t41.5 -106.5t26 -112t9 -119.5q0 -117 -34.5 -224.5t-97.5 -218.5l-53 30q38 87 64 189t26 224z" />
    <glyph glyph-name="asterisk" unicode="*" horiz-adv-x="450" 
d="M195 617l-9 123h80l-9 -121l114 44l23 -75l-116 -29l77 -94l-64 -46l-64 103l-66 -104l-63 47l76 92l-117 30l24 76z" />
    <glyph glyph-name="plus" unicode="+" 
d="M343 304v-163h-85v163h-153v78h153v163h85v-163h152v-78h-152z" />
    <glyph glyph-name="comma" unicode="," horiz-adv-x="300" 
d="M220 65q-11 -77 -47.5 -133.5t-93.5 -91.5l-49 28q40 51 64 103t38 119z" />
    <glyph glyph-name="hyphen" unicode="-" 
d="M130 302v82h340v-82h-340z" />
    <glyph glyph-name="period" unicode="." horiz-adv-x="300" 
d="M83 55q0 31 17.5 49t49.5 18q26 0 46.5 -20t20.5 -47q0 -30 -19 -48.5t-48 -18.5q-27 0 -47 20t-20 47z" />
    <glyph glyph-name="slash" unicode="/" horiz-adv-x="450" 
d="M47 -46l282 819l74 -25l-282 -819z" />
    <glyph glyph-name="one" unicode="1" 
d="M377 700v-620h119v-80h-352v80h143v505l-134 -101l-49 67l207 149h66z" />
    <glyph glyph-name="two" unicode="2" 
d="M88 0q-3 18 -3 37q0 64 23.5 116t58.5 94.5t75.5 79t75.5 70t58.5 67t23.5 71.5q0 42 -31 69.5t-80 27.5q-42 0 -76.5 -16.5t-64.5 -44.5l-50 61q40 36 88.5 58t112.5 22q44 0 80.5 -13t62 -36.5t39.5 -54.5t14 -67q0 -48 -21.5 -88.5t-54 -77t-71 -70t-72.5 -68.5
t-59.5 -73t-30.5 -82h308v-82h-406z" />
    <glyph glyph-name="three" unicode="3" 
d="M259 -12q-66 0 -113.5 17.5t-81.5 42.5l41 75q28 -21 64.5 -37t90.5 -16q66 0 104.5 34.5t38.5 87.5q0 27 -11 52t-34.5 43.5t-59 29.5t-84.5 11h-56v73h52q44 0 77 10.5t54.5 28.5t32 40.5t10.5 46.5q0 47 -35.5 76t-87.5 29q-48 0 -84 -15.5t-59 -34.5l-37 71
q30 20 77 39.5t110 19.5q49 0 87.5 -14t65 -38t40.5 -55.5t14 -65.5q0 -60 -29.5 -99.5t-83.5 -65.5q63 -24 98.5 -70t35.5 -109q0 -39 -14.5 -76.5t-43.5 -66.5t-74 -46.5t-105 -17.5z" />
    <glyph glyph-name="four" unicode="4" 
d="M453 149v-149h-90v149h-299v72l209 486l78 -33l-189 -443h201v199h90v-199h83v-82h-83z" />
    <glyph glyph-name="five" unicode="5" 
d="M515 217q0 -50 -17.5 -92t-50 -72.5t-77.5 -47.5t-100 -17q-62 0 -105.5 13.5t-79.5 38.5l47 77q28 -20 62 -33.5t77 -13.5q33 0 60.5 10t47 28.5t30.5 43.5t11 55q0 63 -42.5 102t-121.5 39h-124v352h346v-81h-261v-190h50q58 0 104 -15.5t78 -44t49 -67.5t17 -85z" />
    <glyph glyph-name="six" unicode="6" 
d="M430 620q-110 0 -180 -66.5t-86 -182.5q28 27 71.5 49.5t100.5 22.5q42 0 77.5 -15t61.5 -42t41 -65.5t15 -86.5q0 -55 -17 -100.5t-47 -77.5t-72 -50t-91 -18q-48 0 -90.5 17.5t-74.5 54t-50.5 92.5t-18.5 132q0 85 23 161t68 133t112 90.5t156 33.5q9 0 19.5 -0.5
t18.5 -1.5v-82q-8 1 -18 1.5t-19 0.5zM313 368q-44 0 -82.5 -21t-68.5 -56v-22q1 -47 12.5 -84t31 -62.5t46 -39t56.5 -13.5t54.5 11.5t42 32t27 48.5t9.5 61q0 65 -35 105t-93 40z" />
    <glyph glyph-name="seven" unicode="7" 
d="M195 0q0 115 15.5 204t45 162t73.5 133.5t101 118.5h-337v82h444v-72q-69 -67 -115 -130t-74 -135t-40 -159.5t-12 -203.5h-101z" />
    <glyph glyph-name="eight" unicode="8" 
d="M203 377q-54 29 -82 67.5t-28 95.5q0 38 15.5 69.5t43 54.5t65 35.5t80.5 12.5q46 0 84.5 -13t66 -36.5t43 -54.5t15.5 -67q0 -61 -31 -99t-83 -64q74 -32 113 -77.5t39 -111.5q0 -45 -18 -82.5t-50 -63.5t-76 -40.5t-95 -14.5q-57 0 -103.5 15t-78.5 41.5t-49.5 62
t-17.5 76.5q0 66 35 113.5t112 80.5zM452 187q0 48 -42.5 86t-117.5 65q-29 -7 -55 -19.5t-45.5 -30t-31.5 -40t-12 -49.5q0 -28 12 -52t33 -41.5t50 -27.5t63 -10q64 0 105 33t41 86zM180 542q0 -44 35 -78.5t95 -52.5q22 7 41.5 19t34.5 27t24 34t9 41q0 23 -9.5 42.5
t-26 33.5t-38.5 22t-48 8q-51 0 -84 -26.5t-33 -69.5z" />
    <glyph glyph-name="nine" unicode="9" 
d="M135 133q60 -63 134 -63q31 0 59 15.5t49 47.5t33.5 82.5t12.5 120.5q-31 -29 -68.5 -47.5t-82.5 -18.5q-40 0 -77 13.5t-66 40.5t-46.5 67t-17.5 93q0 47 16.5 88.5t46 72.5t71 49t92.5 18q52 0 89 -16t62 -42q18 -19 31.5 -42t23 -56t14 -79t4.5 -111
q0 -100 -19 -171.5t-53 -117.5t-79.5 -67.5t-99.5 -21.5q-58 0 -104 20.5t-84 57.5zM287 344q38 0 73.5 19t62.5 46v30q0 95 -36.5 144t-98.5 49q-29 0 -53.5 -10.5t-43 -29t-29 -45t-10.5 -59.5q0 -34 11 -60.5t29.5 -45t43 -28.5t51.5 -10z" />
    <glyph glyph-name="colon" unicode=":" horiz-adv-x="300" 
d="M83 465q0 31 17.5 49t49.5 18q26 0 46.5 -20t20.5 -47q0 -30 -19 -48.5t-48 -18.5q-27 0 -47 20t-20 47zM83 55q0 31 17.5 49t49.5 18q26 0 46.5 -20t20.5 -47q0 -30 -19 -48.5t-48 -18.5q-27 0 -47 20t-20 47z" />
    <glyph glyph-name="semicolon" unicode=";" horiz-adv-x="300" 
d="M206 65q-11 -77 -47.5 -133.5t-93.5 -91.5l-49 28q40 51 64 103t38 119zM86 465q0 31 17.5 49t49.5 18q26 0 46.5 -20t20.5 -47q0 -30 -19 -48.5t-48 -18.5q-27 0 -47 20t-20 47z" />
    <glyph glyph-name="less" unicode="&#x3c;" 
d="M477 185l-45 -71l-319 200v57l320 201l44 -70l-259 -159z" />
    <glyph glyph-name="equal" unicode="=" 
d="M103 395v79h394v-79h-394zM103 213v79h394v-79h-394z" />
    <glyph glyph-name="greater" unicode="&#x3e;" 
d="M167 572l320 -201v-57l-319 -200l-45 71l259 158l-259 159z" />
    <glyph glyph-name="question" unicode="?" horiz-adv-x="491" 
d="M45 647q40 49 89 77t118 28q42 0 76.5 -13t59.5 -35t39 -51.5t14 -63.5q0 -43 -14.5 -73t-36.5 -53.5t-47.5 -43.5t-47.5 -42t-36.5 -49t-14.5 -65v-56h-78q-5 17 -7.5 37t-2.5 37q0 42 14 73t35 54.5t45 42.5t45 38.5t35 41.5t14 51q0 35 -27 61.5t-73 26.5
q-42 0 -74.5 -20t-59.5 -55zM143 55q0 31 17.5 49t49.5 18q26 0 46.5 -20t20.5 -47q0 -30 -19 -48.5t-48 -18.5q-27 0 -47 20t-20 47z" />
    <glyph glyph-name="at" unicode="@" horiz-adv-x="1050" 
d="M746 -12q-51 0 -81.5 25.5t-36.5 69.5q-28 -34 -67 -58.5t-90 -24.5q-38 0 -72 14.5t-60 42t-41.5 67t-15.5 90.5q0 57 18 106t49 85t73 56.5t90 20.5q52 0 88.5 -21t57.5 -53l9 67h79l-41 -327q-3 -23 -3 -35q0 -29 12 -45t40 -16q26 0 50 19t42 53.5t28.5 82
t10.5 104.5q0 69 -24.5 128t-69 102t-105.5 67t-134 24q-93 0 -165.5 -36.5t-122 -95.5t-75 -133.5t-25.5 -151.5q0 -87 27 -155t75 -115.5t113 -72t141 -24.5t135.5 18t113.5 44l29 -76q-52 -28 -125.5 -47t-158.5 -19q-96 0 -177 29t-140 85.5t-92 139t-33 190.5
q0 100 34.5 190.5t98 159.5t153 109.5t200.5 40.5q94 0 171.5 -30.5t132.5 -83.5t85 -125.5t30 -156.5q0 -72 -17.5 -132.5t-48 -104t-73 -67.5t-92.5 -24zM498 74q39 0 72 21.5t53 46.5l24 198q-20 32 -52 52t-73 20q-30 0 -58 -13.5t-49.5 -38t-34 -58.5t-12.5 -75
q0 -76 38 -114.5t92 -38.5z" />
    <glyph glyph-name="A" unicode="A" horiz-adv-x="668" 
d="M10 25l274 675h104l270 -675l-87 -35l-78 200h-324l-78 -198zM199 270h263l-131 336z" />
    <glyph glyph-name="B" unicode="B" horiz-adv-x="630" 
d="M90 698q35 4 86.5 7t119.5 3q129 0 197.5 -48t68.5 -132q0 -56 -29 -94t-86 -63q68 -24 103 -66t35 -105q0 -96 -74.5 -152t-218.5 -56q-61 0 -115.5 2.5t-86.5 7.5v696zM299 71q90 0 139.5 32t49.5 93q0 60 -49 94t-140 34h-114v-247q52 -6 114 -6zM295 398
q79 0 125.5 32.5t46.5 85.5q0 57 -46 86t-126 29q-33 0 -60 -1.5t-50 -3.5v-228h110z" />
    <glyph glyph-name="C" unicode="C" horiz-adv-x="594" 
d="M147 351q0 -63 16.5 -114.5t46 -88.5t70.5 -57t90 -20t85 11.5t70 31.5l29 -79q-37 -20 -84.5 -33.5t-110.5 -13.5q-69 0 -125.5 25t-97.5 71.5t-63.5 113t-22.5 149.5q0 80 22.5 147t64.5 115.5t101.5 75.5t132.5 27q51 0 91.5 -9.5t76.5 -26.5l-29 -80q-31 15 -63.5 24
t-76.5 9q-48 0 -89 -18.5t-71 -54.5t-46.5 -87.5t-16.5 -117.5z" />
    <glyph glyph-name="D" unicode="D" horiz-adv-x="682" 
d="M90 698q47 5 92 7.5t103 2.5q90 0 155 -28t108 -77t63.5 -114t20.5 -138t-21 -138.5t-64.5 -114.5t-111 -77.5t-161.5 -28.5q-57 0 -99.5 2.5t-84.5 7.5v696zM282 626q-29 0 -53 -1.5t-44 -3.5v-541q21 -3 44 -4t48 -1q67 0 116 20.5t80.5 57t46.5 87t15 111.5
q0 54 -15 103.5t-46 88t-79 61t-113 22.5z" />
    <glyph glyph-name="E" unicode="E" horiz-adv-x="555" 
d="M90 700h420v-82h-325v-213h280v-80h-280v-243h325v-82h-420v700z" />
    <glyph glyph-name="F" unicode="F" horiz-adv-x="535" 
d="M90 700h415v-82h-320v-214h267v-78h-267v-326h-95v700z" />
    <glyph glyph-name="G" unicode="G" horiz-adv-x="674" 
d="M374 371h235v-371h-84v70q-35 -31 -85 -56.5t-111 -25.5t-112 24t-88 69t-58 108.5t-21 142.5q0 84 21.5 153.5t62.5 120t100.5 78.5t135.5 28q66 0 116.5 -16t95.5 -41l-35 -79q-42 23 -85 38t-97 15q-47 0 -87 -19t-69 -56t-45.5 -91.5t-16.5 -124.5q0 -63 15 -112.5
t42 -84t64.5 -52.5t82.5 -18q28 0 53 6.5t46 17t38.5 23t30.5 25.5v153h-145v75z" />
    <glyph glyph-name="H" unicode="H" horiz-adv-x="715" 
d="M530 319h-345v-319h-95v700h95v-299h345v299h95v-700h-95v319z" />
    <glyph glyph-name="I" unicode="I" horiz-adv-x="275" 
d="M90 0v700h95v-700h-95z" />
    <glyph glyph-name="J" unicode="J" horiz-adv-x="430" 
d="M255 700h95v-469q0 -64 -14 -110t-40 -75.5t-62 -43.5t-80 -14q-46 0 -86.5 16t-67.5 42l46 73q20 -21 48 -35t57 -14q48 0 76 34t28 117v479z" />
    <glyph glyph-name="K" unicode="K" horiz-adv-x="601" 
d="M591 56l-66 -68l-340 334v-322h-95v700h95v-319l298 322l64 -59l-273 -284z" />
    <glyph glyph-name="L" unicode="L" horiz-adv-x="511" 
d="M506 0h-416v700h95v-615h321v-85z" />
    <glyph glyph-name="M" unicode="M" horiz-adv-x="834" 
d="M649 579l-187 -421h-94l-188 421v-579h-90v700h133l194 -443l191 443h136v-700h-95v579z" />
    <glyph glyph-name="N" unicode="N" horiz-adv-x="705" 
d="M180 578v-578h-90v700h126l309 -582v582h90v-700h-124z" />
    <glyph glyph-name="O" unicode="O" horiz-adv-x="761" 
d="M50 351q0 77 22.5 143t65 114.5t103.5 76t139 27.5q77 0 138.5 -28.5t104 -77.5t65.5 -114.5t23 -140.5t-22.5 -141t-65.5 -115.5t-104 -78t-139 -28.5t-139 28.5t-103.5 78t-65 115.5t-22.5 141zM147 351q0 -54 15.5 -105t45.5 -90t73.5 -62.5t98.5 -23.5
q58 0 101.5 21.5t73 59t44.5 89t15 111.5q0 54 -16 104t-46 89t-73.5 62.5t-98.5 23.5t-98.5 -21.5t-73.5 -59t-45.5 -88.5t-15.5 -110z" />
    <glyph glyph-name="P" unicode="P" horiz-adv-x="581" 
d="M90 698q42 5 90.5 7.5t102.5 2.5q65 0 116 -16t86 -44t53 -67.5t18 -85.5q0 -56 -21.5 -99.5t-60 -73.5t-92.5 -45.5t-119 -15.5q-42 0 -78 3v-264h-95v698zM275 340q90 0 138.5 39.5t48.5 107.5q0 65 -46.5 103t-134.5 38q-27 0 -51 -1t-45 -3v-279q16 -2 38.5 -3.5
t51.5 -1.5z" />
    <glyph glyph-name="Q" unicode="Q" horiz-adv-x="761" 
d="M50 351q0 77 22 143t64 114.5t102 76t137 27.5q76 0 136.5 -28.5t102.5 -77.5t64.5 -114.5t22.5 -140.5q0 -78 -22 -135.5t-52 -99.5l89 -49l-43 -79l-97 72q-38 -31 -87.5 -51.5t-113.5 -20.5q-77 0 -137 28.5t-102 78t-64 115.5t-22 141zM429 153l40 73l90 -65
q24 39 34.5 85t10.5 105q0 54 -15.5 104t-45 89t-72 62.5t-96.5 23.5t-96.5 -21t-71.5 -58.5t-44.5 -88.5t-15.5 -111q0 -54 15 -105t44 -90t71 -62.5t96 -23.5q42 0 75 10t57 25z" />
    <glyph glyph-name="R" unicode="R" horiz-adv-x="617" 
d="M498 -12l-87 190q-33 71 -83 101t-128 30h-15v-309h-95v698q54 5 101.5 7.5t103.5 2.5q64 0 112 -13.5t80 -38.5t48.5 -59t16.5 -75q0 -73 -43.5 -117.5t-125.5 -66.5q20 -9 37 -20.5t32 -28t29.5 -39.5t29.5 -56l76 -164zM295 628q-34 0 -61 -1t-49 -3v-235h110
q72 0 117 32t45 92q0 50 -42 82.5t-120 32.5z" />
    <glyph glyph-name="S" unicode="S" horiz-adv-x="568" 
d="M78 139q36 -30 81 -49t105 -19q72 0 114 30t42 81q0 21 -6 39t-23.5 34.5t-49 33t-81.5 35.5q-54 21 -91.5 41.5t-60.5 45t-33 54t-10 67.5q0 37 15.5 70t46 57.5t75 38.5t101.5 14q62 0 111 -12.5t97 -35.5l-35 -81q-34 20 -79.5 33.5t-95.5 13.5q-66 0 -104 -25.5
t-38 -67.5q0 -20 5.5 -35.5t22 -30t46 -29.5t78.5 -33q58 -22 98 -45t64 -49t34.5 -56t10.5 -66q0 -49 -19 -87t-52.5 -64.5t-80.5 -40t-102 -13.5q-73 0 -133 19.5t-101 51.5z" />
    <glyph glyph-name="T" unicode="T" horiz-adv-x="545" 
d="M10 700h525v-84h-215v-616h-95v616h-215v84z" />
    <glyph glyph-name="U" unicode="U" horiz-adv-x="670" 
d="M503 700h92v-430q0 -66 -18.5 -118.5t-53 -89t-82.5 -55.5t-107 -19q-122 0 -190.5 71.5t-68.5 206.5v434h95v-419q0 -101 40.5 -155.5t123.5 -54.5q85 0 127 53.5t42 156.5v419z" />
    <glyph glyph-name="V" unicode="V" horiz-adv-x="640" 
d="M10 675l93 36l220 -607l221 604l86 -33l-256 -675h-107z" />
    <glyph glyph-name="W" unicode="W" horiz-adv-x="943" 
d="M15 677l94 30l158 -606l149 526h119l148 -526l157 603l88 -27l-189 -677h-118l-148 526l-150 -526h-118z" />
    <glyph glyph-name="X" unicode="X" horiz-adv-x="607" 
d="M245 356l-225 294l79 59l203 -284l201 281l74 -56l-218 -289l238 -312l-77 -59l-221 300l-214 -298l-75 57z" />
    <glyph glyph-name="Y" unicode="Y" horiz-adv-x="599" 
d="M304 354l210 351l75 -44l-241 -395v-266h-95v266l-243 395l80 48z" />
    <glyph glyph-name="Z" unicode="Z" horiz-adv-x="575" 
d="M40 74l372 544h-355v82h464v-72l-372 -544h386v-84h-495v74z" />
    <glyph glyph-name="bracketleft" unicode="[" horiz-adv-x="300" 
d="M80 740h175v-75h-95v-690h95v-75h-175v840z" />
    <glyph glyph-name="backslash" unicode="\" horiz-adv-x="450" 
d="M329 -71l-282 819l74 25l282 -819z" />
    <glyph glyph-name="bracketright" unicode="]" horiz-adv-x="300" 
d="M45 -100v75h95v690h-95v75h175v-840h-175z" />
    <glyph glyph-name="asciicircum" unicode="^" 
d="M150 510l-56 62l186 168h42l184 -168l-57 -62l-148 147z" />
    <glyph glyph-name="underscore" unicode="_" 
d="M0 -55h600v-60h-600v60z" />
    <glyph glyph-name="grave" unicode="`" horiz-adv-x="311" 
d="M240 575l-200 102l42 84l189 -125z" />
    <glyph glyph-name="a" unicode="a" horiz-adv-x="617" 
d="M45 257q0 58 18 108.5t50.5 87.5t78 58t99.5 21q45 0 81.5 -15.5t63.5 -38.5v42h82v-394q0 -38 18.5 -49.5t40.5 -11.5l-19 -70q-96 0 -116 78q-12 -16 -27.5 -31.5t-35.5 -27.5t-45 -19t-55 -7q-49 0 -91.5 19t-74 54t-50 84.5t-18.5 111.5zM299 68q38 0 72 18t57 47
v279q-27 19 -59.5 30.5t-68.5 11.5t-66 -14t-51.5 -39.5t-33.5 -61.5t-12 -79q0 -42 12 -77.5t34 -61t51.5 -39.5t64.5 -14z" />
    <glyph glyph-name="b" unicode="b" horiz-adv-x="594" 
d="M80 740h90v-274q10 11 25 23t33.5 21.5t41.5 15.5t50 6q45 0 86.5 -18t73 -52t50.5 -84t19 -113q0 -62 -20 -113t-53 -87.5t-75.5 -56.5t-86.5 -20q-45 0 -84.5 16t-65.5 39v-43h-84v740zM457 262q0 45 -12.5 80.5t-34 60.5t-50 38t-60.5 13q-43 0 -77.5 -21.5
t-52.5 -46.5v-278q23 -18 54 -29t66 -11q36 0 67 14t53 39.5t34.5 61t12.5 79.5z" />
    <glyph glyph-name="c" unicode="c" horiz-adv-x="472" 
d="M412 425q-29 14 -54 20.5t-56 6.5q-35 0 -65.5 -13t-52.5 -37.5t-34.5 -59.5t-12.5 -80q0 -41 11.5 -76t32.5 -61.5t50 -41.5t65 -15q38 0 65 8t58 25l28 -76q-32 -17 -70 -27t-87 -10q-56 0 -101 20t-77 56t-49.5 86t-17.5 110q0 56 17.5 105.5t50.5 86.5t79.5 58.5
t104.5 21.5q45 0 78 -8t64 -23z" />
    <glyph glyph-name="d" unicode="d" horiz-adv-x="613" 
d="M277 -12q-48 0 -90.5 19t-74 54t-49.5 84.5t-18 111.5q0 59 18.5 109.5t50 87t73.5 57.5t89 21q52 0 89.5 -21t58.5 -43v272h90v-614q0 -38 18.5 -49.5t40.5 -11.5l-19 -70q-95 0 -116 76q-23 -32 -62 -57.5t-99 -25.5zM297 68q37 0 70.5 17.5t56.5 45.5v258
q-19 24 -52.5 44.5t-75.5 20.5q-36 0 -65.5 -15t-50.5 -41t-32 -61.5t-11 -76.5q0 -42 12 -77t33.5 -60.5t51 -40t63.5 -14.5z" />
    <glyph glyph-name="e" unicode="e" horiz-adv-x="544" 
d="M137 223q9 -73 51 -114t111 -41q45 0 81 9.5t69 24.5l21 -77q-36 -17 -81 -27t-101 -10t-101 18.5t-76.5 53t-48.5 85t-17 115.5q0 58 17 108t48 86.5t74 57t96 20.5q56 0 98 -19t70 -52t42 -77t14 -93q0 -35 -3 -68h-364zM278 454q-59 0 -96.5 -40t-45.5 -118h285
q0 76 -38 117t-105 41z" />
    <glyph glyph-name="f" unicode="f" horiz-adv-x="348" 
d="M371 643q-21 11 -45 20t-53 9q-42 0 -67.5 -26.5t-25.5 -77.5v-67h154v-78h-154v-423h-90v423h-80v78h80v61q0 44 13 79t36 60t56 38t72 13q42 0 72.5 -9.5t58.5 -23.5z" />
    <glyph glyph-name="g" unicode="g" horiz-adv-x="585" 
d="M286 532q45 0 80.5 -15t61.5 -37v40h82v-508q0 -65 -17 -111t-48.5 -75.5t-75.5 -43.5t-98 -14q-47 0 -90 11t-77 33l33 78q24 -19 56 -31.5t78 -12.5q71 0 111.5 37t40.5 120v64q-20 -24 -57.5 -45.5t-89.5 -21.5q-44 0 -86 17.5t-74 51t-51.5 82t-19.5 111.5
q0 58 19 107.5t51.5 85.5t76.5 56.5t94 20.5zM296 80q40 0 72 18t52 42v272q-23 16 -53 29t-72 13q-31 0 -59.5 -12.5t-50.5 -36.5t-35 -58.5t-13 -79.5q0 -43 13 -77.5t35 -59t50.5 -37.5t60.5 -13z" />
    <glyph glyph-name="h" unicode="h" horiz-adv-x="592" 
d="M170 437q28 41 70.5 68t101.5 27q88 0 131.5 -53t43.5 -140v-339h-90v329q0 57 -25.5 90.5t-73.5 33.5q-23 0 -45.5 -8.5t-42.5 -23.5t-38 -35t-32 -42v-344h-90v740h90v-303z" />
    <glyph glyph-name="i" unicode="i" horiz-adv-x="250" 
d="M170 0h-90v520h90v-520zM125 609q-26 0 -44.5 18.5t-18.5 44.5q0 29 17 46t46 17q26 0 44.5 -18.5t18.5 -44.5q0 -29 -17 -46t-46 -17z" />
    <glyph glyph-name="j" unicode="j" horiz-adv-x="259" 
d="M91 520h90v-577q0 -46 -13 -79t-35 -54.5t-52 -31.5t-64 -10q-61 0 -102 23l22 75q13 -8 31.5 -14t37.5 -6q85 0 85 106v568zM136 609q-26 0 -44.5 18.5t-18.5 44.5q0 29 17 46t46 17q26 0 44.5 -18.5t18.5 -44.5q0 -29 -17 -46t-46 -17z" />
    <glyph glyph-name="k" unicode="k" horiz-adv-x="511" 
d="M80 740h90v-423l235 213l52 -57l-201 -178l245 -245l-62 -60l-269 277v-267h-90v740z" />
    <glyph glyph-name="l" unicode="l" horiz-adv-x="346" 
d="M165 172q0 -54 22.5 -80t62.5 -26q19 0 37 4.5t32 10.5l22 -73q-18 -8 -44.5 -14t-58.5 -6q-35 0 -64.5 10t-51.5 31t-34.5 54t-12.5 80v577h90v-568z" />
    <glyph glyph-name="m" unicode="m" horiz-adv-x="915" 
d="M167 433q28 42 70.5 70.5t98.5 28.5q62 0 101 -29.5t56 -80.5q31 46 73.5 78t105.5 32q42 0 73.5 -14t52.5 -39.5t31.5 -61t10.5 -78.5v-339h-90v332q0 54 -25 87.5t-69 33.5q-23 0 -44 -9t-40 -24.5t-36 -36t-31 -42.5v-341h-90v332q0 54 -25 87.5t-69 33.5
q-22 0 -43 -8.5t-40.5 -23.5t-36.5 -35t-31 -42v-344h-90v520h87v-87z" />
    <glyph glyph-name="n" unicode="n" horiz-adv-x="592" 
d="M167 433q28 42 71.5 70.5t103.5 28.5q88 0 131.5 -53t43.5 -140v-339h-90v329q0 57 -26 90.5t-74 33.5q-23 0 -45 -8.5t-42.5 -23.5t-38 -35t-31.5 -42v-344h-90v520h87v-87z" />
    <glyph glyph-name="o" unicode="o" horiz-adv-x="598" 
d="M466 260q0 39 -12.5 74t-35 61t-53 41.5t-66.5 15.5q-79 0 -123 -52t-44 -138q0 -39 12.5 -74.5t35 -62t53 -42t66.5 -15.5q39 0 70 14t52.5 39.5t33 60.5t11.5 78zM40 260q0 63 20 113.5t54.5 85.5t82 54t102.5 19q54 0 101.5 -19t82.5 -54t55 -85t20 -112t-19.5 -112.5
t-54.5 -86.5t-82.5 -55.5t-102.5 -19.5q-56 0 -103.5 20t-82 56t-54 86t-19.5 110z" />
    <glyph glyph-name="p" unicode="p" horiz-adv-x="613" 
d="M59 520q92 0 115 -73q7 11 21.5 26t35.5 28t48 22t60 9q45 0 86.5 -18t73 -52t50.5 -84t19 -113q0 -62 -18.5 -113t-50 -87.5t-72.5 -56.5t-86 -20q-47 0 -86.5 18.5t-65.5 42.5v-269h-90v607q0 34 -16.5 48.5t-42.5 14.5zM476 262q0 45 -12.5 80.5t-34 60.5t-50 38
t-60.5 13q-43 0 -77.5 -21.5t-52.5 -46.5v-256q26 -27 59.5 -44.5t74.5 -17.5q34 0 62 14t48.5 39.5t31.5 61t11 79.5z" />
    <glyph glyph-name="q" unicode="q" horiz-adv-x="594" 
d="M514 520v-740h-90v273q-11 -11 -25.5 -22.5t-33 -21t-40.5 -15.5t-47 -6q-45 0 -87.5 17.5t-74.5 52t-51.5 84.5t-19.5 116q0 61 19 111.5t52 86.5t77 56t94 20q45 0 81.5 -15.5t63.5 -38.5v42h82zM296 454q-32 0 -61 -13t-51 -38t-34.5 -60.5t-12.5 -81.5q0 -45 13 -81
t35.5 -61t51.5 -38t61 -13q40 0 73 19t53 44v281q-27 19 -59.5 30.5t-68.5 11.5z" />
    <glyph glyph-name="r" unicode="r" horiz-adv-x="399" 
d="M362 433q-19 8 -45 8q-28 0 -54.5 -12t-47 -36t-33 -61.5t-12.5 -88.5v-243h-90v520h87v-113q9 24 24 47t35.5 40t47.5 27.5t60 10.5q15 0 29.5 -1.5t25.5 -4.5z" />
    <glyph glyph-name="s" unicode="s" horiz-adv-x="468" 
d="M73 117q26 -23 65.5 -37t84.5 -14q56 0 84.5 18.5t28.5 47.5q0 15 -5.5 28t-20 25t-39.5 23.5t-65 25.5q-74 25 -110 59.5t-36 95.5q0 30 13.5 56t39 45.5t62 30.5t83.5 11q51 0 89.5 -10.5t69.5 -26.5l-25 -74q-27 16 -61.5 26t-76.5 10q-52 0 -79 -21t-27 -46
q0 -12 4.5 -22t16.5 -19t32 -18t50 -19q49 -17 83 -34.5t55 -38.5t30 -45.5t9 -54.5q0 -35 -15 -63t-42 -47.5t-65.5 -30t-85.5 -10.5q-60 0 -107 15t-78 39z" />
    <glyph glyph-name="t" unicode="t" horiz-adv-x="397" 
d="M121 665h69v-164h144v-78h-144v-251q0 -29 6.5 -49t17.5 -32t26.5 -17.5t32.5 -5.5q25 0 47 8t42 19l25 -72q-20 -12 -54 -23.5t-71 -11.5q-75 0 -118.5 49t-43.5 142v244h-90v78h92z" />
    <glyph glyph-name="u" unicode="u" horiz-adv-x="604" 
d="M545 -5q-48 0 -76 19t-39 55q-35 -36 -80.5 -58.5t-99.5 -22.5q-34 0 -65.5 10.5t-56 33.5t-39 60t-14.5 90v338h90v-326q0 -61 25.5 -93.5t76.5 -32.5q42 0 80 16.5t68 44.5v391h90v-385q0 -22 5 -35.5t13 -21t19 -10.5t22 -3z" />
    <glyph glyph-name="v" unicode="v" horiz-adv-x="533" 
d="M10 496l82 34l177 -428l177 428l77 -34l-210 -496h-94z" />
    <glyph glyph-name="w" unicode="w" horiz-adv-x="818" 
d="M713 525l80 -29l-165 -496h-99l-120 387l-121 -387h-99l-164 496l83 29l134 -423l122 381h97l119 -381z" />
    <glyph glyph-name="x" unicode="x" horiz-adv-x="500" 
d="M195 264l-178 206l70 61l161 -208l158 204l67 -57l-173 -202l190 -219l-68 -58l-175 217l-173 -215l-64 56z" />
    <glyph glyph-name="y" unicode="y" horiz-adv-x="523" 
d="M93 -232q-30 0 -52.5 6t-35.5 14l20 75q12 -7 29.5 -12t40.5 -5q21 0 39.5 6t35.5 21t32.5 41t30.5 65l23 60h-48l-203 457l80 36l194 -433l151 429l83 -32l-191 -522q-22 -60 -46.5 -99.5t-52.5 -63.5t-60.5 -33.5t-69.5 -9.5z" />
    <glyph glyph-name="z" unicode="z" horiz-adv-x="472" 
d="M41 520h391v-69l-286 -371h291v-80h-402v71l287 371h-281v78z" />
    <glyph glyph-name="braceleft" unicode="{" horiz-adv-x="300" 
d="M7 352q28 4 47 13.5t29.5 29t15 50.5t4.5 77q0 62 11.5 105t35 70.5t59.5 41.5t84 19v-57q-28 -7 -47.5 -18t-32 -30.5t-18 -50t-5.5 -76.5q0 -56 -6 -92.5t-19.5 -59t-35.5 -35t-53 -19.5q31 -8 53 -20t35.5 -34.5t19.5 -59t6 -92.5q0 -46 5.5 -76.5t18 -50t32 -30.5
t47.5 -18v-57q-48 4 -84 18.5t-59.5 42t-35 70.5t-11.5 105q0 46 -4.5 77t-15 50.5t-29.5 29t-47 13.5v64z" />
    <glyph glyph-name="bar" unicode="|" horiz-adv-x="300" 
d="M111 -100v870h78v-870h-78z" />
    <glyph glyph-name="braceright" unicode="}" horiz-adv-x="300" 
d="M224 320q-32 7 -53.5 19.5t-35 35t-19.5 59t-6 92.5q0 46 -5.5 76.5t-18 50t-32 30.5t-47.5 18v57q48 -5 84 -19t59.5 -41.5t35 -70.5t11.5 -105q0 -46 4.5 -77t15 -50.5t29 -29t47.5 -13.5v-64q-29 -4 -47.5 -13.5t-29 -29t-15 -50.5t-4.5 -77q0 -62 -11.5 -105
t-35 -70.5t-59.5 -42t-84 -18.5v57q28 7 47.5 18t32 30.5t18 50t5.5 76.5q0 56 6 92.5t19.5 59t35 34.5t53.5 20z" />
    <glyph glyph-name="asciitilde" unicode="~" 
d="M524 322q-29 -28 -64 -48.5t-75 -20.5q-26 0 -48.5 9t-43.5 20t-42 20t-43 9q-30 0 -55 -16t-42 -31l-35 63q10 10 24.5 21.5t31.5 21t35.5 15.5t38.5 6q27 0 50 -9t43.5 -20t40.5 -20t41 -9q35 0 61 17.5t46 37.5z" />
    <glyph glyph-name="nonbreakingspace" unicode="&#xa0;" horiz-adv-x="300" 
 />
    <glyph glyph-name="exclamdown" unicode="&#xa1;" horiz-adv-x="314" 
d="M105 41l13 273h74l13 -273v-261h-100v261zM90 465q0 31 17.5 49t49.5 18q26 0 46.5 -20t20.5 -47q0 -30 -19 -48.5t-48 -18.5q-27 0 -47 20t-20 47z" />
    <glyph glyph-name="cent" unicode="&#xa2;" horiz-adv-x="450" 
d="M401 453q-29 14 -54 20.5t-56 6.5q-35 0 -65.5 -13t-52.5 -37.5t-34.5 -59.5t-12.5 -80q0 -41 11.5 -76t32.5 -61.5t50 -41.5t65 -15q38 0 65 8t58 25l28 -76q-25 -14 -54 -23t-64 -13l9 -112h-88l8 113q-49 6 -88.5 27.5t-67 57t-42.5 82.5t-15 103q0 51 14.5 97
t42.5 82t67 59.5t89 30.5l-8 109h88l-8 -107q32 -3 58 -10.5t51 -19.5z" />
    <glyph glyph-name="sterling" unicode="&#xa3;" 
d="M514 0h-427v73q20 28 34 53.5t22.5 53.5t12.5 62t5 79h-75v76h76v122q0 91 49 142t133 51q54 0 91 -13.5t64 -29.5l-30 -71q-24 15 -53.5 26.5t-62.5 11.5q-22 0 -41 -7t-33.5 -22t-22.5 -39.5t-8 -59.5v-111h168v-76h-169q-1 -45 -5.5 -80t-13 -63t-20 -51t-26.5 -44
h332v-83z" />
    <glyph glyph-name="currency" unicode="&#xa4;" 
d="M300 532q47 0 90 -19l55 73l63 -53l-58 -66q21 -26 33 -58.5t12 -70.5q0 -39 -12 -71.5t-33 -57.5l58 -66l-63 -53l-55 74q-42 -20 -90 -20q-47 0 -90 19l-55 -73l-63 53l58 66q-21 26 -33 58.5t-12 70.5q0 39 12 71.5t33 57.5l-58 66l63 53l55 -74q42 20 90 20zM300 216
q54 0 83 33t29 88q0 25 -8.5 47.5t-23.5 39t-35.5 26.5t-44.5 10q-54 0 -83 -33t-29 -88q0 -25 8.5 -47.5t23.5 -39t35.5 -26.5t44.5 -10z" />
    <glyph glyph-name="yen" unicode="&#xa5;" 
d="M305 351l205 354l75 -44l-196 -322h117v-73h-157v-67h157v-73h-157v-126h-95v126h-158v73h158v67h-158v73h117l-197 322l80 48z" />
    <glyph glyph-name="brokenbar" unicode="&#xa6;" horiz-adv-x="300" 
d="M111 257h78v-357h-78v357zM111 770h78v-348h-78v348z" />
    <glyph glyph-name="section" unicode="&#xa7;" 
d="M303 227q46 14 75.5 41t29.5 67q0 33 -23 59t-78 46q-48 -14 -79 -41t-31 -67q0 -33 25.5 -59t80.5 -46zM365 195q57 -25 83.5 -56t26.5 -73q0 -32 -14 -57.5t-40 -43.5t-62 -27.5t-79 -9.5q-102 0 -172 47l36 68q60 -43 138 -43q51 0 79.5 15.5t28.5 43.5q0 12 -5.5 24
t-19 24.5t-37 26t-59.5 29.5q-42 18 -71.5 35t-48 36t-27 40.5t-8.5 48.5q0 51 34.5 88.5t92.5 58.5q-55 25 -82 54t-27 73q0 29 13.5 54t38 43t59.5 28.5t78 10.5t85 -12.5t74 -31.5l-38 -62q-22 14 -55 26.5t-68 12.5q-54 0 -79.5 -20t-25.5 -42q0 -14 5 -25t20 -23
t41.5 -26t69.5 -32q75 -32 108 -68t33 -86q0 -53 -33.5 -89t-92.5 -60z" />
    <glyph glyph-name="dieresis" unicode="&#xa8;" horiz-adv-x="402" 
d="M110 607q-25 0 -42.5 18t-17.5 42q0 27 16 43.5t44 16.5q25 0 42.5 -18t17.5 -42q0 -27 -16 -43.5t-44 -16.5zM292 607q-25 0 -42.5 18t-17.5 42q0 27 16 43.5t44 16.5q25 0 42.5 -18t17.5 -42q0 -27 -16 -43.5t-44 -16.5z" />
    <glyph glyph-name="copyright" unicode="&#xa9;" horiz-adv-x="900" 
d="M353 353q0 -69 33 -109.5t84 -40.5q27 0 50 8.5t48 22.5l26 -73q-27 -16 -59.5 -25.5t-71.5 -9.5q-43 0 -79 15.5t-61.5 44.5t-40 70.5t-14.5 93.5q0 50 14.5 92t41 72t64 47t83.5 17q32 0 60.5 -7t55.5 -20l-28 -74q-21 11 -42.5 17.5t-46.5 6.5q-51 0 -84 -38.5
t-33 -109.5zM450 51q67 0 118.5 22t86.5 62t53 95t18 120q0 66 -18 120.5t-53 94.5t-86.5 62t-118.5 22t-118.5 -22.5t-86.5 -62t-53 -94.5t-18 -120q0 -66 18 -120.5t53 -94.5t86.5 -62t118.5 -22zM449 -12q-84 0 -149 27.5t-109.5 75.5t-67 114.5t-22.5 144.5
q0 75 23.5 141t68 115t109.5 77.5t148 28.5q84 0 149.5 -27.5t109.5 -75.5t67 -114.5t23 -144.5q0 -75 -23.5 -141t-68.5 -115t-110 -77.5t-148 -28.5z" />
    <glyph glyph-name="ordfeminine" unicode="&#xaa;" 
d="M102 513q0 44 14.5 79.5t39 61t57.5 39.5t70 14q29 0 52.5 -8.5t43.5 -20.5v22h74v-266q0 -27 14 -35.5t31 -8.5l-18 -63q-68 0 -91 48q-16 -17 -44.5 -34.5t-69.5 -17.5q-33 0 -64 12.5t-55.5 36.5t-39 59.5t-14.5 81.5zM288 393q26 0 47.5 12t38.5 32v176
q-17 11 -37.5 18t-45.5 7q-46 0 -78 -31.5t-32 -91.5q0 -29 9 -51.5t24 -38t34 -24t40 -8.5zM130 132v82h340v-82h-340z" />
    <glyph glyph-name="guillemotleft" unicode="&#xab;" horiz-adv-x="566" 
d="M218 129l-158 194v42l158 194l58 -49l-142 -166l142 -166zM418 129l-158 194v42l158 194l58 -49l-142 -166l142 -166z" />
    <glyph glyph-name="logicalnot" unicode="&#xac;" 
d="M535 120h-90v181h-380v82h470v-263z" />
    <glyph glyph-name="uni00AD" unicode="&#xad;" 
d="M130 302v82h340v-82h-340z" />
    <glyph glyph-name="registered" unicode="&#xae;" horiz-adv-x="900" 
d="M449 -12q-84 0 -149 27.5t-109.5 75.5t-67 114.5t-22.5 144.5q0 75 23.5 141t68 115t109.5 77.5t148 28.5q84 0 149.5 -27.5t109.5 -75.5t67 -114.5t23 -144.5q0 -75 -23.5 -141t-68.5 -115t-110 -77.5t-148 -28.5zM450 51q67 0 118.5 22t86.5 62t53 95t18 120
q0 66 -18 120.5t-53 94.5t-86.5 62t-118.5 22t-118.5 -22.5t-86.5 -62t-53 -94.5t-18 -120q0 -66 18 -120.5t53 -94.5t86.5 -62t118.5 -22zM556 133l-54 120q-31 66 -106 67v-177h-79v423q27 3 54.5 5t65.5 2q79 0 123.5 -29.5t44.5 -89.5q0 -42 -23 -67t-68 -39
q23 -11 38.5 -29t29.5 -47l48 -105zM446 502q-14 0 -26.5 -0.5t-23.5 -1.5v-109h50q36 0 58.5 14.5t22.5 43.5q0 23 -21 38t-60 15z" />
    <glyph glyph-name="macron" unicode="&#xaf;" horiz-adv-x="410" 
d="M60 627v73h290v-73h-290z" />
    <glyph glyph-name="degree" unicode="&#xb0;" horiz-adv-x="450" 
d="M129 599q0 -30 18 -50t48 -20t48 18t18 52q0 30 -18 50t-48 20t-48 -17t-18 -53zM50 599q0 30 11.5 56t31.5 45t46 29.5t56 10.5t56 -10.5t46 -29.5t31.5 -45t11.5 -56t-11.5 -56t-31.5 -45t-46 -29.5t-56 -10.5t-56 10.5t-46 29.5t-31.5 45t-11.5 56z" />
    <glyph glyph-name="plusminus" unicode="&#xb1;" 
d="M343 394v-135h-85v135h-128v78h128v136h85v-136h127v-78h-127zM130 72v82h340v-82h-340z" />
    <glyph glyph-name="twosuperior" unicode="&#xb2;" horiz-adv-x="450" 
d="M80 276q-1 8 -1.5 16.5t-0.5 19.5q0 37 15.5 67t39 54.5t51 45t51 39.5t39 37t15.5 37q0 21 -18 35.5t-45 14.5t-50 -10.5t-46 -29.5l-47 50q32 26 69 40.5t82 14.5q63 0 100 -31.5t37 -78.5q0 -28 -14 -51.5t-35 -43.5t-46 -38.5t-47.5 -37.5t-39.5 -39t-21 -44h204v-67
h-292z" />
    <glyph glyph-name="threesuperior" unicode="&#xb3;" horiz-adv-x="450" 
d="M205 270q-38 0 -72.5 11t-61.5 28l38 59q21 -13 45.5 -22.5t50.5 -9.5q45 0 69 18t24 44q0 28 -28 48.5t-89 20.5h-46v61h43q29 0 49.5 6t33 15t18.5 20t6 22q0 22 -22.5 37t-54.5 15q-26 0 -48.5 -9.5t-40.5 -22.5l-36 59q24 14 57 25.5t71 11.5q37 0 66 -9.5
t48.5 -24.5t30 -35t10.5 -41q0 -33 -14 -55.5t-46 -38.5q35 -16 54 -42.5t19 -60.5q0 -24 -10 -47.5t-31.5 -42t-54.5 -29.5t-78 -11z" />
    <glyph glyph-name="acute" unicode="&#xb4;" horiz-adv-x="311" 
d="M40 636l189 125l42 -84l-200 -102z" />
    <glyph glyph-name="mu" unicode="&#xb5;" 
d="M90 520h86v-331q0 -32 9 -55t24 -37.5t35 -21.5t41 -7q34 0 70 14.5t69 44.5v393h86v-520h-83v59q-35 -34 -75 -52.5t-81 -18.5q-38 0 -61.5 11t-38.5 30v-249h-81v740z" />
    <glyph glyph-name="paragraph" unicode="&#xb6;" horiz-adv-x="750" 
d="M425 -64v466q-15 -2 -33.5 -3.5t-40.5 -1.5q-115 0 -180 49t-65 135q0 42 16 78.5t46.5 63t75.5 41.5t103 15q46 0 83.5 -2.5t72.5 -6.5v-834h-78zM565 -64v834h78v-834h-78zM346 474q26 0 45 1.5t34 3.5v219q-20 2 -40 3t-43 1q-76 0 -111 -34t-35 -82q0 -50 40.5 -81
t109.5 -31z" />
    <glyph glyph-name="periodcentered" unicode="&#xb7;" horiz-adv-x="300" 
d="M83 355q0 31 17.5 49t49.5 18q26 0 46.5 -20t20.5 -47q0 -30 -19 -48.5t-48 -18.5q-27 0 -47 20t-20 47z" />
    <glyph glyph-name="cedilla" unicode="&#xb8;" horiz-adv-x="297" 
d="M267 -148q0 -19 -8.5 -36t-25.5 -30.5t-43 -21.5t-60 -8q-27 0 -52 4.5t-48 15.5l24 63q33 -17 72 -17q26 0 43 9t17 28q0 18 -23.5 32t-89.5 14l35 95h68l-21 -59q51 0 81.5 -22t30.5 -67z" />
    <glyph glyph-name="onesuperior" unicode="&#xb9;" horiz-adv-x="450" 
d="M289 700v-359h80v-65h-256v65h96v264l-82 -53l-46 55l151 93h57z" />
    <glyph glyph-name="ordmasculine" unicode="&#xba;" 
d="M411 515q0 25 -8.5 47.5t-23 39t-34.5 26t-44 9.5q-54 0 -83 -33t-29 -88q0 -25 8.5 -47.5t23.5 -39t35.5 -26.5t44.5 -10q52 0 81 33.5t29 88.5zM109 515q0 45 14.5 80.5t40.5 60t61 38t76 13.5q40 0 74.5 -13.5t60 -38t40.5 -60t15 -79.5t-14.5 -79.5t-40 -61t-60 -39
t-75.5 -13.5q-42 0 -77 14t-60.5 39.5t-40 60.5t-14.5 78zM130 132v82h340v-82h-340z" />
    <glyph glyph-name="guillemotright" unicode="&#xbb;" horiz-adv-x="566" 
d="M90 178l142 166l-142 166l58 49l158 -194v-42l-158 -194zM290 178l142 166l-142 166l58 49l158 -194v-42l-158 -194z" />
    <glyph glyph-name="onequarter" unicode="&#xbc;" horiz-adv-x="900" 
d="M229 -2l437 742l60 -38l-437 -742zM729 87h-200v52l144 291l71 -26l-123 -251h108v114h77v-114h57v-66h-57v-87h-77v87zM245 700v-359h80v-65h-256v65h96v264l-82 -53l-46 55l151 93h57z" />
    <glyph glyph-name="onehalf" unicode="&#xbd;" horiz-adv-x="900" 
d="M214 -2l437 742l60 -38l-437 -742zM240 700v-359h80v-65h-256v65h96v264l-82 -53l-46 55l151 93h57zM576 0q-1 8 -1.5 16.5t-0.5 19.5q0 37 15.5 67t39 54.5t51 45t51 39.5t39 36.5t15.5 37.5q0 21 -18 35.5t-45 14.5t-50 -10.5t-46 -29.5l-47 50q32 26 69 40.5t82 14.5
q63 0 100 -31.5t37 -78.5q0 -28 -14 -51.5t-35 -43.5t-46 -38.5t-47.5 -37.5t-39.5 -39t-21 -44h204v-67h-292z" />
    <glyph glyph-name="threequarters" unicode="&#xbe;" horiz-adv-x="900" 
d="M718 87h-200v52l144 291l71 -26l-123 -251h108v114h77v-114h57v-66h-57v-87h-77v87zM219 -2l437 742l60 -38l-437 -742zM182 270q-38 0 -72.5 11t-61.5 28l38 59q21 -13 45.5 -22.5t50.5 -9.5q45 0 69 18t24 44q0 28 -28 48.5t-89 20.5h-46v61h43q29 0 49.5 6t33 15
t18.5 20t6 22q0 22 -22.5 37t-54.5 15q-26 0 -48.5 -9.5t-40.5 -22.5l-36 59q24 14 57 25.5t71 11.5q37 0 66 -9.5t48.5 -24.5t30 -35t10.5 -41q0 -33 -14 -55.5t-46 -38.5q35 -16 54 -42.5t19 -60.5q0 -24 -10 -47.5t-31.5 -42t-54.5 -29.5t-78 -11z" />
    <glyph glyph-name="questiondown" unicode="&#xbf;" horiz-adv-x="491" 
d="M446 -127q-40 -49 -89 -77t-118 -28q-42 0 -76.5 13t-59.5 35t-39 51.5t-14 63.5q0 42 14.5 72.5t36.5 54t47.5 43.5t47.5 42t36.5 49t14.5 65v56h78q5 -17 7.5 -37t2.5 -37q0 -43 -14 -73.5t-35 -54t-45 -42.5t-45 -38.5t-35 -41.5t-14 -51q0 -35 27 -61.5t73 -26.5
q42 0 74.5 20t59.5 55zM214 465q0 31 17.5 49t49.5 18q26 0 46.5 -20t20.5 -47q0 -30 -19 -48.5t-48 -18.5q-27 0 -47 20t-20 47z" />
    <glyph glyph-name="Agrave" unicode="&#xc0;" horiz-adv-x="668" 
d="M10 25l274 675h104l270 -675l-87 -35l-78 200h-324l-78 -198zM199 270h263l-131 336zM420 734l-200 102l42 84l189 -125z" />
    <glyph glyph-name="Aacute" unicode="&#xc1;" horiz-adv-x="668" 
d="M10 25l274 675h104l270 -675l-87 -35l-78 200h-324l-78 -198zM199 270h263l-131 336zM215 795l189 125l42 -84l-200 -102z" />
    <glyph glyph-name="Acircumflex" unicode="&#xc2;" horiz-adv-x="668" 
d="M10 25l274 675h104l270 -675l-87 -35l-78 200h-324l-78 -198zM199 270h263l-131 336zM197 742l-43 78l147 80h64l146 -80l-43 -78l-135 95z" />
    <glyph glyph-name="Atilde" unicode="&#xc3;" horiz-adv-x="668" 
d="M10 25l274 675h104l270 -675l-87 -35l-78 200h-324l-78 -198zM199 270h263l-131 336zM496 806q-18 -17 -41.5 -31.5t-54.5 -14.5q-20 0 -34.5 5.5t-27.5 11.5t-26.5 11.5t-30.5 5.5q-22 0 -40 -11t-33 -25l-35 62q18 20 46 36t58 16q19 0 33.5 -5.5t27 -11.5t25.5 -11.5
t29 -5.5q22 0 39 9.5t30 21.5z" />
    <glyph glyph-name="Adieresis" unicode="&#xc4;" horiz-adv-x="668" 
d="M10 25l274 675h104l270 -675l-87 -35l-78 200h-324l-78 -198zM199 270h263l-131 336zM245 760q-25 0 -42.5 18t-17.5 42q0 27 16 43.5t44 16.5q25 0 42.5 -18t17.5 -42q0 -27 -16 -43.5t-44 -16.5zM427 760q-25 0 -42.5 18t-17.5 42q0 27 16 43.5t44 16.5q25 0 42.5 -18
t17.5 -42q0 -27 -16 -43.5t-44 -16.5z" />
    <glyph glyph-name="Aring" unicode="&#xc5;" horiz-adv-x="668" 
d="M209 758q0 26 10 48t27 38t39.5 25t48.5 9q25 0 48 -9t40 -25t27 -38t10 -48q0 -33 -15 -58.5t-40 -41.5l254 -633l-87 -35l-78 200h-324l-78 -198l-81 33l256 631q-26 15 -41.5 41.5t-15.5 60.5zM199 270h263l-131 336zM286 758q0 -23 11.5 -39.5t31.5 -18.5h9
q20 2 32 17t12 41q0 23 -12.5 40.5t-35.5 17.5q-22 0 -35 -14.5t-13 -43.5z" />
    <glyph glyph-name="AE" unicode="&#xc6;" horiz-adv-x="918" 
d="M5 39l415 661h453v-82h-318v-213h273v-80h-273v-243h318v-82h-410v190h-259l-122 -199zM253 270h210v341z" />
    <glyph glyph-name="Ccedilla" unicode="&#xc7;" horiz-adv-x="594" 
d="M464 -148q0 -19 -8.5 -36t-25.5 -30.5t-43 -21.5t-60 -8q-27 0 -52 4.5t-48 15.5l24 63q33 -17 72 -17q26 0 43 9t17 28q0 18 -23.5 32t-89.5 14l32 88q-57 9 -103.5 38t-79.5 74.5t-51 106.5t-18 135q0 80 22.5 147t64.5 115.5t101.5 75.5t132.5 27q51 0 91.5 -9.5
t76.5 -26.5l-29 -80q-31 15 -63.5 24t-76.5 9q-48 0 -89 -18.5t-71 -54.5t-46.5 -87.5t-16.5 -117.5q0 -63 16.5 -114.5t46 -88.5t70.5 -57t90 -20t85 11.5t70 31.5l29 -79q-35 -20 -80.5 -32.5t-105.5 -14.5l-16 -47q51 0 81.5 -22t30.5 -67z" />
    <glyph glyph-name="Egrave" unicode="&#xc8;" horiz-adv-x="555" 
d="M90 700h420v-82h-325v-213h280v-80h-280v-243h325v-82h-420v700zM383 734l-200 102l42 84l189 -125z" />
    <glyph glyph-name="Eacute" unicode="&#xc9;" horiz-adv-x="555" 
d="M90 700h420v-82h-325v-213h280v-80h-280v-243h325v-82h-420v700zM189 795l189 125l42 -84l-200 -102z" />
    <glyph glyph-name="Ecircumflex" unicode="&#xca;" horiz-adv-x="555" 
d="M90 700h420v-82h-325v-213h280v-80h-280v-243h325v-82h-420v700zM173 742l-43 78l147 80h64l146 -80l-43 -78l-135 95z" />
    <glyph glyph-name="Edieresis" unicode="&#xcb;" horiz-adv-x="555" 
d="M90 700h420v-82h-325v-213h280v-80h-280v-243h325v-82h-420v700zM217 760q-25 0 -42.5 18t-17.5 42q0 27 16 43.5t44 16.5q25 0 42.5 -18t17.5 -42q0 -27 -16 -43.5t-44 -16.5zM399 760q-25 0 -42.5 18t-17.5 42q0 27 16 43.5t44 16.5q25 0 42.5 -18t17.5 -42
q0 -27 -16 -43.5t-44 -16.5z" />
    <glyph glyph-name="Igrave" unicode="&#xcc;" horiz-adv-x="275" 
d="M90 0v700h95v-700h-95zM227 734l-200 102l42 84l189 -125z" />
    <glyph glyph-name="Iacute" unicode="&#xcd;" horiz-adv-x="275" 
d="M90 0v700h95v-700h-95zM20 795l189 125l42 -84l-200 -102z" />
    <glyph glyph-name="Icircumflex" unicode="&#xce;" horiz-adv-x="275" 
d="M90 0v700h95v-700h-95zM3 742l-43 78l147 80h64l146 -80l-43 -78l-135 95z" />
    <glyph glyph-name="Idieresis" unicode="&#xcf;" horiz-adv-x="275" 
d="M90 0v700h95v-700h-95zM47 760q-25 0 -42.5 18t-17.5 42q0 27 16 43.5t44 16.5q25 0 42.5 -18t17.5 -42q0 -27 -16 -43.5t-44 -16.5zM229 760q-25 0 -42.5 18t-17.5 42q0 27 16 43.5t44 16.5q25 0 42.5 -18t17.5 -42q0 -27 -16 -43.5t-44 -16.5z" />
    <glyph glyph-name="Eth" unicode="&#xd0;" horiz-adv-x="702" 
d="M10 384h100v314q47 5 92 7.5t103 2.5q90 0 155 -28t108 -77t63.5 -114t20.5 -138t-21 -138.5t-64.5 -114.5t-111 -77.5t-161.5 -28.5q-57 0 -99.5 2.5t-84.5 7.5v302h-100v80zM302 626q-29 0 -53 -1.5t-44 -3.5v-237h148v-80h-148v-224q21 -3 44 -4t48 -1q67 0 116 20.5
t80.5 57t46.5 87t15 111.5q0 54 -15 103.5t-46 88t-79 61t-113 22.5z" />
    <glyph glyph-name="Ntilde" unicode="&#xd1;" horiz-adv-x="705" 
d="M180 578v-578h-90v700h126l309 -582v582h90v-700h-124zM516 806q-18 -17 -41.5 -31.5t-54.5 -14.5q-20 0 -34.5 5.5t-27.5 11.5t-26.5 11.5t-30.5 5.5q-22 0 -40 -11t-33 -25l-35 62q18 20 46 36t58 16q19 0 33.5 -5.5t27 -11.5t25.5 -11.5t29 -5.5q22 0 39 9.5t30 21.5z
" />
    <glyph glyph-name="Ograve" unicode="&#xd2;" horiz-adv-x="761" 
d="M50 351q0 77 22.5 143t65 114.5t103.5 76t139 27.5q77 0 138.5 -28.5t104 -77.5t65.5 -114.5t23 -140.5t-22.5 -141t-65.5 -115.5t-104 -78t-139 -28.5t-139 28.5t-103.5 78t-65 115.5t-22.5 141zM147 351q0 -54 15.5 -105t45.5 -90t73.5 -62.5t98.5 -23.5
q58 0 101.5 21.5t73 59t44.5 89t15 111.5q0 54 -16 104t-46 89t-73.5 62.5t-98.5 23.5t-98.5 -21.5t-73.5 -59t-45.5 -88.5t-15.5 -110zM469 734l-200 102l42 84l189 -125z" />
    <glyph glyph-name="Oacute" unicode="&#xd3;" horiz-adv-x="761" 
d="M50 351q0 77 22.5 143t65 114.5t103.5 76t139 27.5q77 0 138.5 -28.5t104 -77.5t65.5 -114.5t23 -140.5t-22.5 -141t-65.5 -115.5t-104 -78t-139 -28.5t-139 28.5t-103.5 78t-65 115.5t-22.5 141zM147 351q0 -54 15.5 -105t45.5 -90t73.5 -62.5t98.5 -23.5
q58 0 101.5 21.5t73 59t44.5 89t15 111.5q0 54 -16 104t-46 89t-73.5 62.5t-98.5 23.5t-98.5 -21.5t-73.5 -59t-45.5 -88.5t-15.5 -110zM287 795l189 125l42 -84l-200 -102z" />
    <glyph glyph-name="Ocircumflex" unicode="&#xd4;" horiz-adv-x="761" 
d="M50 351q0 77 22.5 143t65 114.5t103.5 76t139 27.5q77 0 138.5 -28.5t104 -77.5t65.5 -114.5t23 -140.5t-22.5 -141t-65.5 -115.5t-104 -78t-139 -28.5t-139 28.5t-103.5 78t-65 115.5t-22.5 141zM147 351q0 -54 15.5 -105t45.5 -90t73.5 -62.5t98.5 -23.5
q58 0 101.5 21.5t73 59t44.5 89t15 111.5q0 54 -16 104t-46 89t-73.5 62.5t-98.5 23.5t-98.5 -21.5t-73.5 -59t-45.5 -88.5t-15.5 -110zM246 742l-43 78l147 80h64l146 -80l-43 -78l-135 95z" />
    <glyph glyph-name="Otilde" unicode="&#xd5;" horiz-adv-x="761" 
d="M50 351q0 77 22.5 143t65 114.5t103.5 76t139 27.5q77 0 138.5 -28.5t104 -77.5t65.5 -114.5t23 -140.5t-22.5 -141t-65.5 -115.5t-104 -78t-139 -28.5t-139 28.5t-103.5 78t-65 115.5t-22.5 141zM147 351q0 -54 15.5 -105t45.5 -90t73.5 -62.5t98.5 -23.5
q58 0 101.5 21.5t73 59t44.5 89t15 111.5q0 54 -16 104t-46 89t-73.5 62.5t-98.5 23.5t-98.5 -21.5t-73.5 -59t-45.5 -88.5t-15.5 -110zM549 806q-18 -17 -41.5 -31.5t-54.5 -14.5q-20 0 -34.5 5.5t-27.5 11.5t-26.5 11.5t-30.5 5.5q-22 0 -40 -11t-33 -25l-35 62
q18 20 46 36t58 16q19 0 33.5 -5.5t27 -11.5t25.5 -11.5t29 -5.5q22 0 39 9.5t30 21.5z" />
    <glyph glyph-name="Odieresis" unicode="&#xd6;" horiz-adv-x="761" 
d="M50 351q0 77 22.5 143t65 114.5t103.5 76t139 27.5q77 0 138.5 -28.5t104 -77.5t65.5 -114.5t23 -140.5t-22.5 -141t-65.5 -115.5t-104 -78t-139 -28.5t-139 28.5t-103.5 78t-65 115.5t-22.5 141zM147 351q0 -54 15.5 -105t45.5 -90t73.5 -62.5t98.5 -23.5
q58 0 101.5 21.5t73 59t44.5 89t15 111.5q0 54 -16 104t-46 89t-73.5 62.5t-98.5 23.5t-98.5 -21.5t-73.5 -59t-45.5 -88.5t-15.5 -110zM295 760q-25 0 -42.5 18t-17.5 42q0 27 16 43.5t44 16.5q25 0 42.5 -18t17.5 -42q0 -27 -16 -43.5t-44 -16.5zM477 760q-25 0 -42.5 18
t-17.5 42q0 27 16 43.5t44 16.5q25 0 42.5 -18t17.5 -42q0 -27 -16 -43.5t-44 -16.5z" />
    <glyph glyph-name="multiply" unicode="&#xd7;" 
d="M111 479l55 55l134 -136l134 136l55 -55l-135 -135l135 -134l-55 -54l-134 134l-134 -134l-55 54l135 134z" />
    <glyph glyph-name="Oslash" unicode="&#xd8;" horiz-adv-x="761" 
d="M50 351q0 77 22.5 143t65 114.5t103.5 76t139 27.5q35 0 65.5 -6.5t59.5 -17.5l52 121l82 -38l-65 -121q66 -49 101.5 -127t35.5 -172q0 -75 -22.5 -141t-65.5 -115.5t-104 -78t-139 -28.5q-31 0 -59 5t-54 13l-53 -124l-82 38l64 121q-71 48 -108.5 129.5t-37.5 180.5z
M147 351q0 -67 23 -127t67 -100l232 487q-40 19 -89 19q-55 0 -98.5 -21.5t-73.5 -59t-45.5 -88.5t-15.5 -110zM614 351q0 62 -21 119t-61 96l-230 -482q36 -14 78 -14q58 0 101.5 21.5t73 59t44.5 89t15 111.5z" />
    <glyph glyph-name="Ugrave" unicode="&#xd9;" horiz-adv-x="670" 
d="M503 700h92v-430q0 -66 -18.5 -118.5t-53 -89t-82.5 -55.5t-107 -19q-122 0 -190.5 71.5t-68.5 206.5v434h95v-419q0 -101 40.5 -155.5t123.5 -54.5q85 0 127 53.5t42 156.5v419zM417 734l-200 102l42 84l189 -125z" />
    <glyph glyph-name="Uacute" unicode="&#xda;" horiz-adv-x="670" 
d="M503 700h92v-430q0 -66 -18.5 -118.5t-53 -89t-82.5 -55.5t-107 -19q-122 0 -190.5 71.5t-68.5 206.5v434h95v-419q0 -101 40.5 -155.5t123.5 -54.5q85 0 127 53.5t42 156.5v419zM235 795l189 125l42 -84l-200 -102z" />
    <glyph glyph-name="Ucircumflex" unicode="&#xdb;" horiz-adv-x="670" 
d="M503 700h92v-430q0 -66 -18.5 -118.5t-53 -89t-82.5 -55.5t-107 -19q-122 0 -190.5 71.5t-68.5 206.5v434h95v-419q0 -101 40.5 -155.5t123.5 -54.5q85 0 127 53.5t42 156.5v419zM201 742l-43 78l147 80h64l146 -80l-43 -78l-135 95z" />
    <glyph glyph-name="Udieresis" unicode="&#xdc;" horiz-adv-x="670" 
d="M503 700h92v-430q0 -66 -18.5 -118.5t-53 -89t-82.5 -55.5t-107 -19q-122 0 -190.5 71.5t-68.5 206.5v434h95v-419q0 -101 40.5 -155.5t123.5 -54.5q85 0 127 53.5t42 156.5v419zM246 760q-25 0 -42.5 18t-17.5 42q0 27 16 43.5t44 16.5q25 0 42.5 -18t17.5 -42
q0 -27 -16 -43.5t-44 -16.5zM428 760q-25 0 -42.5 18t-17.5 42q0 27 16 43.5t44 16.5q25 0 42.5 -18t17.5 -42q0 -27 -16 -43.5t-44 -16.5z" />
    <glyph glyph-name="Yacute" unicode="&#xdd;" horiz-adv-x="599" 
d="M304 354l210 351l75 -44l-241 -395v-266h-95v266l-243 395l80 48zM193 795l189 125l42 -84l-200 -102z" />
    <glyph glyph-name="Thorn" unicode="&#xde;" horiz-adv-x="582" 
d="M90 0v700h95v-121q46 3 98 3q66 0 117 -16t86 -44t53 -67.5t18 -85.5q0 -56 -21.5 -100t-60 -74t-92.5 -45.5t-120 -15.5q-27 0 -45.5 0.5t-32.5 1.5v-136h-95zM281 502q-27 0 -51 -1t-45 -3v-280q11 -2 30.5 -3t59.5 -1q90 0 138.5 39.5t48.5 107.5q0 65 -46.5 103
t-134.5 38z" />
    <glyph glyph-name="germandbls" unicode="&#xdf;" horiz-adv-x="630" 
d="M370 -12q-60 0 -101 19l20 78q34 -17 78 -17q57 0 94 35.5t37 98.5q0 31 -12 58t-35 47.5t-56 32.5t-76 12v73q42 0 72.5 12t50 31t28.5 43.5t9 48.5q0 51 -34 81.5t-85 30.5q-32 0 -59.5 -12t-47.5 -41.5t-31.5 -79t-11.5 -124.5v-635h-90v569q0 50 -24 70t-66 20l23 81
q33 0 53 -11t32 -32q0 71 16.5 123t47 85.5t73 50t93.5 16.5q43 0 80 -14t63 -38.5t41 -57t15 -68.5q0 -65 -30.5 -107.5t-93.5 -69.5q73 -25 110 -74t37 -119q0 -46 -15.5 -85.5t-44 -68.5t-69 -45.5t-91.5 -16.5z" />
    <glyph glyph-name="agrave" unicode="&#xe0;" horiz-adv-x="617" 
d="M45 257q0 58 18 108.5t50.5 87.5t78 58t99.5 21q45 0 81.5 -15.5t63.5 -38.5v42h82v-394q0 -38 18.5 -49.5t40.5 -11.5l-19 -70q-96 0 -116 78q-12 -16 -27.5 -31.5t-35.5 -27.5t-45 -19t-55 -7q-49 0 -91.5 19t-74 54t-50 84.5t-18.5 111.5zM299 68q38 0 72 18t57 47
v279q-27 19 -59.5 30.5t-68.5 11.5t-66 -14t-51.5 -39.5t-33.5 -61.5t-12 -79q0 -42 12 -77.5t34 -61t51.5 -39.5t64.5 -14zM387 575l-200 102l42 84l189 -125z" />
    <glyph glyph-name="aacute" unicode="&#xe1;" horiz-adv-x="617" 
d="M45 257q0 58 18 108.5t50.5 87.5t78 58t99.5 21q45 0 81.5 -15.5t63.5 -38.5v42h82v-394q0 -38 18.5 -49.5t40.5 -11.5l-19 -70q-96 0 -116 78q-12 -16 -27.5 -31.5t-35.5 -27.5t-45 -19t-55 -7q-49 0 -91.5 19t-74 54t-50 84.5t-18.5 111.5zM299 68q38 0 72 18t57 47
v279q-27 19 -59.5 30.5t-68.5 11.5t-66 -14t-51.5 -39.5t-33.5 -61.5t-12 -79q0 -42 12 -77.5t34 -61t51.5 -39.5t64.5 -14zM199 636l189 125l42 -84l-200 -102z" />
    <glyph glyph-name="acircumflex" unicode="&#xe2;" horiz-adv-x="617" 
d="M45 257q0 58 18 108.5t50.5 87.5t78 58t99.5 21q45 0 81.5 -15.5t63.5 -38.5v42h82v-394q0 -38 18.5 -49.5t40.5 -11.5l-19 -70q-96 0 -116 78q-12 -16 -27.5 -31.5t-35.5 -27.5t-45 -19t-55 -7q-49 0 -91.5 19t-74 54t-50 84.5t-18.5 111.5zM299 68q38 0 72 18t57 47
v279q-27 19 -59.5 30.5t-68.5 11.5t-66 -14t-51.5 -39.5t-33.5 -61.5t-12 -79q0 -42 12 -77.5t34 -61t51.5 -39.5t64.5 -14zM175 572l-47 74l146 94h64l146 -94l-47 -74l-131 105z" />
    <glyph glyph-name="atilde" unicode="&#xe3;" horiz-adv-x="617" 
d="M45 257q0 58 18 108.5t50.5 87.5t78 58t99.5 21q45 0 81.5 -15.5t63.5 -38.5v42h82v-394q0 -38 18.5 -49.5t40.5 -11.5l-19 -70q-96 0 -116 78q-12 -16 -27.5 -31.5t-35.5 -27.5t-45 -19t-55 -7q-49 0 -91.5 19t-74 54t-50 84.5t-18.5 111.5zM299 68q38 0 72 18t57 47
v279q-27 19 -59.5 30.5t-68.5 11.5t-66 -14t-51.5 -39.5t-33.5 -61.5t-12 -79q0 -42 12 -77.5t34 -61t51.5 -39.5t64.5 -14zM472 656q-18 -17 -41.5 -31.5t-54.5 -14.5q-20 0 -34.5 5.5t-27.5 11.5t-26.5 11.5t-30.5 5.5q-22 0 -40 -11t-33 -25l-35 62q18 20 46 36t58 16
q19 0 33.5 -5.5t27 -11.5t25.5 -11.5t29 -5.5q22 0 39 9.5t30 21.5z" />
    <glyph glyph-name="adieresis" unicode="&#xe4;" horiz-adv-x="617" 
d="M45 257q0 58 18 108.5t50.5 87.5t78 58t99.5 21q45 0 81.5 -15.5t63.5 -38.5v42h82v-394q0 -38 18.5 -49.5t40.5 -11.5l-19 -70q-96 0 -116 78q-12 -16 -27.5 -31.5t-35.5 -27.5t-45 -19t-55 -7q-49 0 -91.5 19t-74 54t-50 84.5t-18.5 111.5zM299 68q38 0 72 18t57 47
v279q-27 19 -59.5 30.5t-68.5 11.5t-66 -14t-51.5 -39.5t-33.5 -61.5t-12 -79q0 -42 12 -77.5t34 -61t51.5 -39.5t64.5 -14zM215 607q-25 0 -42.5 18t-17.5 42q0 27 16 43.5t44 16.5q25 0 42.5 -18t17.5 -42q0 -27 -16 -43.5t-44 -16.5zM397 607q-25 0 -42.5 18t-17.5 42
q0 27 16 43.5t44 16.5q25 0 42.5 -18t17.5 -42q0 -27 -16 -43.5t-44 -16.5z" />
    <glyph glyph-name="aring" unicode="&#xe5;" horiz-adv-x="617" 
d="M45 257q0 58 18 108.5t50.5 87.5t78 58t99.5 21q45 0 81.5 -15.5t63.5 -38.5v42h82v-394q0 -38 18.5 -49.5t40.5 -11.5l-19 -70q-96 0 -116 78q-12 -16 -27.5 -31.5t-35.5 -27.5t-45 -19t-55 -7q-49 0 -91.5 19t-74 54t-50 84.5t-18.5 111.5zM299 68q38 0 72 18t57 47
v279q-27 19 -59.5 30.5t-68.5 11.5t-66 -14t-51.5 -39.5t-33.5 -61.5t-12 -79q0 -42 12 -77.5t34 -61t51.5 -39.5t64.5 -14zM259 702q0 -24 13 -41t35 -17q21 0 34.5 15.5t13.5 42.5q0 23 -12.5 40.5t-35.5 17.5q-22 0 -35 -14.5t-13 -43.5zM182 702q0 26 10 48t27 38
t39.5 25t48.5 9q25 0 48 -9t40 -25t27 -38t10 -48t-10 -48t-27 -38t-40 -25t-48 -9q-26 0 -48.5 9t-39.5 25t-27 38t-10 48z" />
    <glyph glyph-name="ae" unicode="&#xe6;" horiz-adv-x="904" 
d="M101 501q35 14 70.5 22.5t80.5 8.5q72 0 122.5 -28t77.5 -87q31 55 78 85t110 30q56 0 98 -19t70 -52t42 -77t14 -93q0 -35 -3 -68h-364q9 -73 51 -114t111 -41q45 0 81 9.5t69 24.5l21 -77q-36 -17 -81 -27t-101 -10q-75 0 -125 32t-80 89q-33 -53 -83.5 -87t-129.5 -34
q-43 0 -78 12.5t-60 34t-38.5 50.5t-13.5 63q0 40 16.5 72t45.5 54.5t70 34.5t90 12q43 0 76 -5t66 -13q-10 72 -51.5 111.5t-109.5 39.5q-36 0 -65 -8t-58 -21zM241 68q30 0 57.5 10.5t50 30.5t37.5 50.5t19 70.5q-35 10 -68 14t-72 4q-61 0 -97 -26t-36 -67
q0 -39 31.5 -63t77.5 -24zM638 454q-59 0 -96.5 -40t-45.5 -118h285q0 76 -38 117t-105 41z" />
    <glyph glyph-name="ccedilla" unicode="&#xe7;" horiz-adv-x="472" 
d="M398 -148q0 -19 -8.5 -36t-25.5 -30.5t-43 -21.5t-60 -8q-27 0 -52 4.5t-48 15.5l24 63q33 -17 72 -17q26 0 43 9t17 28q0 18 -23.5 32t-89.5 14l32 88q-44 9 -79.5 32t-60.5 57.5t-38 79.5t-13 98q0 56 17.5 105.5t50.5 86.5t79.5 58.5t104.5 21.5q45 0 78 -8t64 -23
l-27 -76q-29 14 -54 20.5t-56 6.5q-35 0 -65.5 -13t-52.5 -37.5t-34.5 -59.5t-12.5 -80q0 -41 11.5 -76t32.5 -61.5t50 -41.5t65 -15q38 0 65 8t58 25l28 -76q-30 -17 -65 -26t-80 -11l-16 -47q51 0 81.5 -22t30.5 -67z" />
    <glyph glyph-name="egrave" unicode="&#xe8;" horiz-adv-x="544" 
d="M137 223q9 -73 51 -114t111 -41q45 0 81 9.5t69 24.5l21 -77q-36 -17 -81 -27t-101 -10t-101 18.5t-76.5 53t-48.5 85t-17 115.5q0 58 17 108t48 86.5t74 57t96 20.5q56 0 98 -19t70 -52t42 -77t14 -93q0 -35 -3 -68h-364zM278 454q-59 0 -96.5 -40t-45.5 -118h285
q0 76 -38 117t-105 41zM372 575l-200 102l42 84l189 -125z" />
    <glyph glyph-name="eacute" unicode="&#xe9;" horiz-adv-x="544" 
d="M137 223q9 -73 51 -114t111 -41q45 0 81 9.5t69 24.5l21 -77q-36 -17 -81 -27t-101 -10t-101 18.5t-76.5 53t-48.5 85t-17 115.5q0 58 17 108t48 86.5t74 57t96 20.5q56 0 98 -19t70 -52t42 -77t14 -93q0 -35 -3 -68h-364zM278 454q-59 0 -96.5 -40t-45.5 -118h285
q0 76 -38 117t-105 41zM173 636l189 125l42 -84l-200 -102z" />
    <glyph glyph-name="ecircumflex" unicode="&#xea;" horiz-adv-x="544" 
d="M137 223q9 -73 51 -114t111 -41q45 0 81 9.5t69 24.5l21 -77q-36 -17 -81 -27t-101 -10t-101 18.5t-76.5 53t-48.5 85t-17 115.5q0 58 17 108t48 86.5t74 57t96 20.5q56 0 98 -19t70 -52t42 -77t14 -93q0 -35 -3 -68h-364zM278 454q-59 0 -96.5 -40t-45.5 -118h285
q0 76 -38 117t-105 41zM153 572l-47 74l146 94h64l146 -94l-47 -74l-131 105z" />
    <glyph glyph-name="edieresis" unicode="&#xeb;" horiz-adv-x="544" 
d="M137 223q9 -73 51 -114t111 -41q45 0 81 9.5t69 24.5l21 -77q-36 -17 -81 -27t-101 -10t-101 18.5t-76.5 53t-48.5 85t-17 115.5q0 58 17 108t48 86.5t74 57t96 20.5q56 0 98 -19t70 -52t42 -77t14 -93q0 -35 -3 -68h-364zM278 454q-59 0 -96.5 -40t-45.5 -118h285
q0 76 -38 117t-105 41zM195 607q-25 0 -42.5 18t-17.5 42q0 27 16 43.5t44 16.5q25 0 42.5 -18t17.5 -42q0 -27 -16 -43.5t-44 -16.5zM377 607q-25 0 -42.5 18t-17.5 42q0 27 16 43.5t44 16.5q25 0 42.5 -18t17.5 -42q0 -27 -16 -43.5t-44 -16.5z" />
    <glyph glyph-name="igrave" unicode="&#xec;" horiz-adv-x="250" 
d="M170 0h-90v520h90v-520zM214 575l-200 102l42 84l189 -125z" />
    <glyph glyph-name="iacute" unicode="&#xed;" horiz-adv-x="250" 
d="M170 0h-90v520h90v-520zM12 636l189 125l42 -84l-200 -102z" />
    <glyph glyph-name="icircumflex" unicode="&#xee;" horiz-adv-x="250" 
d="M170 0h-90v520h90v-520zM-5 572l-47 74l146 94h64l146 -94l-47 -74l-131 105z" />
    <glyph glyph-name="idieresis" unicode="&#xef;" horiz-adv-x="250" 
d="M170 0h-90v520h90v-520zM35 607q-25 0 -42.5 18t-17.5 42q0 27 16 43.5t44 16.5q25 0 42.5 -18t17.5 -42q0 -27 -16 -43.5t-44 -16.5zM217 607q-25 0 -42.5 18t-17.5 42q0 27 16 43.5t44 16.5q25 0 42.5 -18t17.5 -42q0 -27 -16 -43.5t-44 -16.5z" />
    <glyph glyph-name="eth" unicode="&#xf0;" horiz-adv-x="532" 
d="M182 545l59 67q-52 22 -110 22q-8 0 -18 -0.5t-18 -1.5v81q8 1 18.5 1.5t18.5 0.5q88 0 164 -37l61 80l57 -47l-60 -69q64 -48 101 -124.5t37 -175.5q0 -79 -16.5 -144.5t-48.5 -112t-79 -72t-107 -25.5q-42 0 -81 14.5t-69 42.5t-48 69t-18 93t18 94t47.5 71.5t67.5 45
t79 15.5q54 0 94 -20t69 -47q-3 68 -29.5 122t-71.5 89l-59 -79zM248 68q65 0 104 54.5t48 166.5q-29 29 -66 48.5t-81 19.5q-27 0 -52 -9.5t-44 -27.5t-30.5 -45t-11.5 -61q0 -35 10.5 -62t28.5 -46t42 -28.5t52 -9.5z" />
    <glyph glyph-name="ntilde" unicode="&#xf1;" horiz-adv-x="592" 
d="M167 433q28 42 71.5 70.5t103.5 28.5q88 0 131.5 -53t43.5 -140v-339h-90v329q0 57 -26 90.5t-74 33.5q-23 0 -45 -8.5t-42.5 -23.5t-38 -35t-31.5 -42v-344h-90v520h87v-87zM469 656q-18 -17 -41.5 -31.5t-54.5 -14.5q-20 0 -34.5 5.5t-27.5 11.5t-26.5 11.5t-30.5 5.5
q-22 0 -40 -11t-33 -25l-35 62q18 20 46 36t58 16q19 0 33.5 -5.5t27 -11.5t25.5 -11.5t29 -5.5q22 0 39 9.5t30 21.5z" />
    <glyph glyph-name="ograve" unicode="&#xf2;" horiz-adv-x="598" 
d="M466 260q0 39 -12.5 74t-35 61t-53 41.5t-66.5 15.5q-79 0 -123 -52t-44 -138q0 -39 12.5 -74.5t35 -62t53 -42t66.5 -15.5q39 0 70 14t52.5 39.5t33 60.5t11.5 78zM40 260q0 63 20 113.5t54.5 85.5t82 54t102.5 19q54 0 101.5 -19t82.5 -54t55 -85t20 -112t-19.5 -112.5
t-54.5 -86.5t-82.5 -55.5t-102.5 -19.5q-56 0 -103.5 20t-82 56t-54 86t-19.5 110zM386 575l-200 102l42 84l189 -125z" />
    <glyph glyph-name="oacute" unicode="&#xf3;" horiz-adv-x="598" 
d="M466 260q0 39 -12.5 74t-35 61t-53 41.5t-66.5 15.5q-79 0 -123 -52t-44 -138q0 -39 12.5 -74.5t35 -62t53 -42t66.5 -15.5q39 0 70 14t52.5 39.5t33 60.5t11.5 78zM40 260q0 63 20 113.5t54.5 85.5t82 54t102.5 19q54 0 101.5 -19t82.5 -54t55 -85t20 -112t-19.5 -112.5
t-54.5 -86.5t-82.5 -55.5t-102.5 -19.5q-56 0 -103.5 20t-82 56t-54 86t-19.5 110zM196 636l189 125l42 -84l-200 -102z" />
    <glyph glyph-name="ocircumflex" unicode="&#xf4;" horiz-adv-x="598" 
d="M466 260q0 39 -12.5 74t-35 61t-53 41.5t-66.5 15.5q-79 0 -123 -52t-44 -138q0 -39 12.5 -74.5t35 -62t53 -42t66.5 -15.5q39 0 70 14t52.5 39.5t33 60.5t11.5 78zM40 260q0 63 20 113.5t54.5 85.5t82 54t102.5 19q54 0 101.5 -19t82.5 -54t55 -85t20 -112t-19.5 -112.5
t-54.5 -86.5t-82.5 -55.5t-102.5 -19.5q-56 0 -103.5 20t-82 56t-54 86t-19.5 110zM162 572l-47 74l146 94h64l146 -94l-47 -74l-131 105z" />
    <glyph glyph-name="otilde" unicode="&#xf5;" horiz-adv-x="598" 
d="M466 260q0 39 -12.5 74t-35 61t-53 41.5t-66.5 15.5q-79 0 -123 -52t-44 -138q0 -39 12.5 -74.5t35 -62t53 -42t66.5 -15.5q39 0 70 14t52.5 39.5t33 60.5t11.5 78zM40 260q0 63 20 113.5t54.5 85.5t82 54t102.5 19q54 0 101.5 -19t82.5 -54t55 -85t20 -112t-19.5 -112.5
t-54.5 -86.5t-82.5 -55.5t-102.5 -19.5q-56 0 -103.5 20t-82 56t-54 86t-19.5 110zM457 656q-18 -17 -41.5 -31.5t-54.5 -14.5q-20 0 -34.5 5.5t-27.5 11.5t-26.5 11.5t-30.5 5.5q-22 0 -40 -11t-33 -25l-35 62q18 20 46 36t58 16q19 0 33.5 -5.5t27 -11.5t25.5 -11.5
t29 -5.5q22 0 39 9.5t30 21.5z" />
    <glyph glyph-name="odieresis" unicode="&#xf6;" horiz-adv-x="598" 
d="M466 260q0 39 -12.5 74t-35 61t-53 41.5t-66.5 15.5q-79 0 -123 -52t-44 -138q0 -39 12.5 -74.5t35 -62t53 -42t66.5 -15.5q39 0 70 14t52.5 39.5t33 60.5t11.5 78zM40 260q0 63 20 113.5t54.5 85.5t82 54t102.5 19q54 0 101.5 -19t82.5 -54t55 -85t20 -112t-19.5 -112.5
t-54.5 -86.5t-82.5 -55.5t-102.5 -19.5q-56 0 -103.5 20t-82 56t-54 86t-19.5 110zM209 607q-25 0 -42.5 18t-17.5 42q0 27 16 43.5t44 16.5q25 0 42.5 -18t17.5 -42q0 -27 -16 -43.5t-44 -16.5zM391 607q-25 0 -42.5 18t-17.5 42q0 27 16 43.5t44 16.5q25 0 42.5 -18
t17.5 -42q0 -27 -16 -43.5t-44 -16.5z" />
    <glyph glyph-name="divide" unicode="&#xf7;" 
d="M130 302v82h340v-82h-340zM234 548q0 31 17.5 49t49.5 18q26 0 46.5 -20t20.5 -47q0 -30 -19 -48.5t-48 -18.5q-27 0 -47 20t-20 47zM234 138q0 31 17.5 49t49.5 18q26 0 46.5 -20t20.5 -47q0 -30 -19 -48.5t-48 -18.5q-27 0 -47 20t-20 47z" />
    <glyph glyph-name="oslash" unicode="&#xf8;" horiz-adv-x="598" 
d="M40 260q0 63 20 113.5t54.5 85.5t82 54t102.5 19q42 0 80 -12l55 117l71 -37l-61 -110q52 -34 83 -92t31 -136q0 -62 -19.5 -112.5t-54.5 -86.5t-82.5 -55.5t-102.5 -19.5q-49 0 -89 14l-56 -121l-71 37l65 116q-51 35 -79.5 93t-28.5 133zM466 260q0 45 -17 84.5
t-46 66.5l-157 -334q11 -5 25 -7t28 -2q39 0 70 14t52.5 39.5t33 60.5t11.5 78zM132 262q0 -44 15 -82t42 -65l155 330q-9 3 -21 5t-24 2q-79 0 -123 -52t-44 -138z" />
    <glyph glyph-name="ugrave" unicode="&#xf9;" horiz-adv-x="604" 
d="M545 -5q-48 0 -76 19t-39 55q-35 -36 -80.5 -58.5t-99.5 -22.5q-34 0 -65.5 10.5t-56 33.5t-39 60t-14.5 90v338h90v-326q0 -61 25.5 -93.5t76.5 -32.5q42 0 80 16.5t68 44.5v391h90v-385q0 -22 5 -35.5t13 -21t19 -10.5t22 -3zM368 575l-200 102l42 84l189 -125z" />
    <glyph glyph-name="uacute" unicode="&#xfa;" horiz-adv-x="604" 
d="M545 -5q-48 0 -76 19t-39 55q-35 -36 -80.5 -58.5t-99.5 -22.5q-34 0 -65.5 10.5t-56 33.5t-39 60t-14.5 90v338h90v-326q0 -61 25.5 -93.5t76.5 -32.5q42 0 80 16.5t68 44.5v391h90v-385q0 -22 5 -35.5t13 -21t19 -10.5t22 -3zM191 636l189 125l42 -84l-200 -102z" />
    <glyph glyph-name="ucircumflex" unicode="&#xfb;" horiz-adv-x="604" 
d="M545 -5q-48 0 -76 19t-39 55q-35 -36 -80.5 -58.5t-99.5 -22.5q-34 0 -65.5 10.5t-56 33.5t-39 60t-14.5 90v338h90v-326q0 -61 25.5 -93.5t76.5 -32.5q42 0 80 16.5t68 44.5v391h90v-385q0 -22 5 -35.5t13 -21t19 -10.5t22 -3zM163 572l-47 74l146 94h64l146 -94
l-47 -74l-131 105z" />
    <glyph glyph-name="udieresis" unicode="&#xfc;" horiz-adv-x="604" 
d="M545 -5q-48 0 -76 19t-39 55q-35 -36 -80.5 -58.5t-99.5 -22.5q-34 0 -65.5 10.5t-56 33.5t-39 60t-14.5 90v338h90v-326q0 -61 25.5 -93.5t76.5 -32.5q42 0 80 16.5t68 44.5v391h90v-385q0 -22 5 -35.5t13 -21t19 -10.5t22 -3zM203 607q-25 0 -42.5 18t-17.5 42
q0 27 16 43.5t44 16.5q25 0 42.5 -18t17.5 -42q0 -27 -16 -43.5t-44 -16.5zM385 607q-25 0 -42.5 18t-17.5 42q0 27 16 43.5t44 16.5q25 0 42.5 -18t17.5 -42q0 -27 -16 -43.5t-44 -16.5z" />
    <glyph glyph-name="yacute" unicode="&#xfd;" horiz-adv-x="523" 
d="M93 -232q-30 0 -52.5 6t-35.5 14l20 75q12 -7 29.5 -12t40.5 -5q21 0 39.5 6t35.5 21t32.5 41t30.5 65l23 60h-48l-203 457l80 36l194 -433l151 429l83 -32l-191 -522q-22 -60 -46.5 -99.5t-52.5 -63.5t-60.5 -33.5t-69.5 -9.5zM170 636l189 125l42 -84l-200 -102z" />
    <glyph glyph-name="thorn" unicode="&#xfe;" horiz-adv-x="594" 
d="M80 -220v920h90v-234q10 11 25 23t33.5 21.5t41.5 15.5t50 6q45 0 86.5 -18t73 -52t50.5 -84t19 -113q0 -62 -18.5 -113t-50 -87.5t-72.5 -56.5t-86 -20q-47 0 -86.5 18.5t-65.5 42.5v-269h-90zM457 262q0 45 -12.5 80.5t-34 60.5t-50 38t-60.5 13q-43 0 -77.5 -21.5
t-52.5 -46.5v-256q26 -27 59.5 -44.5t74.5 -17.5q34 0 62 14t48.5 39.5t31.5 61t11 79.5z" />
    <glyph glyph-name="ydieresis" unicode="&#xff;" horiz-adv-x="523" 
d="M93 -232q-30 0 -52.5 6t-35.5 14l20 75q12 -7 29.5 -12t40.5 -5q21 0 39.5 6t35.5 21t32.5 41t30.5 65l23 60h-48l-203 457l80 36l194 -433l151 429l83 -32l-191 -522q-22 -60 -46.5 -99.5t-52.5 -63.5t-60.5 -33.5t-69.5 -9.5zM178 607q-25 0 -42.5 18t-17.5 42
q0 27 16 43.5t44 16.5q25 0 42.5 -18t17.5 -42q0 -27 -16 -43.5t-44 -16.5zM360 607q-25 0 -42.5 18t-17.5 42q0 27 16 43.5t44 16.5q25 0 42.5 -18t17.5 -42q0 -27 -16 -43.5t-44 -16.5z" />
    <glyph glyph-name="hbar" unicode="&#x127;" horiz-adv-x="601" 
d="M179 651h122v-66h-122v-148q28 41 70.5 68t101.5 27q88 0 131.5 -53t43.5 -140v-339h-90v329q0 57 -25.5 90.5t-73.5 33.5q-23 0 -45.5 -8.5t-42.5 -23.5t-38 -35t-32 -42v-344h-90v585h-79v66h79v89h90v-89z" />
    <glyph glyph-name="Itilde" unicode="&#x128;" horiz-adv-x="275" 
d="M90 0v700h95v-700h-95zM296 806q-18 -17 -41.5 -31.5t-54.5 -14.5q-20 0 -34.5 5.5t-27.5 11.5t-26.5 11.5t-30.5 5.5q-22 0 -40 -11t-33 -25l-35 62q18 20 46 36t58 16q19 0 33.5 -5.5t27 -11.5t25.5 -11.5t29 -5.5q22 0 39 9.5t30 21.5z" />
    <glyph glyph-name="itilde" unicode="&#x129;" horiz-adv-x="250" 
d="M170 0h-90v520h90v-520zM288 656q-18 -17 -41.5 -31.5t-54.5 -14.5q-20 0 -34.5 5.5t-27.5 11.5t-26.5 11.5t-30.5 5.5q-22 0 -40 -11t-33 -25l-35 62q18 20 46 36t58 16q19 0 33.5 -5.5t27 -11.5t25.5 -11.5t29 -5.5q22 0 39 9.5t30 21.5z" />
    <glyph glyph-name="dotlessi" unicode="&#x131;" horiz-adv-x="250" 
d="M170 0h-90v520h90v-520z" />
    <glyph glyph-name="IJ" unicode="&#x132;" horiz-adv-x="705" 
d="M90 0v700h95v-700h-95zM530 700h95v-469q0 -64 -14 -110t-40 -75.5t-62 -43.5t-80 -14q-46 0 -86.5 16t-67.5 42l46 73q20 -21 48 -35t57 -14q48 0 76 34t28 117v479z" />
    <glyph glyph-name="ij" unicode="&#x133;" horiz-adv-x="509" 
d="M169 0h-90v520h90v-520zM124 609q-26 0 -44.5 18.5t-18.5 44.5q0 29 17 46t46 17q26 0 44.5 -18.5t18.5 -44.5q0 -29 -17 -46t-46 -17zM341 520h90v-577q0 -46 -13 -79t-35 -54.5t-52 -31.5t-64 -10q-61 0 -102 23l22 75q13 -8 31.5 -14t37.5 -6q85 0 85 106v568z
M386 609q-26 0 -44.5 18.5t-18.5 44.5q0 29 17 46t46 17q26 0 44.5 -18.5t18.5 -44.5q0 -29 -17 -46t-46 -17z" />
    <glyph glyph-name="Jcircumflex" unicode="&#x134;" horiz-adv-x="430" 
d="M255 700h95v-469q0 -64 -14 -110t-40 -75.5t-62 -43.5t-80 -14q-46 0 -86.5 16t-67.5 42l46 73q20 -21 48 -35t57 -14q48 0 76 34t28 117v479zM166 742l-43 78l147 80h64l146 -80l-43 -78l-135 95z" />
    <glyph glyph-name="jcircumflex" unicode="&#x135;" horiz-adv-x="261" 
d="M6 572l-47 74l146 94h64l146 -94l-47 -74l-131 105zM91 -48v568h90v-577q0 -46 -13 -79t-35 -54.5t-52 -31.5t-64 -10q-61 0 -102 23l22 75q13 -8 31.5 -14t37.5 -6q85 0 85 106z" />
    <glyph glyph-name="kcommaaccent" unicode="&#x137;" horiz-adv-x="511" 
d="M80 740h90v-423l235 213l52 -57l-201 -178l245 -245l-62 -60l-269 277v-267h-90v740zM333 -33q-9 -66 -40.5 -113.5t-79.5 -77.5l-42 24q34 43 55 87t32 101z" />
    <glyph glyph-name="kgreenlandic" unicode="&#x138;" horiz-adv-x="497" 
d="M80 520h90v-225l228 232l56 -56l-202 -197l235 -220l-61 -61l-256 253v-246h-90v520z" />
    <glyph glyph-name="Ldotaccent" unicode="&#x13f;" horiz-adv-x="511" 
d="M506 0h-416v700h95v-615h321v-85zM333 297q-26 0 -44.5 18.5t-18.5 44.5q0 29 17 46t46 17q26 0 44.5 -18.5t18.5 -44.5q0 -29 -17 -46t-46 -17z" />
    <glyph glyph-name="ldot" unicode="&#x140;" horiz-adv-x="388" 
d="M165 172q0 -54 22.5 -80t62.5 -26q19 0 37 4.5t32 10.5l22 -73q-18 -8 -44.5 -14t-58.5 -6q-35 0 -64.5 10t-51.5 31t-34.5 54t-12.5 80v577h90v-568zM229 355q0 31 17.5 49t49.5 18q26 0 46.5 -20t20.5 -47q0 -30 -19 -48.5t-48 -18.5q-27 0 -47 20t-20 47z" />
    <glyph glyph-name="Lslash" unicode="&#x141;" horiz-adv-x="524" 
d="M519 0h-416v267l-70 -28l-28 68l98 39v354h95v-316l210 85l28 -68l-238 -96v-220h321v-85z" />
    <glyph glyph-name="lslash" unicode="&#x142;" horiz-adv-x="371" 
d="M180 439l125 58l31 -67l-156 -72v-186q0 -54 22.5 -80t62.5 -26q19 0 37 4.5t32 10.5l22 -73q-18 -8 -44.5 -14t-58.5 -6q-35 0 -64.5 10t-51.5 31t-34.5 54t-12.5 80v153l-59 -27l-31 67l90 42v342h90v-301z" />
    <glyph glyph-name="Nacute" unicode="&#x143;" horiz-adv-x="705" 
d="M180 578v-578h-90v700h126l309 -582v582h90v-700h-124zM253 795l189 125l42 -84l-200 -102z" />
    <glyph glyph-name="nacute" unicode="&#x144;" horiz-adv-x="592" 
d="M167 433q28 42 71.5 70.5t103.5 28.5q88 0 131.5 -53t43.5 -140v-339h-90v329q0 57 -26 90.5t-74 33.5q-23 0 -45 -8.5t-42.5 -23.5t-38 -35t-31.5 -42v-344h-90v520h87v-87zM200 636l189 125l42 -84l-200 -102z" />
    <glyph glyph-name="OE" unicode="&#x152;" horiz-adv-x="918" 
d="M370 712q28 0 61 -3.5t63 -8.5h379v-82h-318v-213h273v-80h-273v-243h318v-82h-380q-12 -2 -28 -4.5t-32.5 -4t-33 -2.5t-29.5 -1q-78 0 -139 28.5t-103.5 78t-65 115.5t-22.5 141q0 77 22.5 143t65 114.5t103.5 76t139 27.5zM370 70q26 0 48.5 2.5t44.5 8.5v537
q-24 7 -45.5 9.5t-47.5 2.5q-55 0 -98.5 -21.5t-73.5 -59t-45.5 -88.5t-15.5 -110q0 -54 15.5 -105t45.5 -90t73.5 -62.5t98.5 -23.5z" />
    <glyph glyph-name="oe" unicode="&#x153;" horiz-adv-x="963" 
d="M40 260q0 63 20 113.5t55 85.5t82 54t102 19q71 0 123 -30.5t87 -84.5q64 115 190 115q56 0 98 -19t70 -52t42 -77t14 -93q0 -35 -3 -68h-364q9 -73 51 -114t111 -41q45 0 81 9.5t69 24.5l21 -77q-36 -17 -81 -27t-101 -10q-75 0 -125 32.5t-79 88.5q-32 -54 -83 -87.5
t-123 -33.5q-55 0 -102 20t-81.5 56t-54 86t-19.5 110zM697 454q-59 0 -96.5 -40t-45.5 -118h285q0 76 -38 117t-105 41zM466 260q0 39 -12.5 74t-35 61t-53 41.5t-66.5 15.5q-79 0 -123 -52t-44 -138q0 -39 12.5 -74.5t35 -62t53 -42t66.5 -15.5q39 0 70 14t52.5 39.5
t33 60.5t11.5 78z" />
    <glyph glyph-name="Racute" unicode="&#x154;" horiz-adv-x="617" 
d="M498 -12l-87 190q-33 71 -83 101t-128 30h-15v-309h-95v698q54 5 101.5 7.5t103.5 2.5q64 0 112 -13.5t80 -38.5t48.5 -59t16.5 -75q0 -73 -43.5 -117.5t-125.5 -66.5q20 -9 37 -20.5t32 -28t29.5 -39.5t29.5 -56l76 -164zM295 628q-34 0 -61 -1t-49 -3v-235h110
q72 0 117 32t45 92q0 50 -42 82.5t-120 32.5zM196 795l189 125l42 -84l-200 -102z" />
    <glyph glyph-name="Rcommaaccent" unicode="&#x156;" horiz-adv-x="617" 
d="M498 -12l-87 190q-33 71 -83 101t-128 30h-15v-309h-95v698q54 5 101.5 7.5t103.5 2.5q64 0 112 -13.5t80 -38.5t48.5 -59t16.5 -75q0 -73 -43.5 -117.5t-125.5 -66.5q20 -9 37 -20.5t32 -28t29.5 -39.5t29.5 -56l76 -164zM295 628q-34 0 -61 -1t-49 -3v-235h110
q72 0 117 32t45 92q0 50 -42 82.5t-120 32.5zM378 -33q-9 -66 -40.5 -113.5t-79.5 -77.5l-42 24q34 43 55 87t32 101z" />
    <glyph glyph-name="rcommaaccent" unicode="&#x157;" horiz-adv-x="399" 
d="M362 433q-19 8 -45 8q-28 0 -54.5 -12t-47 -36t-33 -61.5t-12.5 -88.5v-243h-90v520h87v-113q9 24 24 47t35.5 40t47.5 27.5t60 10.5q15 0 29.5 -1.5t25.5 -4.5zM167 -71q-9 -66 -40.5 -113.5t-79.5 -77.5l-42 24q34 43 55 87t32 101z" />
    <glyph glyph-name="Rcaron" unicode="&#x158;" horiz-adv-x="617" 
d="M498 -12l-87 190q-33 71 -83 101t-128 30h-15v-309h-95v698q54 5 101.5 7.5t103.5 2.5q64 0 112 -13.5t80 -38.5t48.5 -59t16.5 -75q0 -73 -43.5 -117.5t-125.5 -66.5q20 -9 37 -20.5t32 -28t29.5 -39.5t29.5 -56l76 -164zM295 628q-34 0 -61 -1t-49 -3v-235h110
q72 0 117 32t45 92q0 50 -42 82.5t-120 32.5zM434 907l43 -78l-146 -80h-64l-147 80l43 78l136 -95z" />
    <glyph glyph-name="rcaron" unicode="&#x159;" horiz-adv-x="399" 
d="M362 433q-19 8 -45 8q-28 0 -54.5 -12t-47 -36t-33 -61.5t-12.5 -88.5v-243h-90v520h87v-113q9 24 24 47t35.5 40t47.5 27.5t60 10.5q15 0 29.5 -1.5t25.5 -4.5zM221 650l131 105l47 -74l-146 -94h-64l-146 94l47 74z" />
    <glyph glyph-name="dotlessj" unicode="&#x237;" horiz-adv-x="261" 
d="M91 -48v568h90v-577q0 -46 -13 -79t-35 -54.5t-52 -31.5t-64 -10q-61 0 -102 23l22 75q13 -8 31.5 -14t37.5 -6q85 0 85 106z" />
    <glyph glyph-name="circumflex" unicode="&#x2c6;" horiz-adv-x="456" 
d="M97 572l-47 74l146 94h64l146 -94l-47 -74l-131 105z" />
    <glyph glyph-name="caron" unicode="&#x2c7;" horiz-adv-x="457" 
d="M228 650l131 105l47 -74l-146 -94h-64l-146 94l47 74z" />
    <glyph glyph-name="ring" unicode="&#x2da;" horiz-adv-x="350" 
d="M127 702q0 -24 13 -41t35 -17q21 0 34.5 15.5t13.5 42.5q0 23 -12.5 40.5t-35.5 17.5q-22 0 -35 -14.5t-13 -43.5zM50 702q0 26 10 48t27 38t39.5 25t48.5 9q25 0 48 -9t40 -25t27 -38t10 -48t-10 -48t-27 -38t-40 -25t-48 -9q-26 0 -48.5 9t-39.5 25t-27 38t-10 48z" />
    <glyph glyph-name="tilde" unicode="&#x2dc;" horiz-adv-x="423" 
d="M373 656q-18 -17 -41.5 -31.5t-54.5 -14.5q-20 0 -34.5 5.5t-27.5 11.5t-26.5 11.5t-30.5 5.5q-22 0 -40 -11t-33 -25l-35 62q18 20 46 36t58 16q19 0 33.5 -5.5t27 -11.5t25.5 -11.5t29 -5.5q22 0 39 9.5t30 21.5z" />
    <glyph glyph-name="dotaccentcmb" unicode="&#x307;" horiz-adv-x="206" 
d="M103 609q-26 0 -44.5 18.5t-18.5 44.5q0 29 17 46t46 17q26 0 44.5 -18.5t18.5 -44.5q0 -29 -17 -46t-46 -17z" />
    <glyph glyph-name="endash" unicode="&#x2013;" 
d="M70 302v82h460v-82h-460z" />
    <glyph glyph-name="emdash" unicode="&#x2014;" horiz-adv-x="750" 
d="M75 302v82h600v-82h-600z" />
    <glyph glyph-name="quoteleft" unicode="&#x2018;" horiz-adv-x="227" 
d="M187 596q0 -29 -19 -46.5t-48 -17.5q-35 0 -57.5 23t-22.5 66q0 46 26.5 90.5t74.5 70.5l23 -35q-26 -18 -41.5 -40t-20.5 -51q9 4 21 4q28 0 46 -18t18 -46z" />
    <glyph glyph-name="quoteright" unicode="&#x2019;" horiz-adv-x="227" 
d="M40 688q0 29 19 46.5t48 17.5q35 0 57.5 -23t22.5 -66q0 -46 -26.5 -90.5t-74.5 -70.5l-23 35q26 18 41.5 40t20.5 51q-9 -4 -21 -4q-28 0 -46 18t-18 46z" />
    <glyph glyph-name="quotesinglbase" unicode="&#x201a;" horiz-adv-x="227" 
d="M40 59q0 29 19 46.5t48 17.5q35 0 57.5 -23t22.5 -66q0 -46 -26.5 -90.5t-74.5 -70.5l-23 35q26 18 41.5 40t20.5 51q-9 -4 -21 -4q-28 0 -46 18t-18 46z" />
    <glyph glyph-name="quotedblleft" unicode="&#x201c;" horiz-adv-x="411" 
d="M187 596q0 -29 -19 -46.5t-48 -17.5q-35 0 -57.5 23t-22.5 66q0 46 26.5 90.5t74.5 70.5l23 -35q-26 -18 -41.5 -40t-20.5 -51q9 4 21 4q28 0 46 -18t18 -46zM371 596q0 -29 -19 -46.5t-48 -17.5q-35 0 -57.5 23t-22.5 66q0 46 26.5 90.5t74.5 70.5l23 -35
q-26 -18 -41.5 -40t-20.5 -51q9 4 21 4q28 0 46 -18t18 -46z" />
    <glyph glyph-name="quotedblright" unicode="&#x201d;" horiz-adv-x="411" 
d="M224 688q0 29 19 46.5t48 17.5q35 0 57.5 -23t22.5 -66q0 -46 -26.5 -90.5t-74.5 -70.5l-23 35q26 18 41.5 40t20.5 51q-9 -4 -21 -4q-28 0 -46 18t-18 46zM40 688q0 29 19 46.5t48 17.5q35 0 57.5 -23t22.5 -66q0 -46 -26.5 -90.5t-74.5 -70.5l-23 35q26 18 41.5 40
t20.5 51q-9 -4 -21 -4q-28 0 -46 18t-18 46z" />
    <glyph glyph-name="quotedblbase" unicode="&#x201e;" horiz-adv-x="411" 
d="M224 59q0 29 19 46.5t48 17.5q35 0 57.5 -23t22.5 -66q0 -46 -26.5 -90.5t-74.5 -70.5l-23 35q26 18 41.5 40t20.5 51q-9 -4 -21 -4q-28 0 -46 18t-18 46zM40 59q0 29 19 46.5t48 17.5q35 0 57.5 -23t22.5 -66q0 -46 -26.5 -90.5t-74.5 -70.5l-23 35q26 18 41.5 40
t20.5 51q-9 -4 -21 -4q-28 0 -46 18t-18 46z" />
    <glyph glyph-name="bullet" unicode="&#x2022;" horiz-adv-x="450" 
d="M225 221q-28 0 -52.5 10.5t-42.5 28.5t-28.5 42.5t-10.5 52.5q0 62 35.5 98t98.5 36q28 0 52.5 -10.5t42.5 -28.5t28.5 -42.5t10.5 -52.5q0 -62 -35.5 -98t-98.5 -36z" />
    <glyph glyph-name="guilsinglleft" unicode="&#x2039;" horiz-adv-x="366" 
d="M218 129l-158 194v42l158 194l58 -49l-142 -166l142 -166z" />
    <glyph glyph-name="guilsinglright" unicode="&#x203a;" horiz-adv-x="366" 
d="M90 178l142 166l-142 166l58 49l158 -194v-42l-158 -194z" />
    <glyph glyph-name="Euro" unicode="&#x20ac;" 
d="M212 235q21 -78 69.5 -123.5t117.5 -45.5q49 0 82.5 13.5t63.5 30.5l31 -73q-26 -17 -74.5 -33t-111.5 -16q-109 0 -179.5 65.5t-93.5 181.5h-94v73h87v67h-87v73h93q11 60 35 108.5t61 83t85.5 53.5t108.5 19q51 0 91 -11t72 -28l-25 -76q-31 17 -64 27t-71 10
q-81 0 -133 -48.5t-70 -137.5h255v-73h-259v-67h239v-73h-229z" />
    <glyph glyph-name="commaaccent" unicode="&#xf6c3;" horiz-adv-x="242" 
d="M202 -71q-9 -66 -40.5 -113.5t-79.5 -77.5l-42 24q34 43 55 87t32 101z" />
    <glyph glyph-name="grave.cap" horiz-adv-x="311" 
d="M240 554l-200 102l42 84l189 -125z" />
    <glyph glyph-name="dieresis.cap" horiz-adv-x="402" 
d="M110 577q-25 0 -42.5 18t-17.5 42q0 27 16 43.5t44 16.5q25 0 42.5 -18t17.5 -42q0 -27 -16 -43.5t-44 -16.5zM292 577q-25 0 -42.5 18t-17.5 42q0 27 16 43.5t44 16.5q25 0 42.5 -18t17.5 -42q0 -27 -16 -43.5t-44 -16.5z" />
    <glyph glyph-name="acute.cap" horiz-adv-x="311" 
d="M40 615l189 125l42 -84l-200 -102z" />
    <glyph glyph-name="circumflex.cap" horiz-adv-x="457" 
d="M93 572l-43 78l147 80h64l146 -80l-43 -78l-135 95z" />
    <glyph glyph-name="caron.cap" horiz-adv-x="457" 
d="M364 727l43 -78l-146 -80h-64l-147 80l43 78l136 -95z" />
    <glyph glyph-name="ring.cap" horiz-adv-x="350" 
d="M127 632q0 -24 13 -41t35 -17q21 0 34.5 15.5t13.5 42.5q0 23 -12.5 40.5t-35.5 17.5q-22 0 -35 -14.5t-13 -43.5zM50 632q0 26 10 48t27 38t39.5 25t48.5 9q25 0 48 -9t40 -25t27 -38t10 -48t-10 -48t-27 -38t-40 -25t-48 -9q-26 0 -48.5 9t-39.5 25t-27 38t-10 48z" />
    <glyph glyph-name="tilde.cap" horiz-adv-x="423" 
d="M373 626q-18 -17 -41.5 -31.5t-54.5 -14.5q-20 0 -34.5 5.5t-27.5 11.5t-26.5 11.5t-30.5 5.5q-22 0 -40 -11t-33 -25l-35 62q18 20 46 36t58 16q19 0 33.5 -5.5t27 -11.5t25.5 -11.5t29 -5.5q22 0 39 9.5t30 21.5z" />
    <glyph glyph-name="dotaccentcmb.cap" horiz-adv-x="206" 
d="M103 574q-26 0 -44.5 18.5t-18.5 44.5q0 29 17 46t46 17q26 0 44.5 -18.5t18.5 -44.5q0 -29 -17 -46t-46 -17z" />
    <glyph glyph-name="foundryicon" horiz-adv-x="864" 
d="M144 0v576h288v-288h288v-288h-576zM576 432v144h144v-144h-144z" />
    <glyph glyph-name="zero" unicode="0" 
d="M301 712q58 0 103 -24.5t75 -71t45.5 -114t15.5 -153.5q0 -174 -62 -267.5t-179 -93.5t-178 95t-61 268q0 174 62 267.5t179 93.5zM300 630q-33 0 -60 -14.5t-46 -47t-29 -85.5t-10 -131q0 -139 38 -210.5t107 -71.5q33 0 60 14.5t46 47t29 85.5t10 131q0 139 -38 210.5
t-107 71.5z" />
    </font>
</defs>
</svg>
