<?xml version="1.0" standalone="no"?>
<!DOCTYPE svg PUBLIC "-//W3C//DTD SVG 1.1//EN" "http://www.w3.org/Graphics/SVG/1.1/DTD/svg11.dtd" >
<svg xmlns="http://www.w3.org/2000/svg" xmlns:xlink="http://www.w3.org/1999/xlink" version="1.1">
<metadata>
Created by FontForge 20150318 at Tue Jul 28 03:12:15 2015
 By uniteet7
DSN PatPong (c) Dusit Supasawat 1998. All Rights Reserved
</metadata>
<defs>
<font id="DSNPatPongExtend" horiz-adv-x="0" >
  <font-face 
    font-family="DSN PatPong Extend"
    font-weight="400"
    font-stretch="normal"
    units-per-em="2048"
    panose-1="0 0 4 0 0 0 0 0 0 0"
    ascent="1638"
    descent="-410"
    x-height="1169"
    cap-height="1530"
    bbox="-1085 -523 2580 1769"
    underline-thickness="100"
    underline-position="-150"
    unicode-range="U+0020-F71D"
  />
<missing-glyph horiz-adv-x="1024" 
d="M128 0v1700h768v-1700h-768zM256 128h512v1444h-512v-1444z" />
    <glyph glyph-name=".notdef" horiz-adv-x="1024" 
d="M128 0v1700h768v-1700h-768zM256 128h512v1444h-512v-1444z" />
    <glyph glyph-name=".null" 
 />
    <glyph glyph-name="nonmarkingreturn" horiz-adv-x="455" 
 />
    <glyph glyph-name="space" unicode=" " horiz-adv-x="455" 
 />
    <glyph glyph-name="exclam" unicode="!" horiz-adv-x="995" 
d="M666 1530l-68 -1243h-201l-67 1243h336zM606 0h-217v176h217v-176z" />
    <glyph glyph-name="quotedbl" unicode="&#x22;" horiz-adv-x="664" 
d="M586 1174h-205v356h205v-356zM283 1174h-205v356h205v-356z" />
    <glyph glyph-name="numbersign" unicode="#" horiz-adv-x="1489" 
d="M1454 846l-51 -137h-361l-57 -213h371l-51 -138h-361l-65 -231h-199l65 231h-147l-68 -231h-196l67 231h-360l51 138h346l64 213h-350l51 137h336l67 229h193l-64 -229h152l65 229h197l-64 -229h369zM846 709h-148l-59 -213h147z" />
    <glyph glyph-name="dollar" unicode="$" horiz-adv-x="1133" 
d="M1040 201q0 -173 -281 -209q4 0 -116 -8v-121h-154v123h-46q-48 0 -73 5q-278 30 -278 214v178h291v-158q0 -108 106 -108v520l-370 383q-27 27 -27 108v199q0 173 285 212q51 7 112 7v137h152l-2 -137q56 0 104 -5q297 -31 297 -210v-188h-290v168q0 106 -109 106v-543
l336 -344q45 -46 53 -63q10 -25 10 -68v-198zM489 1001v416q-32 0 -62 -18q-44 -27 -44 -88v-162q0 -58 48 -99zM750 225v162q0 25 -43 67l-66 64v-401q109 0 109 108z" />
    <glyph glyph-name="percent" unicode="%" horiz-adv-x="1583" 
d="M578 1038q0 -110 -220 -110q-103 0 -153 20q-68 27 -68 90v383q0 109 221 109q220 0 220 -109v-383zM1292 1530l-712 -1530h-291l715 1530h288zM1444 109q0 -109 -219 -109q-221 0 -221 109v385q0 108 221 108q219 0 219 -108v-385zM436 1040v377q0 51 -78 51
q-77 0 -77 -51v-377q0 -51 77 -51q78 0 78 51zM1303 113v376q0 52 -78 52t-78 -52v-376q0 -52 78 -52t78 52z" />
    <glyph glyph-name="ampersand" unicode="&#x26;" horiz-adv-x="1530" 
d="M1460 0h-289l-53 68q-90 -66 -300 -81q-68 -5 -156 -5q-224 0 -371 59q-180 72 -180 219v299q0 85 92 156q1 0 118 88l87 65q-147 80 -146 242l2 221q1 127 117 178q88 39 281 39q172 0 256 -30q141 -49 141 -187v-160q0 -69 -68 -138q-54 -55 -141 -106l-121 -71
l330 -387v170h276v-350q0 -25 -3 -39q-7 -32 -34 -62zM768 1167v164q0 92 -106 92q-54 0 -75 -14q-32 -21 -32 -78v-223q0 -86 26 -113l13 -8l103 51q71 50 71 129zM1004 193l-461 514q-47 -26 -71 -46q-71 -59 -71 -122v-271q0 -79 96 -125q77 -37 165 -37q124 0 211 24
q68 19 131 63z" />
    <glyph glyph-name="quotesingle" unicode="'" horiz-adv-x="369" 
d="M291 1174h-213v356h213v-356z" />
    <glyph glyph-name="parenleft" unicode="(" horiz-adv-x="496" 
d="M428 -170h-190q-107 276 -150 435q-52 194 -52 354q0 296 202 741h190q-75 -193 -104 -276q-54 -158 -80 -284q-22 -109 -22 -208q0 -187 92 -454q37 -108 114 -308z" />
    <glyph glyph-name="parenright" unicode=")" horiz-adv-x="506" 
d="M258 -170h-188q22 58 50 133q44 118 63 174q92 269 92 457q0 143 -49 323q-16 57 -41 132q-41 120 -115 311h188q202 -448 202 -740q0 -207 -92 -486q-44 -133 -110 -304z" />
    <glyph glyph-name="asterisk" unicode="*" horiz-adv-x="1421" 
d="M1212 846h-411l301 -256l-94 -80l-310 264v-393h-120v389l-306 -258l-94 80l299 254h-407v106h424l-273 230l94 80l263 -226v332h120v-334l267 228l94 -80l-271 -230h424v-106z" />
    <glyph glyph-name="plus" unicode="+" horiz-adv-x="1192" 
d="M1108 545h-385v-377h-252v377h-385v213h385v377h252v-377h385v-213z" />
    <glyph glyph-name="comma" unicode="," horiz-adv-x="539" 
d="M485 70q0 -119 -88 -160q-80 -37 -305 -37v104q59 0 82 10q37 16 37 66v94h274v-77z" />
    <glyph glyph-name="hyphen" unicode="-" horiz-adv-x="807" 
d="M731 522h-653v146h653v-146z" />
    <glyph glyph-name="hyphen" unicode="&#x2010;" horiz-adv-x="807" 
d="M731 522h-653v146h653v-146z" />
    <glyph glyph-name="period" unicode="." horiz-adv-x="477" 
d="M358 0h-239v213h239v-213z" />
    <glyph glyph-name="slash" unicode="/" horiz-adv-x="883" 
d="M805 1530l-443 -1530h-280l436 1530h287z" />
    <glyph glyph-name="zero" unicode="0" horiz-adv-x="1198" 
d="M1094 225q0 -243 -494 -243t-494 243v1055q0 129 149 194q128 56 345 56q193 0 330 -56q164 -67 164 -194v-1055zM811 221v1063q0 65 -78 98q-58 25 -133 25t-133 -25q-78 -33 -78 -98v-1063q0 -62 79 -93q58 -22 132 -22q211 0 211 115z" />
    <glyph glyph-name="one" unicode="1" horiz-adv-x="1198" 
d="M815 0h-285v1333q-31 -49 -129 -105q-94 -53 -157 -63v146q150 47 286 202h285v-1513z" />
    <glyph glyph-name="two" unicode="2" horiz-adv-x="1198" 
d="M1110 0h-1018v150l667 818q36 45 36 109v207q0 65 -77 98q-58 25 -132 25q-75 0 -133 -25q-78 -33 -78 -98v-170h-283v166q0 129 149 194q128 56 345 56q194 0 329 -56q164 -68 164 -194v-213q0 -79 -34 -142q-16 -30 -75 -102l-558 -686h698v-137z" />
    <glyph glyph-name="three" unicode="3" horiz-adv-x="1198" 
d="M1083 223q0 -241 -491 -241q-494 0 -494 243v148h283v-154q0 -62 79 -93q58 -22 132 -22q75 0 131 22q78 30 78 93v346q0 89 -100 126q-76 28 -184 26l-83 -2v127h43q129 0 203 22q121 36 121 133v279q0 131 -209 131q-78 0 -134 -24q-77 -32 -77 -99v-162h-283v158
q0 129 155 194q133 56 355 56q190 0 320 -56q155 -67 155 -194v-299q0 -92 -98 -147q-46 -26 -158 -56q123 -27 176 -60q80 -49 80 -147v-348z" />
    <glyph glyph-name="four" unicode="4" horiz-adv-x="1198" 
d="M1153 291h-188v-291h-283v291h-682v162l551 1060h414v-1095h188v-127zM682 418v880l-414 -880h414z" />
    <glyph glyph-name="five" unicode="5" horiz-adv-x="1198" 
d="M1085 225q0 -243 -493 -243q-494 0 -494 262v139h285v-145q0 -132 209 -132q211 0 211 132v596q0 60 -66 92q-54 26 -145 26q-209 0 -209 -118v-105h-285v784h987v-127h-702v-403q107 94 322 94q152 0 261 -50q119 -55 119 -144v-658z" />
    <glyph glyph-name="six" unicode="6" horiz-adv-x="1198" 
d="M1083 225q0 -243 -493 -243q-492 0 -492 243v1055q0 146 186 209q123 41 306 41q194 0 330 -56q163 -67 163 -194v-137h-282v133q0 131 -211 131q-209 0 -209 -131v-363q76 65 235 87q49 7 96 7q128 0 230 -38q141 -52 141 -158v-586zM801 229v533q0 119 -211 119
q-209 0 -209 -119v-533q0 -123 209 -123q211 0 211 123z" />
    <glyph glyph-name="seven" unicode="7" horiz-adv-x="1198" 
d="M1092 1389l-566 -1389h-307l567 1372h-682v141h988v-124z" />
    <glyph glyph-name="eight" unicode="8" horiz-adv-x="1198" 
d="M1090 223q0 -170 -270 -222q-100 -19 -224 -19q-287 0 -414 90q-80 57 -80 153v332q0 108 98 163q37 21 158 52q-256 61 -256 211v297q0 129 149 194q128 56 345 56q193 0 330 -56q164 -67 164 -194v-305q0 -84 -87 -139q-54 -35 -169 -64q256 -42 256 -207v-342z
M807 983v293q0 70 -76 105q-57 26 -137 26q-209 0 -209 -131v-293q0 -143 211 -143t211 143zM807 229v338q0 152 -211 152t-211 -152v-338q0 -123 211 -123t211 123z" />
    <glyph glyph-name="nine" unicode="9" horiz-adv-x="1198" 
d="M1083 233q0 -146 -186 -209q-124 -42 -305 -42q-197 0 -331 56q-163 68 -163 195v138h283v-142q0 -64 78 -98q60 -25 133 -25q76 0 133 24q76 33 76 99v430q-104 -90 -326 -90q-126 0 -231 38q-146 52 -146 155v526q0 128 150 190q126 52 344 52q491 0 491 -242v-1055z
M801 801v491q0 63 -78 93q-56 22 -131 22q-211 0 -211 -115v-491q0 -51 66 -80q57 -25 145 -25q209 0 209 105z" />
    <glyph glyph-name="colon" unicode=":" horiz-adv-x="459" 
d="M369 936h-277v197h277v-197zM369 61h-277v197h277v-197z" />
    <glyph glyph-name="semicolon" unicode=";" horiz-adv-x="518" 
d="M428 936h-276v197h276v-197zM428 176q0 -111 -116 -151q-84 -29 -277 -29v104q79 0 104 27q13 14 13 49v78h276v-78z" />
    <glyph glyph-name="less" unicode="&#x3c;" horiz-adv-x="1104" 
d="M981 250h-250l-608 508l608 506h250l-479 -506z" />
    <glyph glyph-name="equal" unicode="=" horiz-adv-x="961" 
d="M850 612h-739v170h739v-170zM850 332h-739v170h739v-170z" />
    <glyph glyph-name="greater" unicode="&#x3e;" horiz-adv-x="1104" 
d="M981 758l-608 -508h-250l479 508l-479 506h250z" />
    <glyph glyph-name="question" unicode="?" horiz-adv-x="1366" 
d="M1197 1062q3 -54 -17 -100q-24 -57 -97 -118l-50 -42l-111 -91q-40 -33 -64 -52q-15 -11 -51 -38q-45 -34 -58.5 -63t-13.5 -87v-199h-291v236q0 87 18 130q13 31 34 48l108 87l164 126q82 63 104 104q13 26 13 117v197q0 74 -127 96q-35 6 -76 6q-201 0 -201 -102v-172
h-311v182q0 85 75 137q113 78 437 78q148 0 242 -14q272 -40 272 -201zM735 0h-291v147h291v-147z" />
    <glyph glyph-name="at" unicode="@" horiz-adv-x="1323" 
d="M1241 573q0 -241 -169 -411t-410 -170q-242 0 -411 169.5t-169 411.5q0 244 168 413t412 169q242 0 410.5 -170t168.5 -412zM1118 573q0 191 -132.5 325t-323.5 134t-324 -134t-133 -325q0 -190 133.5 -323t323.5 -133q189 0 322.5 133.5t133.5 322.5zM815 262h-88v39
q-36 -48 -104 -48q-45 0 -77 22q-36 24 -36 67v180q0 50 35.5 84.5t97.5 34.5h76v129q0 53 -53 53q-56 0 -56 -53v-53h-90v57q0 115 146 115q68 0 102 -20q47 -28 47 -95v-512zM719 362v218h-8l-11 1q-94 0 -94 -55v-164q0 -43 56 -43q57 0 57 43z" />
    <glyph glyph-name="A" unicode="A" horiz-adv-x="1171" 
d="M1155 0h-283l-110 428h-367l-96 -428h-283l416 1530h307zM735 561l-149 723l-162 -723h311z" />
    <glyph glyph-name="B" unicode="B" horiz-adv-x="1094" 
d="M1004 242q0 -180 -284 -227q-97 -16 -210 -15l-418 4v1522l418 4q207 2 346 -62q148 -68 148 -188v-311q0 -101 -61 -146q-53 -39 -195 -57q119 -16 176 -52q80 -51 80 -155v-317zM719 961v323q0 85 -122 114q-39 9 -87 9h-127v-561l32 -1h34q270 0 270 116zM719 238v333
q0 120 -244 115l-92 -2v-561h127q209 0 209 115z" />
    <glyph glyph-name="C" unicode="C" horiz-adv-x="1124" 
d="M1040 225q0 -243 -491 -243q-457 0 -457 243v1071q0 252 457 252q194 0 328 -56q163 -68 163 -196v-233h-282v237q0 67 -76 99q-55 24 -133 24q-174 0 -174 -123v-1079q0 -115 174 -115q209 0 209 115v221h282v-217z" />
    <glyph glyph-name="D" unicode="D" horiz-adv-x="1171" 
d="M1079 244q0 -146 -77 -190q-98 -57 -416 -54l-494 4v1522l494 4q274 2 391 -63q102 -57 102 -187v-1036zM797 238v1046q0 81 -70 108q-41 15 -141 15h-211v-1284h211q113 0 143 10q68 21 68 105z" />
    <glyph glyph-name="E" unicode="E" horiz-adv-x="907" 
d="M842 0h-750v1530h750v-119h-459v-561h459v-127h-459v-604h459v-119z" />
    <glyph glyph-name="F" unicode="F" horiz-adv-x="893" 
d="M842 723h-459v-723h-291v1530h750v-119h-459v-561h459v-127z" />
    <glyph glyph-name="G" unicode="G" horiz-adv-x="1171" 
d="M1079 51q-116 -69 -473 -69h-41q-85 0 -164 12q-309 47 -309 231v1071q0 147 187 210q125 42 307 42q195 0 329 -56q164 -68 164 -196v-229h-282v233q0 123 -211 123q-76 0 -134 -25q-77 -32 -77 -98v-1079q0 -70 105 -100q53 -15 106 -15h53q36 0 73 5q66 9 85 26v484
h-199v145h481v-715z" />
    <glyph glyph-name="H" unicode="H" horiz-adv-x="1171" 
d="M1079 0h-291v692h-405v-692h-291v1530h291v-692h405v692h291v-1530z" />
    <glyph glyph-name="I" unicode="I" horiz-adv-x="475" 
d="M383 0h-291v1530h291v-1530z" />
    <glyph glyph-name="J" unicode="J" horiz-adv-x="1124" 
d="M1032 225q0 -243 -491 -243q-494 0 -494 243v111h283v-115q0 -62 79 -93q58 -22 132 -22q209 0 209 115v1309h282v-1305z" />
    <glyph glyph-name="K" unicode="K" horiz-adv-x="1116" 
d="M1079 0h-291l-405 684v-684h-291v1530h291v-682l405 682h291l-456 -764z" />
    <glyph glyph-name="L" unicode="L" horiz-adv-x="961" 
d="M918 0h-826v1530h291v-1376h535v-154z" />
    <glyph glyph-name="M" unicode="M" horiz-adv-x="1591" 
d="M1499 0h-274l2 1315l-262 -1315h-336l-260 1315v-1315h-277v1530h428l277 -1378l274 1378h428v-1530z" />
    <glyph glyph-name="N" unicode="N" horiz-adv-x="1147" 
d="M1057 0h-389l-316 1307v-1307h-260v1530h397l308 -1317v1317h260v-1530z" />
    <glyph glyph-name="O" unicode="O" horiz-adv-x="1171" 
d="M1079 225q0 -243 -493 -243q-494 0 -494 243v1071q0 147 191 210q127 42 311 42q194 0 325 -56q160 -68 160 -196v-1071zM797 221v1079q0 123 -203 123q-76 0 -134 -25q-77 -32 -77 -98v-1079q0 -62 75 -93q55 -22 128 -22q211 0 211 115z" />
    <glyph glyph-name="P" unicode="P" horiz-adv-x="1069" 
d="M1004 1004q0 -151 -82 -209q-104 -74 -412 -74h-127v-721h-291v1526l418 4q274 3 392 -63q102 -57 102 -187v-276zM719 997v287q0 81 -69 107q-41 16 -140 16h-127v-565h127q138 0 179 40q30 29 30 115z" />
    <glyph glyph-name="Q" unicode="Q" horiz-adv-x="1188" 
d="M1217 0h-467l-47 -9q-47 -9 -117 -9q-494 0 -494 243v1071q0 147 187 210q125 42 307 42q195 0 329 -56q164 -68 164 -196v-1063q0 -53 -16 -79h154v-154zM797 221v1079q0 123 -211 123q-76 0 -134 -25q-77 -32 -77 -98v-1079q0 -62 79 -93q58 -22 132 -22q211 0 211 115
z" />
    <glyph glyph-name="R" unicode="R" horiz-adv-x="1094" 
d="M1004 0h-285v590q0 75 -30 99q-41 32 -179 32h-127v-721h-291v1526l418 4q272 3 392 -65q102 -58 102 -189v-272q0 -111 -40 -160q-42 -52 -151 -64q77 -9 121 -45q70 -56 70 -180v-555zM719 997v283q0 81 -69 107q-41 16 -140 16h-127v-561h127q137 0 179 41
q30 29 30 114z" />
    <glyph glyph-name="S" unicode="S" horiz-adv-x="1133" 
d="M1040 201q0 -126 -147 -179q-111 -40 -326 -40q-298 0 -405 80q-70 52 -70 139v182h291v-174q0 -103 184 -103q183 0 183 103v203q0 33 -27 66l-119 104l-411 331q-101 81 -101 185v229q0 161 245 202q90 15 230 15q142 0 228 -14q245 -40 245 -203v-182h-290v176
q0 73 -109 95q-35 7 -74 7q-184 0 -184 -102v-221q0 -49 36 -94q21 -27 77 -70l489 -386q55 -46 55 -118v-231z" />
    <glyph glyph-name="T" unicode="T" horiz-adv-x="1065" 
d="M1016 1386h-338v-1386h-291v1386h-336v144h965v-144z" />
    <glyph glyph-name="U" unicode="U" horiz-adv-x="1171" 
d="M1079 225q0 -243 -493 -243q-494 0 -494 243v1305h283v-1309q0 -62 79 -93q58 -22 132 -22q211 0 211 115v1309h282v-1305z" />
    <glyph glyph-name="V" unicode="V" horiz-adv-x="1174" 
d="M1157 1530l-416 -1530h-307l-416 1530h283l287 -1227l286 1227h283z" />
    <glyph glyph-name="W" unicode="W" horiz-adv-x="1778" 
d="M1761 1530l-274 -1530h-338l-275 1317l-215 -1317h-335l-306 1530h297l215 -1317l177 1317h335l236 -1317l184 1317h299z" />
    <glyph glyph-name="X" unicode="X" horiz-adv-x="1079" 
d="M1038 0h-290l-207 530l-207 -530h-291l367 766l-367 764h291l207 -531l207 531h290l-368 -764z" />
    <glyph glyph-name="Y" unicode="Y" horiz-adv-x="1171" 
d="M1155 1530l-430 -848v-682h-272v682l-437 848h283l287 -619l286 619h283z" />
    <glyph glyph-name="Z" unicode="Z" horiz-adv-x="1128" 
d="M1077 1530l-661 -1376h631v-154h-996l662 1378h-662v152h1026z" />
    <glyph glyph-name="bracketleft" unicode="[" horiz-adv-x="506" 
d="M428 -86h-190q-202 516 -202 879q0 373 202 823h190q-206 -534 -206 -853q0 -180 52 -387q48 -190 154 -462z" />
    <glyph glyph-name="backslash" unicode="\" horiz-adv-x="858" 
d="M786 0h-290l-439 1530h291z" />
    <glyph glyph-name="bracketright" unicode="]" horiz-adv-x="506" 
d="M242 -86h-189q108 276 154 462q52 210 52 389q0 327 -206 851h189q104 -236 152 -431q49 -198 49 -391q0 -195 -51 -416q-45 -197 -150 -464z" />
    <glyph glyph-name="asciicircum" unicode="^" horiz-adv-x="1069" 
d="M1038 889l-221 2l-282 196l-281 -196l-221 -2l385 282l235 3z" />
    <glyph glyph-name="underscore" unicode="_" horiz-adv-x="1057" 
d="M1057 -205h-1057v103h1057v-103z" />
    <glyph glyph-name="grave" unicode="`" horiz-adv-x="612" 
d="M406 991h-213l-154 234h215z" />
    <glyph glyph-name="a" unicode="a" horiz-adv-x="1063" 
d="M973 0l-260 -2v78q-80 -69 -218 -88q-44 -6 -91 -6q-108 0 -200 34q-126 46 -126 136v313q0 258 389 258h221v246q0 78 -88 96q-29 6 -68 6q-157 0 -157 -102v-101h-266v109q0 127 127 178q96 39 296 39q133 0 213 -14q228 -40 228 -203v-977zM688 203v405h-27l-29 1
q-99 3 -175 -18q-97 -27 -97 -102v-286q0 -46 53 -72q45 -22 105 -22q67 0 113 20q57 25 57 74z" />
    <glyph glyph-name="b" unicode="b" horiz-adv-x="1063" 
d="M973 160q0 -94 -118 -143q-88 -36 -198 -36q-198 0 -305 95v-76h-260v1509h260v-415q111 94 302 94q110 0 199 -36q120 -48 120 -142v-850zM688 203v766q0 44 -53 71q-43 21 -92 21q-59 0 -105 -18q-63 -24 -63 -74v-758q0 -102 172 -102q141 0 141 94z" />
    <glyph glyph-name="c" unicode="c" horiz-adv-x="942" 
d="M895 201q0 -175 -234 -209q-69 -10 -167 -10q-171 0 -259 31q-143 50 -143 188v768q0 138 144 187q86 30 258 30q191 0 283 -39q118 -50 118 -178v-162h-283v154q0 102 -118 102q-119 0 -119 -102v-752q0 -58 26.5 -80.5t92.5 -22.5q118 0 118 103v88h283v-96z" />
    <glyph glyph-name="d" unicode="d" horiz-adv-x="1063" 
d="M973 0h-260v76q-109 -94 -302 -94q-110 0 -199 36q-120 48 -120 142v833q0 91 95 145q87 49 217 49q186 0 309 -93v415h260v-1509zM688 211v747q0 103 -170 103q-56 0 -95 -23q-48 -28 -48 -80v-747q0 -49 38 -75.5t105 -26.5q170 0 170 102z" />
    <glyph glyph-name="e" unicode="e" horiz-adv-x="1018" 
d="M973 201q0 -126 -134 -179q-102 -40 -307 -40q-202 0 -306 40q-134 52 -134 179v768q0 217 440 217q441 0 441 -217v-361h-598v-399q0 -103 157 -103q156 0 156 103v174h285v-182zM688 715v246q0 78 -88 96q-29 6 -68 6q-157 0 -157 -102v-246h313z" />
    <glyph glyph-name="f" unicode="f" horiz-adv-x="651" 
d="M635 1047h-168v-1047h-283v1047h-168v122h168v138q0 51 9 73q54 129 436 129v-110q-89 0 -98 -1q-65 -10 -65 -54v-17l1 -18v-140h168v-122z" />
    <glyph glyph-name="g" unicode="g" horiz-adv-x="1063" 
d="M973 -59q0 -160 -228 -202q-82 -15 -213 -15q-177 0 -268 29q-155 50 -155 188v26h266v-18q0 -103 157 -103q156 0 156 103v170q-45 -85 -261 -85q-117 0 -209 35q-126 48 -126 146v778q0 104 113 157q87 40 204 40q198 0 304 -96v75h260v-1228zM688 254v704
q0 103 -170 103q-143 0 -143 -103v-704q0 -102 143 -102q170 0 170 102z" />
    <glyph glyph-name="h" unicode="h" horiz-adv-x="1063" 
d="M973 0h-285v958q0 103 -141 103q-172 0 -172 -103v-958h-283v1509h260v-415q111 97 307 97q114 0 201 -39q113 -51 113 -151v-1001z" />
    <glyph glyph-name="i" unicode="i" horiz-adv-x="467" 
d="M375 1341h-283v168h283v-168zM375 0h-283v1169h283v-1169z" />
    <glyph glyph-name="j" unicode="j" horiz-adv-x="516" 
d="M424 1341h-283v168h283v-168zM424 -59q0 -232 -336 -232q-81 0 -180 15v139q66 -12 110 -12q123 0 123 96v1222h283v-1228z" />
    <glyph glyph-name="k" unicode="k" horiz-adv-x="1018" 
d="M981 1169l-365 -501l357 -668h-293l-305 567v-567h-283v1509h283v-764l313 424h293z" />
    <glyph glyph-name="l" unicode="l" horiz-adv-x="467" 
d="M375 0h-283v1509h283v-1509z" />
    <glyph glyph-name="m" unicode="m" horiz-adv-x="1507" 
d="M1415 0h-282v950q0 111 -119 111t-119 -111v-950h-283v950q0 111 -118 111q-119 0 -119 -111v-950h-283v1169h260v-75q138 94 280 94q99 0 191 -47q38 -19 72 -47q102 92 260 92q95 0 168 -36q92 -47 92 -132v-1018z" />
    <glyph glyph-name="n" unicode="n" horiz-adv-x="1063" 
d="M973 0h-285v977q0 42 -53 65q-41 19 -88 19q-53 0 -104 -17q-68 -24 -68 -67v-977h-283v1169h260v-75q105 93 303 93q107 0 196 -34q122 -46 122 -135v-1018z" />
    <glyph glyph-name="o" unicode="o" horiz-adv-x="1063" 
d="M973 201q0 -126 -134 -179q-102 -40 -307 -40q-202 0 -306 40q-134 52 -134 179v768q0 217 440 217q441 0 441 -217v-768zM688 209v752q0 78 -88 96q-29 6 -68 6q-157 0 -157 -102v-752q0 -103 157 -103q156 0 156 103z" />
    <glyph glyph-name="p" unicode="p" horiz-adv-x="1063" 
d="M973 160q0 -91 -132 -137q-94 -32 -207 -32q-214 0 -259 85v-361h-283v1454h260v-75q106 94 300 94q113 0 202 -38q119 -51 119 -149v-841zM688 203v755q0 103 -141 103q-172 0 -172 -103v-755q0 -67 106 -88q29 -6 66 -6q53 0 92 20q49 26 49 74z" />
    <glyph glyph-name="q" unicode="q" horiz-adv-x="1063" 
d="M973 -285h-285v361q-38 -83 -255 -83q-112 0 -206 29q-135 43 -135 130v849q0 99 116 150q88 38 201 38q197 0 304 -95v75h260v-1454zM688 211v747q0 55 -52 81q-44 22 -118 22q-143 0 -143 -103v-747q0 -52 38.5 -77t104.5 -25q170 0 170 102z" />
    <glyph glyph-name="r" unicode="r" horiz-adv-x="723" 
d="M688 1032h-14l-22 1q-87 4 -169 -19q-108 -30 -108 -107v-907h-283v1169h283v-79q63 87 242 83l42 -1l29 -3v-137z" />
    <glyph glyph-name="s" unicode="s" horiz-adv-x="987" 
d="M895 201q0 -175 -234 -209q-69 -10 -167 -10q-171 0 -259 31q-143 50 -143 188v182h283v-174q0 -103 119 -103q118 0 118 103v129q0 29 -17 50l-95 75l-316 221q-92 64 -92 154v131q0 138 144 187q86 30 258 30q191 0 283 -39q118 -50 118 -178v-162h-283v154
q0 102 -118 102q-119 0 -119 -102v-123q0 -29 24 -58q15 -18 90 -69l314 -213q58 -39 80 -84q12 -26 12 -72v-141z" />
    <glyph glyph-name="t" unicode="t" horiz-adv-x="670" 
d="M653 1047h-176v-857q0 -51 45 -70q33 -14 115 -14v-124h-130q-47 0 -64 5q-250 20 -250 195v865h-175v122h175v158l284 66v-224h176v-122z" />
    <glyph glyph-name="u" unicode="u" horiz-adv-x="1063" 
d="M973 201q0 -126 -134 -179q-102 -40 -307 -40q-202 0 -306 40q-134 52 -134 179v968h283v-960q0 -103 157 -103q156 0 156 103v960h285v-968z" />
    <glyph glyph-name="v" unicode="v" horiz-adv-x="913" 
d="M862 1169l-215 -1169h-428l-168 1169h260l131 -981l160 981h260z" />
    <glyph glyph-name="w" unicode="w" horiz-adv-x="1485" 
d="M1423 1169l-168 -1169h-413l-99 1024l-131 -1024h-397l-154 1169h261l100 -981l129 981h383l98 -981l131 981h260z" />
    <glyph glyph-name="x" unicode="x" horiz-adv-x="983" 
d="M932 0h-285l-155 315l-158 -315h-283l307 586l-307 583h283l158 -315l155 315h285l-307 -585z" />
    <glyph glyph-name="y" unicode="y" horiz-adv-x="983" 
d="M932 1169l-307 -1454h-283l47 285l-338 1169h252l211 -819l164 819h254z" />
    <glyph glyph-name="z" unicode="z" horiz-adv-x="983" 
d="M932 0h-881l551 1032h-551v137h881l-557 -1032h557v-137z" />
    <glyph glyph-name="braceleft" unicode="{" horiz-adv-x="506" 
d="M428 -170h-190q-107 276 -150 435q-52 194 -52 354q0 296 202 741h190q-75 -193 -104 -276q-54 -158 -80 -284q-22 -109 -22 -208q0 -187 92 -454q37 -108 114 -308z" />
    <glyph glyph-name="bar" unicode="|" horiz-adv-x="743" 
d="M475 -213h-207v1511h207v-1511z" />
    <glyph glyph-name="braceright" unicode="}" horiz-adv-x="506" 
d="M258 -170h-188q22 58 50 133q44 118 63 174q92 269 92 457q0 143 -49 323q-16 57 -41 132q-41 120 -115 311h188q202 -448 202 -740q0 -207 -92 -486q-44 -133 -110 -304z" />
    <glyph glyph-name="asciitilde" unicode="~" horiz-adv-x="1298" 
d="M1145 588l-332 -129l-330 129l-329 -129v157l329 127l330 -127l332 127v-155z" />
    <glyph glyph-name="quotesinglbase" unicode="&#x201a;" 
d="M-757 1524h260v-193h-260v193z" />
    <glyph glyph-name="florin" unicode="&#x192;" 
d="M-496 1442v-111h-393v92h-111v131h152q149 0 149 -94v-11l-2 -7h205z" />
    <glyph glyph-name="quotedblbase" unicode="&#x201e;" 
d="M-448 1343h-254v87l-101 -70l-102 70v-87h-180q0 79 74 129q47 32 106 46l102 -68l101 68q93 -21 153 -105h101v-70z" />
    <glyph glyph-name="ellipsis" unicode="&#x2026;" 
d="M-607 1331h-199v60h-114v94h114v59h199v-59h113v-94h-113v-60z" />
    <glyph glyph-name="dagger" unicode="&#x2020;" 
d="M-663 1331h-286v70q0 119 258 119h231v-117h-94q-109 0 -109 -72z" />
    <glyph glyph-name="daggerdbl" unicode="&#x2021;" 
d="M-375 1524h283v-193h-283v193z" />
    <glyph glyph-name="circumflex" unicode="&#x2c6;" 
d="M-86 1454v-123h-434v103h-119v143h166q164 0 164 -104v-12l-2 -7h225z" />
    <glyph glyph-name="perthousand" unicode="&#x2030;" 
d="M-104 1331h-310v82l-121 -55l-122 55v-82h-211l-1 20q-4 83 63 153q63 65 149 65l122 -60l121 60q54 -7 81 -17q85 -34 108 -114h121v-107z" />
    <glyph glyph-name="Scaron" unicode="&#x160;" 
d="M-133 1331h-215v55h-107v103h107v55h215v-55h104v-103h-104v-55z" />
    <glyph glyph-name="guilsinglleft" unicode="&#x2039;" 
d="M-166 1331h-287v70q0 119 260 119h232v-117h-96q-109 0 -109 -72z" />
    <glyph glyph-name="OE" unicode="&#x152;" horiz-adv-x="1032" 
d="M657 1243h285v-1245h-285v553h-227v127h227v280q0 103 -155 103q-158 0 -158 -103v-151h-283v162q0 163 273 196q107 13 323 13v65z" />
    <glyph glyph-name="quoteleft" unicode="&#x2018;" horiz-adv-x="600" 
d="M534 1225h-187l-272 233h276z" />
    <glyph glyph-name="quoteright" unicode="&#x2019;" horiz-adv-x="600" 
d="M259 1458h274l-270 -233h-188z" />
    <glyph glyph-name="quotedblleft" unicode="&#x201c;" horiz-adv-x="940" 
d="M876 1225h-189l-270 233h276zM523 1225h-188l-272 233h276z" />
    <glyph glyph-name="quotedblright" unicode="&#x201d;" horiz-adv-x="940" 
d="M251 1458h276l-272 -233h-186zM605 1458h275l-271 -233h-188z" />
    <glyph glyph-name="bullet" unicode="&#x2022;" 
d="M-578 1419h170v-119h-305q-260 0 -260 121v68h287q0 -70 108 -70z" />
    <glyph glyph-name="endash" unicode="&#x2013;" 
d="M-447 1381q0 -59 -79 -93q-53 -22 -129 -22q-73 0 -130 22q-78 31 -78 93q0 54 63 84.5t145 30.5q72 0 130 -23q78 -31 78 -92zM-734 1381q0 -18 24 -30.5t55 -12.5q78 0 78 43t-78 43q-79 0 -79 -43z" />
    <glyph glyph-name="emdash" unicode="&#x2014;" 
d="M-807 1382l160 60l162 -60v-86l-162 62l-160 -58h-156v170q0 86 150 86h332v-79h-219q-68 0 -93 -10q-14 -6 -14 -25v-60z" />
    <glyph glyph-name="tilde" unicode="&#x2dc;" 
d="M-682 1723h233v-151h-233v151z" />
    <glyph glyph-name="trademark" unicode="&#x2122;" 
d="M-397 1658v-97h-356v80h-101v117h137q134 0 134 -84v-10q-1 -5 -2 -6h188z" />
    <glyph glyph-name="scaron" unicode="&#x161;" 
d="M-336 1561h-254v48l-100 -31l-103 31v-48h-180q0 75 90 112q25 11 90 22l103 -29l100 29q36 0 61 -6q65 -16 95 -58h98v-70z" />
    <glyph glyph-name="guilsinglright" unicode="&#x203a;" 
d="M-449 1551h-198v60h-115v92h115v59h198v-59h113v-92h-113v-60z" />
    <glyph glyph-name="oe" unicode="&#x153;" 
d="M-426 1521h-231v56q0 96 208 96h187v-94h-78q-86 0 -86 -58z" />
    <glyph glyph-name="Ydieresis" unicode="&#x178;" horiz-adv-x="1618" 
d="M92 1174h99l154 2l187 2q441 0 441 -217v-529q0 -110 139 -110q131 0 131 110v737h283v-909q0 -212 -254 -252q-51 -8 -135 -8h-449v127h445q133 0 133 102v68q-100 -102 -282 -102q-107 0 -190 40q-106 51 -106 146v571q0 103 -156 103h-157v-1055h-283v1174z" />
    <glyph glyph-name="exclamdown" unicode="&#xa1;" horiz-adv-x="1063" 
d="M92 1174q37 0 110 1t110.5 1t111.5 1l108 1q441 0 441 -217v-961h-285v952q0 103 -156 103h-157v-1055h-283v1174z" />
    <glyph glyph-name="cent" unicode="&#xa2;" horiz-adv-x="1063" 
d="M391 1006q0 27 -18 41q-22 13 -52 13q-55 0 -115 -21l-114 -40v127q155 57 285 57q111 0 186 -43q60 -35 68 -75l2 -26q5 -61 -66 -108l-124 -83q-68 -59 -68 -146v-493q0 -103 157 -103q156 0 156 103v960h285v-968q0 -126 -134 -179q-102 -40 -307 -40q-202 0 -306 40
q-134 52 -134 179v481q0 105 77 172q37 32 144 85q78 39 78 67z" />
    <glyph glyph-name="sterling" unicode="&#xa3;" horiz-adv-x="1090" 
d="M444 209q0 -103 136 -103q135 0 135 103v960h282v-968q0 -128 -124 -179q-97 -40 -306 -40q-202 0 -292 40q-113 50 -113 179v690q0 59 38 101q6 7 38 30q-139 0 -206 21l-89 28l118 115q66 -26 127 -33q28 -3 58 -3q80 0 128 18l48 18l104 -135q-58 -22 -72 -57
q-10 -25 -10 -97v-688z" />
    <glyph glyph-name="currency" unicode="&#xa4;" horiz-adv-x="1063" 
d="M973 0h-285v961q0 78 -88 96q-29 6 -68 6q-157 0 -157 -102v-281h198v-152h-198v-528h-283v969q0 217 440 217q441 0 441 -217v-969z" />
    <glyph glyph-name="yen" unicode="&#xa5;" horiz-adv-x="1063" 
d="M92 977q0 100 82 152q62 39 201 59l157 -45l156 45q285 -39 285 -211v-977h-285v1047l-156 -43l-157 43v-367h198v-152h-198v-528h-283v977z" />
    <glyph glyph-name="brokenbar" unicode="&#xa6;" horiz-adv-x="1133" 
d="M444 229q0 -46 49 -83t123 -37q48 0 89 18q53 23 53 66v976h282v-1001q0 -99 -113 -151q-87 -40 -199 -40q-223 0 -306 127v-104h-258v891q0 60 37 101q9 10 37 30q-118 0 -208 22q-48 11 -87 27l118 115q66 -26 127 -33q28 -3 58 -3q80 0 128 18l48 18l104 -135
q-82 -26 -82 -96v-726z" />
    <glyph glyph-name="section" unicode="&#xa7;" horiz-adv-x="1004" 
d="M659 0h-329l-281 932h277l219 -801h28q56 0 56 67v775q0 46 -42 71q-49 28 -109 24l-48 -3v100q70 29 173 29q109 0 194 -34q116 -46 116 -138v-862q0 -87 -89 -129q-67 -31 -165 -31z" />
    <glyph glyph-name="dieresis" unicode="&#xa8;" horiz-adv-x="1018" 
d="M416 528v152h227v281q0 102 -156 102q-157 0 -157 -102v-154h-283v162q0 217 440 217q439 0 439 -217v-969h-283v528h-227z" />
    <glyph glyph-name="copyright" unicode="&#xa9;" horiz-adv-x="1063" 
d="M688 963q0 62 -42 88q-36 22 -114 22q-157 0 -157 -110v-95h-283v111q0 172 262 207q74 10 178 10q441 0 441 -217v-979h-260v86q-100 -104 -305 -104q-110 0 -198 37q-118 48 -118 143v520h283v-479q0 -43 38 -67.5t105 -24.5q170 0 170 102v750z" />
    <glyph glyph-name="ordfeminine" unicode="&#xaa;" horiz-adv-x="1063" 
d="M92 684q0 106 77 172q36 31 144 83q78 38 78 67q0 27 -18 41q-22 13 -52 13q-55 0 -115 -21l-114 -40v127q155 57 285 57q111 0 186 -43q60 -35 68 -75l2 -26q5 -63 -66 -109l-124 -81q-68 -56 -68 -136v-504q0 -78 93 -97q28 -6 64 -6q156 0 156 103v446q0 107 -139 107
v106q139 0 139 105v272h285v-282q0 -81 -38 -114q-28 -24 -106 -36q66 -18 96 -42q48 -38 48 -107v-463q0 -166 -241 -206q-78 -13 -200 -13q-123 0 -198 12q-242 39 -242 207v483z" />
    <glyph glyph-name="guillemotleft" unicode="&#xab;" horiz-adv-x="1077" 
d="M414 217q0 -111 143 -111q145 0 145 111v506q0 63 -56 86q-29 12 -85 12v107l17 -1q43 -3 77 17q43 25 43 78v223h287v-223q0 -87 -48 -121q-13 -9 -93 -29l83 -34q58 -38 58 -115v-522q0 -169 -232 -207q-73 -12 -196 -12q-124 0 -199 13q-227 39 -227 206v663
q0 77 53 125q16 14 54 33q-156 0 -251 33q-18 6 -44 16l118 115q66 -26 127 -33q28 -3 58 -3q80 0 128 18l48 18l104 -135q-71 -24 -95 -68q-17 -31 -17 -102v-664z" />
    <glyph glyph-name="logicalnot" unicode="&#xac;" horiz-adv-x="1618" 
d="M92 1174h100l154 2l186 2q441 0 441 -217v-744q0 -108 133 -108q137 0 137 98v962h283v-997q0 -97 -111 -151q-87 -42 -196 -42q-86 0 -153 26q-75 29 -118 83v-88h-260v952q0 103 -156 103h-157v-1055h-283v1174z" />
    <glyph glyph-name="minus" unicode="&#xad;" horiz-adv-x="1618" 
d="M92 1174h99l154 2l187 2q441 0 441 -217v-742q0 -110 139 -110q131 0 131 110v950h283v-1122q0 -212 -254 -252q-51 -8 -135 -8h-449v127h445q133 0 133 104v66q-100 -102 -282 -102q-107 0 -190 40q-106 51 -106 146v784q0 103 -156 103h-157v-1055h-283v1174z" />
    <glyph glyph-name="minus" unicode="&#x2212;" horiz-adv-x="1618" 
d="M92 1174h99l154 2l187 2q441 0 441 -217v-742q0 -110 139 -110q131 0 131 110v950h283v-1122q0 -212 -254 -252q-51 -8 -135 -8h-449v127h445q133 0 133 104v66q-100 -102 -282 -102q-107 0 -190 40q-106 51 -106 146v784q0 103 -156 103h-157v-1055h-283v1174z" />
    <glyph glyph-name="registered" unicode="&#xae;" horiz-adv-x="1063" 
d="M92 -276v118l299 90l297 -90v1110q0 103 -156 103h-157v-1055h-283v1174q37 0 110 1t110.5 1t111.5 1l108 1q441 0 441 -217v-1237h-285l-297 90z" />
    <glyph glyph-name="macron" unicode="&#xaf;" horiz-adv-x="1063" 
d="M92 1174q37 0 110 1t110.5 1t111.5 1l108 1q441 0 441 -217v-1237h-285l-199 98l-198 -103l-199 99v123l199 -99l198 99l199 -99v1110q0 103 -156 103h-157v-1055h-283v1174z" />
    <glyph glyph-name="macron" unicode="&#x2c9;" horiz-adv-x="1063" 
d="M92 1174q37 0 110 1t110.5 1t111.5 1l108 1q441 0 441 -217v-1237h-285l-199 98l-198 -103l-199 99v123l199 -99l198 99l199 -99v1110q0 103 -156 103h-157v-1055h-283v1174z" />
    <glyph glyph-name="degree" unicode="&#xb0;" horiz-adv-x="1032" 
d="M942 -276h-285l-198 98l-199 -103l-199 99v123l199 -99l199 99l198 -99v95h285v-213zM657 1253h285v-1255h-285v530h-227v152h227v278q0 103 -155 103q-158 0 -158 -103v-151h-283v162q0 216 378 216q99 0 218 -18v86z" />
    <glyph glyph-name="plusminus" unicode="&#xb1;" horiz-adv-x="1094" 
d="M1004 997v-997h-285v958q0 53 -51 81q-41 22 -99 22q-163 0 -163 -111v-950h-283v891q0 93 58 138q9 7 26 20q-35 -11 -80 -11q-93 0 -197 39l93 109q66 -26 127 -33q28 -3 58 -3q79 0 127 18l48 18l51 -51q91 54 253 54q120 0 204 -37q113 -50 113 -155z" />
    <glyph glyph-name="twosuperior" unicode="&#xb2;" horiz-adv-x="1618" 
d="M948 88v-90l-260 2v1047l-156 -43l-157 43v-844q0 -49 53 -74q42 -20 96 -20h24l25 4v-101q-70 -29 -173 -29q-109 0 -193 33q-115 45 -115 136v825q0 154 209 200q50 11 74 11l157 -45l156 45q27 0 73 -10q212 -46 212 -201v-764q0 -104 133 -104q137 0 137 98v962h283
v-993q0 -98 -110 -154q-88 -44 -197 -44q-188 0 -271 110z" />
    <glyph glyph-name="threesuperior" unicode="&#xb3;" horiz-adv-x="1618" 
d="M92 1174q37 0 110 1t110.5 1t111.5 1l108 1q441 0 441 -217v-758q0 -41 35.5 -67.5t101.5 -26.5q133 0 133 84v976h283v-1169h-260v76q-87 -95 -269 -95q-110 0 -196 39q-113 51 -113 148v784q0 103 -156 103h-157v-1055h-283v1174z" />
    <glyph glyph-name="acute" unicode="&#xb4;" horiz-adv-x="1063" 
d="M375 236q0 -78 44 -103q35 -20 154 -20v-101q-72 -30 -177 -30q-115 0 -197 38q-107 50 -107 152v805q0 126 134 178q101 39 306 39q133 0 213 -14q228 -40 228 -203v-977h-285v969q0 78 -88 96q-29 6 -68 6q-157 0 -157 -102v-733z" />
    <glyph glyph-name="mu1" unicode="&#xb5;" horiz-adv-x="1063" 
d="M973 979v-979h-285v1047l-156 -43l-157 43v-828q0 -60 38 -84q45 -29 107 -25l53 3v-101q-79 -31 -178 -31q-115 0 -196 37q-107 49 -107 150v819q0 94 94 151q82 50 189 50l157 -45l158 45q283 -36 283 -209z" />
    <glyph glyph-name="mu1" unicode="&#x3bc;" horiz-adv-x="1063" 
d="M973 979v-979h-285v1047l-156 -43l-157 43v-828q0 -60 38 -84q45 -29 107 -25l53 3v-101q-79 -31 -178 -31q-115 0 -196 37q-107 49 -107 150v819q0 94 94 151q82 50 189 50l157 -45l158 45q283 -36 283 -209z" />
    <glyph glyph-name="paragraph" unicode="&#xb6;" horiz-adv-x="1063" 
d="M92 1174q37 0 110 1t110.5 1t111.5 1l108 1q441 0 441 -217v-961h-285v944q0 70 -45 94q-32 17 -111 17h-157v-932h157v-123h-440v1174z" />
    <glyph glyph-name="periodcentered" unicode="&#xb7;" horiz-adv-x="1063" 
d="M92 0v1169h260v-75q113 94 303 94q110 0 199 -36q119 -48 119 -142v-1010h-285v958q0 103 -141 103q-172 0 -172 -103v-958h-283z" />
    <glyph glyph-name="periodcentered" unicode="&#x2219;" horiz-adv-x="1063" 
d="M92 0v1169h260v-75q113 94 303 94q110 0 199 -36q119 -48 119 -142v-1010h-285v958q0 103 -141 103q-172 0 -172 -103v-958h-283z" />
    <glyph glyph-name="cedilla" unicode="&#xb8;" horiz-adv-x="1063" 
d="M973 928v-727q0 -126 -134 -179q-102 -40 -307 -40q-202 0 -306 40q-134 52 -134 179v497h283v-489q0 -103 157 -103q156 0 156 103v598h-596v151q0 172 264 208q74 10 176 10h167q29 0 86 -1t86 -1q99 0 102 -3v-122h-426q-178 0 -178 -121h604z" />
    <glyph glyph-name="onesuperior" unicode="&#xb9;" horiz-adv-x="1063" 
d="M973 1169v-1169h-260v100q-89 -120 -306 -120q-106 0 -195 35q-120 47 -120 137v1017h283v-976q0 -43 53 -66q42 -18 90 -18q61 0 108 21q62 28 62 81v958h285z" />
    <glyph glyph-name="ordmasculine" unicode="&#xba;" horiz-adv-x="1063" 
d="M375 1169v-970q0 -49 39.5 -71t117.5 -22q156 0 156 93v970h285v-987q0 -116 -175 -167q-113 -33 -266 -33q-193 0 -306 44q-134 52 -134 156v987h283z" />
    <glyph glyph-name="guillemotright" unicode="&#xbb;" horiz-adv-x="1063" 
d="M375 1169v-970q0 -69 90 -87q30 -6 67 -6q156 0 156 93v1267h285v-1273q0 -211 -441 -211q-440 0 -440 211v976h283z" />
    <glyph glyph-name="onequarter" unicode="&#xbc;" horiz-adv-x="1343" 
d="M590 1059h-60q-88 0 -112 -11q-43 -19 -43 -92v-755q0 -95 84 -95t84 95v624h258v-624q0 -95 84 -95t84 95v968h282v-968q0 -133 -74 -180q-65 -41 -237 -41q-225 0 -268 124l-20 -45q-59 -82 -249 -82q-311 0 -311 224v755q0 103 61 153q51 41 160 57q84 12 277 12v-119
z" />
    <glyph glyph-name="onehalf" unicode="&#xbd;" horiz-adv-x="1343" 
d="M590 1059h-60q-88 0 -112 -11q-43 -19 -43 -92v-755q0 -95 84 -95t84 95v624h258v-624q0 -95 84 -95t84 95v1265h282v-1265q0 -133 -74 -180q-65 -41 -237 -41q-225 0 -268 124l-20 -45q-59 -82 -249 -82q-311 0 -311 224v755q0 103 61 153q51 41 160 57q84 12 277 12
v-119z" />
    <glyph glyph-name="threequarters" unicode="&#xbe;" horiz-adv-x="1343" 
d="M375 1169v-968q0 -95 84 -95t84 95v968h258v-968q0 -95 84 -95t84 95v968h282v-968q0 -133 -74 -180q-65 -41 -237 -41q-225 0 -268 124l-20 -45q-59 -82 -249 -82q-311 0 -311 224v968h283z" />
    <glyph glyph-name="questiondown" unicode="&#xbf;" horiz-adv-x="1343" 
d="M375 1169v-968q0 -95 84 -95t84 95v968h258v-968q0 -95 84 -95t84 95v1265h282v-1265q0 -133 -74 -180q-65 -41 -237 -41q-225 0 -268 124l-20 -45q-59 -82 -249 -82q-311 0 -311 224v968h283z" />
    <glyph glyph-name="Agrave" unicode="&#xc0;" horiz-adv-x="1124" 
d="M1032 0h-284v952q0 103 -154 103h-158v-1055h-405v123h123v1051q37 0 110 1t110.5 1t111.5 1l108 1q438 0 438 -217v-961z" />
    <glyph glyph-name="Aacute" unicode="&#xc1;" horiz-adv-x="1063" 
d="M375 1169v-962q0 -53 64 -79q46 -19 108 -19q49 0 89 18q52 23 52 66v976h285v-1017q0 -89 -121 -136q-90 -34 -196 -34q-194 0 -304 94v-76h-260v1169h283z" />
    <glyph glyph-name="Acircumflex" unicode="&#xc2;" horiz-adv-x="1063" 
d="M530 1174v-113l-16 1q-45 3 -84 -19q-55 -31 -55 -105v-137q0 -69 87 -100q57 -20 157 -20h43l26 3v485h285v-1169l-94 -2l-173 -2h-174q-440 0 -440 217v188q0 99 92 163q30 20 113 52l-112 45q-93 56 -93 156v209q0 157 308 157h35q14 0 33 -1.5t62 -7.5zM688 553
l-18 1l-27 1q-89 3 -166 -24q-102 -36 -102 -123v-187q0 -58 35.5 -80t121.5 -22h156v434z" />
    <glyph glyph-name="Atilde" unicode="&#xc3;" horiz-adv-x="987" 
d="M895 342v-141q0 -175 -234 -209q-69 -10 -167 -10q-171 0 -259 31q-143 50 -143 188v182h283v-174q0 -103 119 -103q118 0 118 103v129q0 44 -47 78l-65 47l-316 221q-92 64 -92 154v131q0 138 144 187q86 30 258 30q191 0 283 -39q118 -50 118 -178v-162h-283v154
q0 102 -118 102q-119 0 -119 -102v-123q0 -39 41 -75q9 -9 73 -52l314 -213q92 -62 92 -156z" />
    <glyph glyph-name="Adieresis" unicode="&#xc4;" horiz-adv-x="1063" 
d="M973 -213h-285v1165q0 103 -156 103h-157v-928h157v-127h-440v1174q37 0 110 1t110.5 1t111.5 1l108 1q441 0 441 -217v-1174z" />
    <glyph glyph-name="Aring" unicode="&#xc5;" horiz-adv-x="1063" 
d="M573 12q-78 -31 -182 -31q-128 0 -212 42q-101 50 -101 145v289q0 134 105 202q99 64 284 64h221v246q0 78 -88 96q-29 6 -68 6q-157 0 -157 -102v-101h-285v109q0 162 227 202q85 15 215 15q133 0 213 -14q228 -40 228 -203v-977h-285v608q-142 0 -210 -15
q-118 -26 -118 -101v-281q0 -102 161 -102h32l20 4v-101z" />
    <glyph glyph-name="AE" unicode="&#xc6;" horiz-adv-x="1124" 
d="M1032 -213h-282l-2 1165q0 103 -154 103h-158v-1055h-405v123h123v1051q37 0 110 1t110.5 1t111.5 1l108 1q438 0 438 -217v-1174z" />
    <glyph glyph-name="Ccedilla" unicode="&#xc7;" horiz-adv-x="987" 
d="M375 807h-283v162q0 137 144 187q88 30 258 30q192 0 284 -39q117 -50 117 -178v-768q0 -175 -234 -209q-69 -10 -167 -10q-171 0 -259 31q-143 50 -143 188v96h283v-88q0 -103 119 -103q118 0 118 103v752q0 102 -118 102q-119 0 -119 -102v-154z" />
    <glyph glyph-name="Egrave" unicode="&#xc8;" horiz-adv-x="1063" 
d="M688 1253h285v-1253h-285v977q0 86 -156 86q-157 0 -157 -86v-297h198v-152h-198v-528h-283v995q0 93 136 146q119 46 295 46q93 0 165 -13v79z" />
    <glyph glyph-name="Eacute" unicode="&#xc9;" horiz-adv-x="1063" 
d="M973 201q0 -126 -134 -179q-102 -40 -307 -40q-202 0 -306 40q-134 52 -134 179v968h283v-960q0 -103 157 -103q156 0 156 103v344h-160v127h160v489h285v-489h121v-127h-121v-352z" />
    <glyph glyph-name="Ecircumflex" unicode="&#xca;" horiz-adv-x="1063" 
d="M688 1186v67h285v-1253l-285 -2v610q-149 0 -211 -14q-117 -26 -117 -107v-268q0 -110 161 -110h32l20 4v-101q-32 -13 -80.5 -21.5t-101.5 -8.5q-117 0 -200 36q-113 48 -113 150v313q0 132 137 195q103 47 252 47h221v246q0 78 -88 96q-29 6 -68 6q-157 0 -157 -102
v-101h-285v109q0 219 411 219q94 0 187 -10z" />
    <glyph glyph-name="Edieresis" unicode="&#xcb;" horiz-adv-x="1063" 
d="M688 0v803q0 100 -141 100q-172 0 -172 -100v-803h-283v1169h260v-231q105 92 302 92q108 0 197 -34q122 -46 122 -136v-860h-285zM948 1047h-438v122h438v-122z" />
    <glyph glyph-name="Igrave" unicode="&#xcc;" horiz-adv-x="1444" 
d="M1069 201v706q0 97 -125 97v106q125 0 125 88v70h285v-62q0 -149 -135 -149q44 0 95 -53q40 -42 40 -97v-706q0 -132 -119 -182q-87 -37 -272 -37q-107 0 -172 39q-38 23 -68 85q-17 -35 -38 -54q-73 -64 -191 -70l-84 -4q-132 -6 -225 51t-93 172v968h283v-968
q0 -95 110 -95q101 0 101 95v968h274v-968q0 -95 103 -95q58 0 78 14q28 20 28 81z" />
    <glyph glyph-name="Iacute" unicode="&#xcd;" horiz-adv-x="1063" 
d="M375 209q0 -103 157 -103q156 0 156 103v752q0 78 -88 96q-29 6 -68 6q-157 0 -157 -102v-154h-283v162q0 217 440 217q441 0 441 -217v-768q0 -126 -134 -179q-102 -40 -307 -40q-202 0 -306 40q-134 52 -134 179v479h440v-127h-157v-344z" />
    <glyph glyph-name="Icircumflex" unicode="&#xce;" horiz-adv-x="1063" 
d="M688 1245h285v-1044q0 -126 -134 -179q-102 -40 -307 -40q-202 0 -306 40q-134 52 -134 179v479h440v-127h-157v-344q0 -103 157 -103q156 0 156 103v752q0 78 -88 96q-29 6 -68 6q-157 0 -157 -102v-154h-283v162q0 162 259 195q125 16 337 16v65z" />
    <glyph glyph-name="Idieresis" unicode="&#xcf;" horiz-adv-x="1063" 
d="M92 1169h268q3 -15 10 -27q38 -61 152 -61q106 0 147 44q12 13 19 44h285v-1169h-260v1049q-115 -83 -289 -83q-109 0 -206 36q-129 49 -129 141z" />
    <glyph glyph-name="Eth" unicode="&#xd0;" horiz-adv-x="586" 
d="M61 266v109h275v-78h188v-127h-288q-175 0 -175 96zM61 891v108h275v-75h188v-129h-288q-175 0 -175 96z" />
    <glyph glyph-name="Ntilde" unicode="&#xd1;" 
d="M-264 1419h264v-119h-397q-260 0 -260 121v68h284q0 -35 39 -54q32 -16 70 -16z" />
    <glyph glyph-name="Ograve" unicode="&#xd2;" horiz-adv-x="590" 
d="M528 0h-282l1 973q3 49 -27 69q-38 25 -159 25v111l113 2q82 1 135 -8t90 -23q129 -49 129 -158v-991z" />
    <glyph glyph-name="Oacute" unicode="&#xd3;" horiz-adv-x="559" 
d="M-20 1401q0 -59 -79 -93q-53 -22 -129 -22q-73 0 -130 22q-78 31 -78 93q0 54 63 84.5t145 30.5q72 0 130 -23q78 -31 78 -92zM467 6h-283l1 983q2 44 -28 61q-40 23 -157 23v111l113 2q80 1 135 -8t90 -23q129 -50 129 -158v-991zM-307 1401q0 -18 24 -30.5t55 -12.5
q78 0 78 43t-78 43q-79 0 -79 -43z" />
    <glyph glyph-name="Ocircumflex" unicode="&#xd4;" 
d="M-973 1427h881v-127h-881v127z" />
    <glyph glyph-name="Otilde" unicode="&#xd5;" 
d="M-92 1300h-881v127h598v86h283v-213z" />
    <glyph glyph-name="Odieresis" unicode="&#xd6;" 
d="M-283 1300h-690v123h514q24 82 189 82q80 0 135 -28t55 -80q0 -62 -81 -85q-42 -12 -122 -12zM-203 1397q0 38 -68 38q-69 0 -69 -38t69 -38q68 0 68 38z" />
    <glyph glyph-name="multiply" unicode="&#xd7;" 
d="M-92 1300h-873v127h461v86h170v-86h72v86h170v-213z" />
    <glyph glyph-name="Oslash" unicode="&#xd8;" 
d="M-512 -63h420v-213h-260v110h-160v103z" />
    <glyph glyph-name="Ugrave" unicode="&#xd9;" 
d="M-344 -137v74h252v-115q0 -98 -328 -98q-332 0 -332 98v12h-129v103h375v-74q0 -37 82 -37q80 0 80 37z" />
    <glyph glyph-name="Uacute" unicode="&#xda;" 
d="M-184 -59q92 0 92 -93q0 -92 -92 -92t-92 92q0 93 92 93z" />
    <glyph glyph-name="Ucircumflex" unicode="&#xdb;" 
d="M-973 1433h537v-129h-537v129z" />
    <glyph glyph-name="Udieresis" unicode="&#xdc;" 
d="M-436 1300h-537v123h316v70h221v-193z" />
    <glyph glyph-name="Yacute" unicode="&#xdd;" 
d="M-545 1319h-441v119h277q25 54 151 54q158 0 158 -87q0 -43 -54 -67q-42 -19 -91 -19zM-513 1403q1 26 -47 26q-46 0 -47 -26t47 -26q46 0 47 26z" />
    <glyph glyph-name="Thorn" unicode="&#xde;" 
d="M-436 1300h-537v123h201v70h129v-70h61v70h146v-193z" />
    <glyph glyph-name="germandbls" unicode="&#xdf;" horiz-adv-x="1094" 
d="M625 -145h-162v145h-371v1530h371v141h162v-145q151 -15 249 -66q130 -68 130 -180l1 -336q3 -85 -89 -136q-76 -42 -168 -42q23 0 66 -10q197 -46 191 -174l-1 -23v-317q0 -126 -135 -189q-102 -47 -244 -47v-151zM463 846v561h-80v-561h80zM719 961v323q0 84 -94 105
v-521q31 10 47 19q48 27 48 64zM463 123v563l-80 -2v-561h80zM625 664v-525q31 9 47 19q47 29 47 80v333q0 44 -47 73q-2 2 -13 6q-14 6 -34 14z" />
    <glyph glyph-name="agrave" unicode="&#xe0;" horiz-adv-x="467" 
d="M92 1169h283v-1169h-283v1169z" />
    <glyph glyph-name="aacute" unicode="&#xe1;" horiz-adv-x="903" 
d="M92 1169h283v-1169h-283v1169zM528 1169h283v-1169h-283v1169z" />
    <glyph glyph-name="acircumflex" unicode="&#xe2;" horiz-adv-x="483" 
d="M92 1298q0 115 118 172q93 45 254 45q57 0 126 -6v-110q-142 0 -186 -32q-29 -21 -29 -75v-1292h-283v1298z" />
    <glyph glyph-name="atilde" unicode="&#xe3;" horiz-adv-x="467" 
d="M-27 1364l-108 78q104 78 260 78q99 0 166 -35q84 -44 84 -133v-1352h-283v1323q0 64 -56 64q-31 0 -63 -23z" />
    <glyph glyph-name="adieresis" unicode="&#xe4;" horiz-adv-x="467" 
d="M375 0h-283l1 1334q2 26 -28 42q-44 23 -157 23v110q68 6 123 6q344 0 344 -192v-1323z" />
    <glyph glyph-name="aring" unicode="&#xe5;" horiz-adv-x="651" 
d="M559 -213h-283l1 1193q3 62 -66 80q-30 7 -119 7v111l44 3l64 2q62 2 152 -11q51 -8 107 -35q46 -22 65 -46q35 -44 35 -133v-1171z" />
    <glyph glyph-name="ae" unicode="&#xe6;" horiz-adv-x="1432" 
d="M459 911l-3 24l-2 33q-5 91 75 152q50 38 139 58q13 3 33 6q26 4 42 4l156 -45l158 45q21 0 73 -12q83 -19 135 -58q74 -55 74 -141v-977h-282v1047l-158 -43l-156 43v-136h-284z" />
    <glyph glyph-name="ccedilla" unicode="&#xe7;" 
d="M-629 1450l232 82l229 -82v-125l-229 88l-232 -82h-221v234q0 133 213 133h475v-115h-315q-106 0 -133 -15q-19 -11 -19 -55v-63z" />
    <glyph glyph-name="egrave" unicode="&#xe8;" 
d="M-361 1769h248v-179h-248v179z" />
    <glyph glyph-name="eacute" unicode="&#xe9;" 
d="M12 1666v-106h-393v88h-108v121h157q141 0 141 -86v-13l-2 -4h205z" />
    <glyph glyph-name="ecircumflex" unicode="&#xea;" 
d="M-88 1570h-254v74l-100 -52l-101 52v-74h-176q0 79 49 137.5t127 58.5l101 -49l100 49q44 -6 67 -15q69 -27 89 -93h98v-88z" />
    <glyph glyph-name="edieresis" unicode="&#xeb;" 
d="M-147 1560h-205v59h-115v90h115v60h205v-60h112v-90h-112v-59z" />
    <glyph glyph-name="igrave" unicode="&#xec;" 
d="M-131 1530h-248v74q0 74 91 96q42 10 151 10h221v-102h-123q-50 0 -65 -6q-27 -12 -27 -53v-19z" />
    <glyph glyph-name="iacute" unicode="&#xed;" 
d="M-40 1401q0 -59 -79 -93q-53 -22 -129 -22q-73 0 -130 22q-78 31 -78 93q0 54 63 84.5t145 30.5q72 0 130 -23q78 -31 78 -92zM-327 1401q0 -18 24 -30.5t55 -12.5q78 0 78 43t-78 43q-79 0 -79 -43z" />
    <glyph glyph-name="icircumflex" unicode="&#xee;" 
d="M-118 1735v-131h-204l77 -113l-63 -70h131v-133l-93 -7l-66 -4q-60 -4 -89 21q-32 27 -38 58q-3 14 -2 26l1 18v21l60 70l-50 55l-6 23q-6 23 -6 44q0 28 15 58q21 43 65 55l64 9h204z" />
    <glyph glyph-name="idieresis" unicode="&#xef;" horiz-adv-x="1057" 
d="M666 0q-243 0 -413.5 170.5t-170.5 413.5q0 244 170 413.5t414 169.5q245 0 414 -169t169 -414q0 -244 -169.5 -414t-413.5 -170zM1133 584q0 196 -135.5 331.5t-331.5 135.5q-195 0 -331 -136t-136 -331t136 -331t331 -136t331 136t136 331zM666 233
q-146 0 -248.5 102.5t-102.5 248.5t102 248t249 102q146 0 248 -102t102 -248q0 -145 -102.5 -248t-247.5 -103zM928 584q0 110 -76 186t-186 76t-186.5 -76t-76.5 -186q0 -111 76 -186.5t187 -75.5q110 0 186 76t76 186z" />
    <glyph glyph-name="eth" unicode="&#xf0;" horiz-adv-x="1081" 
d="M1010 225q0 -243 -471 -243q-469 0 -469 243v944q0 129 140 194q120 56 329 56q193 0 319 -55q152 -66 152 -195v-944zM727 1174q0 64 -66 97q-51 25 -122 25t-122 -25q-65 -33 -65 -97v-953q0 -115 187 -115q188 0 188 115v953z" />
    <glyph glyph-name="ntilde" unicode="&#xf1;" horiz-adv-x="1081" 
d="M489 1223q-92 -113 -282 -168v145q164 49 282 203h285v-1403h-285v1223z" />
    <glyph glyph-name="ograve" unicode="&#xf2;" horiz-adv-x="1081" 
d="M381 137h668v-137h-988v150l640 729q34 49 34 114v181q0 64 -69 97q-53 25 -125 25t-126 -25q-71 -33 -71 -97v-154h-283v149q0 129 143 194q123 56 337 56q192 0 321 -55q156 -66 156 -195v-231q0 -46 -27 -93q-23 -27 -119 -138z" />
    <glyph glyph-name="oacute" unicode="&#xf3;" horiz-adv-x="1081" 
d="M408 805q126 0 195 18q126 33 126 121v230q0 63 -65 96q-51 26 -121 26t-122 -26q-67 -33 -67 -96v-127h-282v122q0 146 184 209q121 41 303 41q169 0 286 -45q167 -64 167 -205v-225q0 -148 -254 -203q254 -47 254 -206v-312q0 -241 -469 -241q-471 0 -471 243v115h282
v-121q0 -115 189 -115q69 0 120 23q66 31 66 92v326q0 88 -130 118q-65 15 -191 15v127z" />
    <glyph glyph-name="ocircumflex" unicode="&#xf4;" horiz-adv-x="1081" 
d="M606 291h-604v162l473 950h414v-985h155v-127h-155v-291h-283v291zM606 1188l-336 -770h336v770z" />
    <glyph glyph-name="otilde" unicode="&#xf5;" horiz-adv-x="1081" 
d="M1012 1276h-658v-404q105 93 312 93q117 0 214 -37q132 -50 132 -148v-555q0 -243 -469 -243q-471 0 -471 243v150h282v-154q0 -115 189 -115q186 0 186 115v510q0 111 -186 111q-189 0 -189 -111v-104h-282v776h940v-127z" />
    <glyph glyph-name="odieresis" unicode="&#xf6;" horiz-adv-x="1081" 
d="M731 1032v142q0 122 -186 122q-72 0 -123 -25q-66 -32 -66 -97v-371q112 93 316 93q140 0 236 -47q106 -52 106 -140v-484q0 -243 -469 -243q-471 0 -471 243v944q0 129 139 194q120 56 332 56q191 0 317 -55q152 -66 152 -195v-137h-283zM356 221q0 -115 189 -115
q186 0 186 115v441q0 56 -69 86q-52 22 -117 22q-189 0 -189 -108v-441z" />
    <glyph glyph-name="divide" unicode="&#xf7;" horiz-adv-x="1081" 
d="M487 0h-305l535 1264h-649v139h956v-125z" />
    <glyph glyph-name="oslash" unicode="&#xf8;" horiz-adv-x="1081" 
d="M70 510q0 158 254 207q-254 51 -254 203v249q0 129 140 194q120 56 329 56q193 0 319 -55q152 -66 152 -195v-249q0 -148 -256 -203q256 -50 256 -207v-287q0 -241 -451 -241q-489 0 -489 243v285zM741 928v246q0 85 -122 115q-37 9 -82 9q-185 0 -185 -133v-237
q0 -144 187 -144q202 0 202 144zM539 664q-187 0 -187 -142v-301q0 -115 187 -115q188 0 188 115v301q0 69 -62 108q-53 34 -126 34z" />
    <glyph glyph-name="ugrave" unicode="&#xf9;" horiz-adv-x="1081" 
d="M350 371v-142q0 -65 69 -98q53 -25 126 -25t126 25q68 33 68 98v435q-106 -93 -318 -93q-121 0 -218 36q-135 50 -135 151v420q0 241 477 241t477 -241v-945q0 -146 -178 -209q-120 -42 -299 -42q-193 0 -321 56q-156 68 -156 195v138h282zM739 1184q0 60 -71 91
q-54 23 -123 23q-195 0 -195 -114v-379q0 -109 195 -109q194 0 194 109v379z" />
    <glyph glyph-name="uacute" unicode="&#xfa;" horiz-adv-x="873" 
d="M92 1169h268q3 -15 10 -27q38 -61 152 -61q106 0 147 44q12 13 19 44h285v-1169h-260v1049q-115 -83 -289 -83q-109 0 -206 36q-129 49 -129 141zM1407 1171v-1171h-260v1171h260z" />
    <glyph glyph-name="ucircumflex" unicode="&#xfb;" horiz-adv-x="1637" 
d="M1815 287q-67 0 -115 57l-39 46q-9 10 -14 22l-91 -78q-21 -18 -40 -29l-17 -11q-4 -2 -18 -7l-7 -1h-4q-27 0 -61 25q-30 27 -94 101l-107 -84q-45 -35 -71 -41q-30 8 -76 53l-53 51q-74 -119 -214 -183q-127 -58 -278 -58q-176 0 -319 61q-137 58 -168 139l-19 68
q-6 21 -6 53q0 143 109 240q89 79 215 108q33 8 63 10l60 5h22q91 0 160 -25l66 -24l59 -25l-13 -129q-16 10 -118 35q-29 7 -104 15q-48 5 -99 5q-108 0 -191 -48q-100 -58 -100 -159q0 -107 135 -157q94 -35 221 -35q173 0 293 90l172 196q9 0 91 -99t104 -99
q14 0 76.5 97t89.5 101q24 0 84.5 -100.5t79.5 -105.5l69 98q69 98 94 98q8 0 86.5 -107.5t122.5 -107.5l140 129q60 55 131 68l16 1q40 3 124 -33q77 -34 112 -34h24l21 5l19 7l26 13l43 26l73 -98q-27 -33 -61 -51l-37 -14l-51 -11q-28 -6 -45 -6q-44 0 -117 29
q-82 31 -123 31h-24q-55 -5 -150 -66q-92 -57 -157 -57z" />
    <glyph glyph-name="udieresis" unicode="&#xfc;" 
d="M-512 -310h420v-213h-260v110h-160v103z" />
    <glyph glyph-name="yacute" unicode="&#xfd;" 
d="M-344 -384v74h252v-115q0 -98 -328 -98q-332 0 -332 98v12h-129v103h375v-74q0 -37 82 -37q80 0 80 37z" />
    <glyph glyph-name="thorn" unicode="&#xfe;" 
d="M-184 -310q92 0 92 -93q0 -92 -92 -92t-92 92q0 93 92 93z" />
    <glyph glyph-name="ydieresis" unicode="&#xff;" horiz-adv-x="455" 
 />
    <glyph glyph-name="u0E00" unicode="&#xe00;" horiz-adv-x="211" 
 />
    <glyph glyph-name="afii59681" unicode="&#xe01;" horiz-adv-x="1063" 
d="M92 1174q37 0 110 1t110.5 1t111.5 1l108 1q441 0 441 -217v-961h-285v952q0 103 -156 103h-157v-1055h-283v1174z" />
    <glyph glyph-name="afii59682" unicode="&#xe02;" horiz-adv-x="1063" 
d="M391 1006q0 27 -18 41q-22 13 -52 13q-55 0 -115 -21l-114 -40v127q155 57 285 57q111 0 186 -43q60 -35 68 -75l2 -26q5 -61 -66 -108l-124 -83q-68 -59 -68 -146v-493q0 -103 157 -103q156 0 156 103v960h285v-968q0 -126 -134 -179q-102 -40 -307 -40q-202 0 -306 40
q-134 52 -134 179v481q0 105 77 172q37 32 144 85q78 39 78 67z" />
    <glyph glyph-name="afii59683" unicode="&#xe03;" horiz-adv-x="1090" 
d="M444 209q0 -103 136 -103q135 0 135 103v960h282v-968q0 -128 -124 -179q-97 -40 -306 -40q-202 0 -292 40q-113 50 -113 179v690q0 59 38 101q6 7 38 30q-139 0 -206 21l-89 28l118 115q66 -26 127 -33q28 -3 58 -3q80 0 128 18l48 18l104 -135q-58 -22 -72 -57
q-10 -25 -10 -97v-688z" />
    <glyph glyph-name="afii59684" unicode="&#xe04;" horiz-adv-x="1063" 
d="M973 0h-285v961q0 78 -88 96q-29 6 -68 6q-157 0 -157 -102v-281h198v-152h-198v-528h-283v969q0 217 440 217q441 0 441 -217v-969z" />
    <glyph glyph-name="afii59685" unicode="&#xe05;" horiz-adv-x="1063" 
d="M92 977q0 100 82 152q62 39 201 59l157 -45l156 45q285 -39 285 -211v-977h-285v1047l-156 -43l-157 43v-367h198v-152h-198v-528h-283v977z" />
    <glyph glyph-name="afii59686" unicode="&#xe06;" horiz-adv-x="1133" 
d="M444 229q0 -46 49 -83t123 -37q48 0 89 18q53 23 53 66v976h282v-1001q0 -99 -113 -151q-87 -40 -199 -40q-223 0 -306 127v-104h-258v891q0 60 37 101q9 10 37 30q-118 0 -208 22q-48 11 -87 27l118 115q66 -26 127 -33q28 -3 58 -3q80 0 128 18l48 18l104 -135
q-82 -26 -82 -96v-726z" />
    <glyph glyph-name="afii59687" unicode="&#xe07;" horiz-adv-x="1004" 
d="M659 0h-329l-281 932h277l219 -801h28q56 0 56 67v775q0 46 -42 71q-49 28 -109 24l-48 -3v100q70 29 173 29q109 0 194 -34q116 -46 116 -138v-862q0 -87 -89 -129q-67 -31 -165 -31z" />
    <glyph glyph-name="afii59688" unicode="&#xe08;" horiz-adv-x="1018" 
d="M416 528v152h227v281q0 102 -156 102q-157 0 -157 -102v-154h-283v162q0 217 440 217q439 0 439 -217v-969h-283v528h-227z" />
    <glyph glyph-name="afii59689" unicode="&#xe09;" horiz-adv-x="1063" 
d="M688 963q0 62 -42 88q-36 22 -114 22q-157 0 -157 -110v-95h-283v111q0 172 262 207q74 10 178 10q441 0 441 -217v-979h-260v86q-100 -104 -305 -104q-110 0 -198 37q-118 48 -118 143v520h283v-479q0 -43 38 -67.5t105 -24.5q170 0 170 102v750z" />
    <glyph glyph-name="afii59690" unicode="&#xe0a;" horiz-adv-x="1063" 
d="M92 684q0 106 77 172q36 31 144 83q78 38 78 67q0 27 -18 41q-22 13 -52 13q-55 0 -115 -21l-114 -40v127q155 57 285 57q111 0 186 -43q60 -35 68 -75l2 -26q5 -63 -66 -109l-124 -81q-68 -56 -68 -136v-504q0 -78 93 -97q28 -6 64 -6q156 0 156 103v446q0 107 -139 107
v106q139 0 139 105v272h285v-282q0 -81 -38 -114q-28 -24 -106 -36q66 -18 96 -42q48 -38 48 -107v-463q0 -166 -241 -206q-78 -13 -200 -13q-123 0 -198 12q-242 39 -242 207v483z" />
    <glyph glyph-name="afii59691" unicode="&#xe0b;" horiz-adv-x="1077" 
d="M414 217q0 -111 143 -111q145 0 145 111v506q0 63 -56 86q-29 12 -85 12v107l17 -1q43 -3 77 17q43 25 43 78v223h287v-223q0 -87 -48 -121q-13 -9 -93 -29l83 -34q58 -38 58 -115v-522q0 -169 -232 -207q-73 -12 -196 -12q-124 0 -199 13q-227 39 -227 206v663
q0 77 53 125q16 14 54 33q-156 0 -251 33q-18 6 -44 16l118 115q66 -26 127 -33q28 -3 58 -3q80 0 128 18l48 18l104 -135q-71 -24 -95 -68q-17 -31 -17 -102v-664z" />
    <glyph glyph-name="afii59692" unicode="&#xe0c;" horiz-adv-x="1618" 
d="M92 1174h100l154 2l186 2q441 0 441 -217v-744q0 -108 133 -108q137 0 137 98v962h283v-997q0 -97 -111 -151q-87 -42 -196 -42q-86 0 -153 26q-75 29 -118 83v-88h-260v952q0 103 -156 103h-157v-1055h-283v1174z" />
    <glyph glyph-name="afii59693" unicode="&#xe0d;" horiz-adv-x="1618" 
d="M92 1174h99l154 2l187 2q441 0 441 -217v-742q0 -110 139 -110q131 0 131 110v950h283v-1122q0 -212 -254 -252q-51 -8 -135 -8h-449v127h445q133 0 133 104v66q-100 -102 -282 -102q-107 0 -190 40q-106 51 -106 146v784q0 103 -156 103h-157v-1055h-283v1174z" />
    <glyph glyph-name="afii59694" unicode="&#xe0e;" horiz-adv-x="1063" 
d="M92 -276v118l299 90l297 -90v1110q0 103 -156 103h-157v-1055h-283v1174q37 0 110 1t110.5 1t111.5 1l108 1q441 0 441 -217v-1237h-285l-297 90z" />
    <glyph glyph-name="afii59695" unicode="&#xe0f;" horiz-adv-x="1063" 
d="M92 1174q37 0 110 1t110.5 1t111.5 1l108 1q441 0 441 -217v-1237h-285l-199 98l-198 -103l-199 99v123l199 -99l198 99l199 -99v1110q0 103 -156 103h-157v-1055h-283v1174z" />
    <glyph glyph-name="afii59696" unicode="&#xe10;" horiz-adv-x="1032" 
d="M942 -276h-285l-198 98l-199 -103l-199 99v123l199 -99l199 99l198 -99v95h285v-213zM657 1253h285v-1255h-285v530h-227v152h227v278q0 103 -155 103q-158 0 -158 -103v-151h-283v162q0 216 378 216q99 0 218 -18v86z" />
    <glyph glyph-name="afii59697" unicode="&#xe11;" horiz-adv-x="1094" 
d="M1004 997v-997h-285v958q0 53 -51 81q-41 22 -99 22q-163 0 -163 -111v-950h-283v891q0 93 58 138q9 7 26 20q-35 -11 -80 -11q-93 0 -197 39l93 109q66 -26 127 -33q28 -3 58 -3q79 0 127 18l48 18l51 -51q91 54 253 54q120 0 204 -37q113 -50 113 -155z" />
    <glyph glyph-name="afii59698" unicode="&#xe12;" horiz-adv-x="1618" 
d="M948 88v-90l-260 2v1047l-156 -43l-157 43v-844q0 -49 53 -74q42 -20 96 -20h24l25 4v-101q-70 -29 -173 -29q-109 0 -193 33q-115 45 -115 136v825q0 154 209 200q50 11 74 11l157 -45l156 45q27 0 73 -10q212 -46 212 -201v-764q0 -104 133 -104q137 0 137 98v962h283
v-993q0 -98 -110 -154q-88 -44 -197 -44q-188 0 -271 110z" />
    <glyph glyph-name="afii59699" unicode="&#xe13;" horiz-adv-x="1618" 
d="M92 1174q37 0 110 1t110.5 1t111.5 1l108 1q441 0 441 -217v-758q0 -41 35.5 -67.5t101.5 -26.5q133 0 133 84v976h283v-1169h-260v76q-87 -95 -269 -95q-110 0 -196 39q-113 51 -113 148v784q0 103 -156 103h-157v-1055h-283v1174z" />
    <glyph glyph-name="afii59700" unicode="&#xe14;" horiz-adv-x="1063" 
d="M375 236q0 -78 44 -103q35 -20 154 -20v-101q-72 -30 -177 -30q-115 0 -197 38q-107 50 -107 152v805q0 126 134 178q101 39 306 39q133 0 213 -14q228 -40 228 -203v-977h-285v969q0 78 -88 96q-29 6 -68 6q-157 0 -157 -102v-733z" />
    <glyph glyph-name="afii59701" unicode="&#xe15;" horiz-adv-x="1063" 
d="M973 979v-979h-285v1047l-156 -43l-157 43v-828q0 -60 38 -84q45 -29 107 -25l53 3v-101q-79 -31 -178 -31q-115 0 -196 37q-107 49 -107 150v819q0 94 94 151q82 50 189 50l157 -45l158 45q283 -36 283 -209z" />
    <glyph glyph-name="afii59702" unicode="&#xe16;" horiz-adv-x="1063" 
d="M92 1174q37 0 110 1t110.5 1t111.5 1l108 1q441 0 441 -217v-961h-285v944q0 70 -45 94q-32 17 -111 17h-157v-932h157v-123h-440v1174z" />
    <glyph glyph-name="afii59703" unicode="&#xe17;" horiz-adv-x="1063" 
d="M92 0v1169h260v-75q113 94 303 94q110 0 199 -36q119 -48 119 -142v-1010h-285v958q0 103 -141 103q-172 0 -172 -103v-958h-283z" />
    <glyph glyph-name="afii59704" unicode="&#xe18;" horiz-adv-x="1063" 
d="M973 928v-727q0 -126 -134 -179q-102 -40 -307 -40q-202 0 -306 40q-134 52 -134 179v497h283v-489q0 -103 157 -103q156 0 156 103v598h-596v151q0 172 264 208q74 10 176 10h167q29 0 86 -1t86 -1q99 0 102 -3v-122h-426q-178 0 -178 -121h604z" />
    <glyph glyph-name="afii59705" unicode="&#xe19;" horiz-adv-x="1063" 
d="M973 1169v-1169h-260v100q-89 -120 -306 -120q-106 0 -195 35q-120 47 -120 137v1017h283v-976q0 -43 53 -66q42 -18 90 -18q61 0 108 21q62 28 62 81v958h285z" />
    <glyph glyph-name="afii59706" unicode="&#xe1a;" horiz-adv-x="1063" 
d="M375 1169v-970q0 -49 39.5 -71t117.5 -22q156 0 156 93v970h285v-987q0 -116 -175 -167q-113 -33 -266 -33q-193 0 -306 44q-134 52 -134 156v987h283z" />
    <glyph glyph-name="afii59707" unicode="&#xe1b;" horiz-adv-x="1063" 
d="M375 1169v-970q0 -69 90 -87q30 -6 67 -6q156 0 156 93v1267h285v-1273q0 -211 -441 -211q-440 0 -440 211v976h283z" />
    <glyph glyph-name="afii59708" unicode="&#xe1c;" horiz-adv-x="1343" 
d="M590 1059h-60q-88 0 -112 -11q-43 -19 -43 -92v-755q0 -95 84 -95t84 95v624h258v-624q0 -95 84 -95t84 95v968h282v-968q0 -133 -74 -180q-65 -41 -237 -41q-225 0 -268 124l-20 -45q-59 -82 -249 -82q-311 0 -311 224v755q0 103 61 153q51 41 160 57q84 12 277 12v-119
z" />
    <glyph glyph-name="afii59709" unicode="&#xe1d;" horiz-adv-x="1343" 
d="M590 1059h-60q-88 0 -112 -11q-43 -19 -43 -92v-755q0 -95 84 -95t84 95v624h258v-624q0 -95 84 -95t84 95v1265h282v-1265q0 -133 -74 -180q-65 -41 -237 -41q-225 0 -268 124l-20 -45q-59 -82 -249 -82q-311 0 -311 224v755q0 103 61 153q51 41 160 57q84 12 277 12
v-119z" />
    <glyph glyph-name="afii59710" unicode="&#xe1e;" horiz-adv-x="1343" 
d="M375 1169v-968q0 -95 84 -95t84 95v968h258v-968q0 -95 84 -95t84 95v968h282v-968q0 -133 -74 -180q-65 -41 -237 -41q-225 0 -268 124l-20 -45q-59 -82 -249 -82q-311 0 -311 224v968h283z" />
    <glyph glyph-name="afii59711" unicode="&#xe1f;" horiz-adv-x="1343" 
d="M375 1169v-968q0 -95 84 -95t84 95v968h258v-968q0 -95 84 -95t84 95v1265h282v-1265q0 -133 -74 -180q-65 -41 -237 -41q-225 0 -268 124l-20 -45q-59 -82 -249 -82q-311 0 -311 224v968h283z" />
    <glyph glyph-name="afii59712" unicode="&#xe20;" horiz-adv-x="1124" 
d="M1032 0h-284v952q0 103 -154 103h-158v-1055h-405v123h123v1051q37 0 110 1t110.5 1t111.5 1l108 1q438 0 438 -217v-961z" />
    <glyph glyph-name="afii59713" unicode="&#xe21;" horiz-adv-x="1063" 
d="M375 1169v-962q0 -53 64 -79q46 -19 108 -19q49 0 89 18q52 23 52 66v976h285v-1017q0 -89 -121 -136q-90 -34 -196 -34q-194 0 -304 94v-76h-260v1169h283z" />
    <glyph glyph-name="afii59714" unicode="&#xe22;" horiz-adv-x="1063" 
d="M530 1174v-113l-16 1q-45 3 -84 -19q-55 -31 -55 -105v-137q0 -69 87 -100q57 -20 157 -20h43l26 3v485h285v-1169l-94 -2l-173 -2h-174q-440 0 -440 217v188q0 99 92 163q30 20 113 52l-112 45q-93 56 -93 156v209q0 157 308 157h35q14 0 33 -1.5t62 -7.5zM688 553
l-18 1l-27 1q-89 3 -166 -24q-102 -36 -102 -123v-187q0 -58 35.5 -80t121.5 -22h156v434z" />
    <glyph glyph-name="afii59715" unicode="&#xe23;" horiz-adv-x="987" 
d="M895 342v-141q0 -175 -234 -209q-69 -10 -167 -10q-171 0 -259 31q-143 50 -143 188v182h283v-174q0 -103 119 -103q118 0 118 103v129q0 44 -47 78l-65 47l-316 221q-92 64 -92 154v131q0 138 144 187q86 30 258 30q191 0 283 -39q118 -50 118 -178v-162h-283v154
q0 102 -118 102q-119 0 -119 -102v-123q0 -39 41 -75q9 -9 73 -52l314 -213q92 -62 92 -156z" />
    <glyph glyph-name="afii59716" unicode="&#xe24;" horiz-adv-x="1063" 
d="M973 -213h-285v1165q0 103 -156 103h-157v-928h157v-127h-440v1174q37 0 110 1t110.5 1t111.5 1l108 1q441 0 441 -217v-1174z" />
    <glyph glyph-name="afii59717" unicode="&#xe25;" horiz-adv-x="1063" 
d="M573 12q-78 -31 -182 -31q-128 0 -212 42q-101 50 -101 145v289q0 134 105 202q99 64 284 64h221v246q0 78 -88 96q-29 6 -68 6q-157 0 -157 -102v-101h-285v109q0 162 227 202q85 15 215 15q133 0 213 -14q228 -40 228 -203v-977h-285v608q-142 0 -210 -15
q-118 -26 -118 -101v-281q0 -102 161 -102h32l20 4v-101z" />
    <glyph glyph-name="afii59718" unicode="&#xe26;" horiz-adv-x="1124" 
d="M1032 -213h-282l-2 1165q0 103 -154 103h-158v-1055h-405v123h123v1051q37 0 110 1t110.5 1t111.5 1l108 1q438 0 438 -217v-1174z" />
    <glyph glyph-name="afii59719" unicode="&#xe27;" horiz-adv-x="987" 
d="M375 807h-283v162q0 137 144 187q88 30 258 30q192 0 284 -39q117 -50 117 -178v-768q0 -175 -234 -209q-69 -10 -167 -10q-171 0 -259 31q-143 50 -143 188v96h283v-88q0 -103 119 -103q118 0 118 103v752q0 102 -118 102q-119 0 -119 -102v-154z" />
    <glyph glyph-name="afii59720" unicode="&#xe28;" horiz-adv-x="1063" 
d="M688 1253h285v-1253h-285v977q0 86 -156 86q-157 0 -157 -86v-297h198v-152h-198v-528h-283v995q0 93 136 146q119 46 295 46q93 0 165 -13v79z" />
    <glyph glyph-name="afii59721" unicode="&#xe29;" horiz-adv-x="1063" 
d="M973 201q0 -126 -134 -179q-102 -40 -307 -40q-202 0 -306 40q-134 52 -134 179v968h283v-960q0 -103 157 -103q156 0 156 103v344h-160v127h160v489h285v-489h121v-127h-121v-352z" />
    <glyph glyph-name="afii59722" unicode="&#xe2a;" horiz-adv-x="1063" 
d="M688 1186v67h285v-1253l-285 -2v610q-149 0 -211 -14q-117 -26 -117 -107v-268q0 -110 161 -110h32l20 4v-101q-32 -13 -80.5 -21.5t-101.5 -8.5q-117 0 -200 36q-113 48 -113 150v313q0 132 137 195q103 47 252 47h221v246q0 78 -88 96q-29 6 -68 6q-157 0 -157 -102
v-101h-285v109q0 219 411 219q94 0 187 -10z" />
    <glyph glyph-name="afii59723" unicode="&#xe2b;" horiz-adv-x="1063" 
d="M688 0v803q0 100 -141 100q-172 0 -172 -100v-803h-283v1169h260v-231q105 92 302 92q108 0 197 -34q122 -46 122 -136v-860h-285zM948 1047h-438v122h438v-122z" />
    <glyph glyph-name="afii59724" unicode="&#xe2c;" horiz-adv-x="1444" 
d="M1069 201v706q0 97 -125 97v106q125 0 125 88v70h285v-62q0 -149 -135 -149q44 0 95 -53q40 -42 40 -97v-706q0 -132 -119 -182q-87 -37 -272 -37q-107 0 -172 39q-38 23 -68 85q-17 -35 -38 -54q-73 -64 -191 -70l-84 -4q-132 -6 -225 51t-93 172v968h283v-968
q0 -95 110 -95q101 0 101 95v968h274v-968q0 -95 103 -95q58 0 78 14q28 20 28 81z" />
    <glyph glyph-name="afii59725" unicode="&#xe2d;" horiz-adv-x="1063" 
d="M375 209q0 -103 157 -103q156 0 156 103v752q0 78 -88 96q-29 6 -68 6q-157 0 -157 -102v-154h-283v162q0 217 440 217q441 0 441 -217v-768q0 -126 -134 -179q-102 -40 -307 -40q-202 0 -306 40q-134 52 -134 179v479h440v-127h-157v-344z" />
    <glyph glyph-name="afii59726" unicode="&#xe2e;" horiz-adv-x="1063" 
d="M688 1245h285v-1044q0 -126 -134 -179q-102 -40 -307 -40q-202 0 -306 40q-134 52 -134 179v479h440v-127h-157v-344q0 -103 157 -103q156 0 156 103v752q0 78 -88 96q-29 6 -68 6q-157 0 -157 -102v-154h-283v162q0 162 259 195q125 16 337 16v65z" />
    <glyph glyph-name="afii59727" unicode="&#xe2f;" horiz-adv-x="1063" 
d="M92 1169h268q3 -15 10 -27q38 -61 152 -61q106 0 147 44q12 13 19 44h285v-1169h-260v1049q-115 -83 -289 -83q-109 0 -206 36q-129 49 -129 141z" />
    <glyph glyph-name="afii59729" unicode="&#xe30;" horiz-adv-x="586" 
d="M61 266v109h275v-78h188v-127h-288q-175 0 -175 96zM61 891v108h275v-75h188v-129h-288q-175 0 -175 96z" />
    <glyph glyph-name="afii59728" unicode="&#xe31;" 
d="M-264 1419h264v-119h-397q-260 0 -260 121v68h284q0 -35 39 -54q32 -16 70 -16z" />
    <glyph glyph-name="afii59730" unicode="&#xe32;" horiz-adv-x="590" 
d="M528 0h-282l1 973q3 49 -27 69q-38 25 -159 25v111l113 2q82 1 135 -8t90 -23q129 -49 129 -158v-991z" />
    <glyph glyph-name="afii59731" unicode="&#xe33;" horiz-adv-x="559" 
d="M-20 1401q0 -59 -79 -93q-53 -22 -129 -22q-73 0 -130 22q-78 31 -78 93q0 54 63 84.5t145 30.5q72 0 130 -23q78 -31 78 -92zM467 6h-283l1 983q2 44 -28 61q-40 23 -157 23v111l113 2q80 1 135 -8t90 -23q129 -50 129 -158v-991zM-307 1401q0 -18 24 -30.5t55 -12.5
q78 0 78 43t-78 43q-79 0 -79 -43z" />
    <glyph glyph-name="afii59732" unicode="&#xe34;" 
d="M-973 1427h881v-127h-881v127z" />
    <glyph glyph-name="afii59733" unicode="&#xe35;" 
d="M-92 1300h-881v127h598v86h283v-213z" />
    <glyph glyph-name="afii59734" unicode="&#xe36;" 
d="M-283 1300h-690v123h514q24 82 189 82q80 0 135 -28t55 -80q0 -62 -81 -85q-42 -12 -122 -12zM-203 1397q0 38 -68 38q-69 0 -69 -38t69 -38q68 0 68 38z" />
    <glyph glyph-name="afii59735" unicode="&#xe37;" 
d="M-92 1300h-873v127h461v86h170v-86h72v86h170v-213z" />
    <glyph glyph-name="afii59736" unicode="&#xe38;" 
d="M-512 -63h420v-213h-260v110h-160v103z" />
    <glyph glyph-name="afii59737" unicode="&#xe39;" 
d="M-344 -137v74h252v-115q0 -98 -328 -98q-332 0 -332 98v12h-129v103h375v-74q0 -37 82 -37q80 0 80 37z" />
    <glyph glyph-name="afii59738" unicode="&#xe3a;" 
d="M-184 -59q92 0 92 -93q0 -92 -92 -92t-92 92q0 93 92 93z" />
    <glyph glyph-name="afii59743" unicode="&#xe3f;" horiz-adv-x="1094" 
d="M625 -145h-162v145h-371v1530h371v141h162v-145q151 -15 249 -66q130 -68 130 -180l1 -336q3 -85 -89 -136q-76 -42 -168 -42q23 0 66 -10q197 -46 191 -174l-1 -23v-317q0 -126 -135 -189q-102 -47 -244 -47v-151zM463 846v561h-80v-561h80zM719 961v323q0 84 -94 105
v-521q31 10 47 19q48 27 48 64zM463 123v563l-80 -2v-561h80zM625 664v-525q31 9 47 19q47 29 47 80v333q0 44 -47 73q-2 2 -13 6q-14 6 -34 14z" />
    <glyph glyph-name="afii59744" unicode="&#xe40;" horiz-adv-x="467" 
d="M92 1169h283v-1169h-283v1169z" />
    <glyph glyph-name="afii59745" unicode="&#xe41;" horiz-adv-x="903" 
d="M92 1169h283v-1169h-283v1169zM528 1169h283v-1169h-283v1169z" />
    <glyph glyph-name="afii59746" unicode="&#xe42;" horiz-adv-x="483" 
d="M92 1298q0 115 118 172q93 45 254 45q57 0 126 -6v-110q-142 0 -186 -32q-29 -21 -29 -75v-1292h-283v1298z" />
    <glyph glyph-name="afii59747" unicode="&#xe43;" horiz-adv-x="467" 
d="M-27 1364l-108 78q104 78 260 78q99 0 166 -35q84 -44 84 -133v-1352h-283v1323q0 64 -56 64q-31 0 -63 -23z" />
    <glyph glyph-name="afii59748" unicode="&#xe44;" horiz-adv-x="467" 
d="M375 0h-283l1 1334q2 26 -28 42q-44 23 -157 23v110q68 6 123 6q344 0 344 -192v-1323z" />
    <glyph glyph-name="afii59749" unicode="&#xe45;" horiz-adv-x="651" 
d="M559 -213h-283l1 1193q3 62 -66 80q-30 7 -119 7v111l44 3l64 2q62 2 152 -11q51 -8 107 -35q46 -22 65 -46q35 -44 35 -133v-1171z" />
    <glyph glyph-name="afii59750" unicode="&#xe46;" horiz-adv-x="1432" 
d="M459 911l-3 24l-2 33q-5 91 75 152q50 38 139 58q13 3 33 6q26 4 42 4l156 -45l158 45q21 0 73 -12q83 -19 135 -58q74 -55 74 -141v-977h-282v1047l-158 -43l-156 43v-136h-284z" />
    <glyph glyph-name="afii59751" unicode="&#xe47;" 
d="M-629 1450l232 82l229 -82v-125l-229 88l-232 -82h-221v234q0 133 213 133h475v-115h-315q-106 0 -133 -15q-19 -11 -19 -55v-63z" />
    <glyph glyph-name="afii59752" unicode="&#xe48;" 
d="M-361 1769h248v-179h-248v179z" />
    <glyph glyph-name="afii59753" unicode="&#xe49;" 
d="M12 1666v-106h-393v88h-108v121h157q141 0 141 -86v-13l-2 -4h205z" />
    <glyph glyph-name="afii59754" unicode="&#xe4a;" 
d="M-88 1570h-254v74l-100 -52l-101 52v-74h-176q0 79 49 137.5t127 58.5l101 -49l100 49q44 -6 67 -15q69 -27 89 -93h98v-88z" />
    <glyph glyph-name="afii59755" unicode="&#xe4b;" 
d="M-147 1560h-205v59h-115v90h115v60h205v-60h112v-90h-112v-59z" />
    <glyph glyph-name="afii59756" unicode="&#xe4c;" 
d="M-131 1530h-248v74q0 74 91 96q42 10 151 10h221v-102h-123q-50 0 -65 -6q-27 -12 -27 -53v-19z" />
    <glyph glyph-name="afii59757" unicode="&#xe4d;" 
d="M-40 1401q0 -59 -79 -93q-53 -22 -129 -22q-73 0 -130 22q-78 31 -78 93q0 54 63 84.5t145 30.5q72 0 130 -23q78 -31 78 -92zM-327 1401q0 -18 24 -30.5t55 -12.5q78 0 78 43t-78 43q-79 0 -79 -43z" />
    <glyph glyph-name="afii59758" unicode="&#xe4e;" 
d="M-118 1735v-131h-204l77 -113l-63 -70h131v-133l-93 -7l-66 -4q-60 -4 -89 21q-32 27 -38 58q-3 14 -2 26l1 18v21l60 70l-50 55l-6 23q-6 23 -6 44q0 28 15 58q21 43 65 55l64 9h204z" />
    <glyph glyph-name="afii59759" unicode="&#xe4f;" horiz-adv-x="1331" 
d="M666 0q-243 0 -413.5 170.5t-170.5 413.5q0 244 170 413.5t414 169.5q245 0 414 -169t169 -414q0 -244 -169.5 -414t-413.5 -170zM1133 584q0 196 -135.5 331.5t-331.5 135.5q-195 0 -331 -136t-136 -331t136 -331t331 -136t331 136t136 331zM666 233
q-146 0 -248.5 102.5t-102.5 248.5t102 248t249 102q146 0 248 -102t102 -248q0 -145 -102.5 -248t-247.5 -103zM928 584q0 110 -76 186t-186 76t-186.5 -76t-76.5 -186q0 -111 76 -186.5t187 -75.5q110 0 186 76t76 186z" />
    <glyph glyph-name="afii59760" unicode="&#xe50;" horiz-adv-x="1081" 
d="M1010 225q0 -243 -471 -243q-469 0 -469 243v944q0 129 140 194q120 56 329 56q193 0 319 -55q152 -66 152 -195v-944zM727 1174q0 64 -66 97q-51 25 -122 25t-122 -25q-65 -33 -65 -97v-953q0 -115 187 -115q188 0 188 115v953z" />
    <glyph glyph-name="afii59761" unicode="&#xe51;" horiz-adv-x="1081" 
d="M489 1223q-92 -113 -282 -168v145q164 49 282 203h285v-1403h-285v1223z" />
    <glyph glyph-name="afii59762" unicode="&#xe52;" horiz-adv-x="1081" 
d="M381 137h668v-137h-988v150l640 729q34 49 34 114v181q0 64 -69 97q-53 25 -125 25t-126 -25q-71 -33 -71 -97v-154h-283v149q0 129 143 194q123 56 337 56q192 0 321 -55q156 -66 156 -195v-231q0 -46 -27 -93q-23 -27 -119 -138z" />
    <glyph glyph-name="afii59763" unicode="&#xe53;" horiz-adv-x="1081" 
d="M408 805q126 0 195 18q126 33 126 121v230q0 63 -65 96q-51 26 -121 26t-122 -26q-67 -33 -67 -96v-127h-282v122q0 146 184 209q121 41 303 41q169 0 286 -45q167 -64 167 -205v-225q0 -148 -254 -203q254 -47 254 -206v-312q0 -241 -469 -241q-471 0 -471 243v115h282
v-121q0 -115 189 -115q69 0 120 23q66 31 66 92v326q0 88 -130 118q-65 15 -191 15v127z" />
    <glyph glyph-name="afii59764" unicode="&#xe54;" horiz-adv-x="1081" 
d="M606 291h-604v162l473 950h414v-985h155v-127h-155v-291h-283v291zM606 1188l-336 -770h336v770z" />
    <glyph glyph-name="afii59765" unicode="&#xe55;" horiz-adv-x="1081" 
d="M1012 1276h-658v-404q105 93 312 93q117 0 214 -37q132 -50 132 -148v-555q0 -243 -469 -243q-471 0 -471 243v150h282v-154q0 -115 189 -115q186 0 186 115v510q0 111 -186 111q-189 0 -189 -111v-104h-282v776h940v-127z" />
    <glyph glyph-name="afii59766" unicode="&#xe56;" horiz-adv-x="1081" 
d="M731 1032v142q0 122 -186 122q-72 0 -123 -25q-66 -32 -66 -97v-371q112 93 316 93q140 0 236 -47q106 -52 106 -140v-484q0 -243 -469 -243q-471 0 -471 243v944q0 129 139 194q120 56 332 56q191 0 317 -55q152 -66 152 -195v-137h-283zM356 221q0 -115 189 -115
q186 0 186 115v441q0 56 -69 86q-52 22 -117 22q-189 0 -189 -108v-441z" />
    <glyph glyph-name="afii59767" unicode="&#xe57;" horiz-adv-x="1081" 
d="M487 0h-305l535 1264h-649v139h956v-125z" />
    <glyph glyph-name="afii59768" unicode="&#xe58;" horiz-adv-x="1081" 
d="M70 510q0 158 254 207q-254 51 -254 203v249q0 129 140 194q120 56 329 56q193 0 319 -55q152 -66 152 -195v-249q0 -148 -256 -203q256 -50 256 -207v-287q0 -241 -451 -241q-489 0 -489 243v285zM741 928v246q0 85 -122 115q-37 9 -82 9q-185 0 -185 -133v-237
q0 -144 187 -144q202 0 202 144zM539 664q-187 0 -187 -142v-301q0 -115 187 -115q188 0 188 115v301q0 69 -62 108q-53 34 -126 34z" />
    <glyph glyph-name="afii59769" unicode="&#xe59;" horiz-adv-x="1081" 
d="M350 371v-142q0 -65 69 -98q53 -25 126 -25t126 25q68 33 68 98v435q-106 -93 -318 -93q-121 0 -218 36q-135 50 -135 151v420q0 241 477 241t477 -241v-945q0 -146 -178 -209q-120 -42 -299 -42q-193 0 -321 56q-156 68 -156 195v138h282zM739 1184q0 60 -71 91
q-54 23 -123 23q-195 0 -195 -114v-379q0 -109 195 -109q194 0 194 109v379z" />
    <glyph glyph-name="afii59770" unicode="&#xe5a;" horiz-adv-x="1567" 
d="M92 1169h268q3 -15 10 -27q38 -61 152 -61q106 0 147 44q12 13 19 44h285v-1169h-260v1049q-115 -83 -289 -83q-109 0 -206 36q-129 49 -129 141zM1407 1171v-1171h-260v1171h260z" />
    <glyph glyph-name="afii59771" unicode="&#xe5b;" horiz-adv-x="2628" 
d="M1815 287q-67 0 -115 57l-39 46q-9 10 -14 22l-91 -78q-21 -18 -40 -29l-17 -11q-4 -2 -18 -7l-7 -1h-4q-27 0 -61 25q-30 27 -94 101l-107 -84q-45 -35 -71 -41q-30 8 -76 53l-53 51q-74 -119 -214 -183q-127 -58 -278 -58q-176 0 -319 61q-137 58 -168 139l-19 68
q-6 21 -6 53q0 143 109 240q89 79 215 108q33 8 63 10l60 5h22q91 0 160 -25l66 -24l59 -25l-13 -129q-16 10 -118 35q-29 7 -104 15q-48 5 -99 5q-108 0 -191 -48q-100 -58 -100 -159q0 -107 135 -157q94 -35 221 -35q173 0 293 90l172 196q9 0 91 -99t104 -99
q14 0 76.5 97t89.5 101q24 0 84.5 -100.5t79.5 -105.5l69 98q69 98 94 98q8 0 86.5 -107.5t122.5 -107.5l140 129q60 55 131 68l16 1q40 3 124 -33q77 -34 112 -34h24l21 5l19 7l26 13l43 26l73 -98q-27 -33 -61 -51l-37 -14l-51 -11q-28 -6 -45 -6q-44 0 -117 29
q-82 31 -123 31h-24q-55 -5 -150 -66q-92 -57 -157 -57z" />
    <glyph glyph-name="uF700" unicode="&#xf700;" horiz-adv-x="1032" 
d="M657 1243h285v-1245h-285v553h-227v127h227v280q0 103 -155 103q-158 0 -158 -103v-151h-283v162q0 163 273 196q107 13 323 13v65z" />
    <glyph glyph-name="uF701" unicode="&#xf701;" 
d="M-973 1433h537v-129h-537v129z" />
    <glyph glyph-name="uF702" unicode="&#xf702;" 
d="M-436 1300h-537v123h316v70h221v-193z" />
    <glyph glyph-name="uF703" unicode="&#xf703;" 
d="M-545 1319h-441v119h277q25 54 151 54q158 0 158 -87q0 -43 -54 -67q-42 -19 -91 -19zM-513 1403q1 26 -47 26q-46 0 -47 -26t47 -26q46 0 47 26z" />
    <glyph glyph-name="uF704" unicode="&#xf704;" 
d="M-436 1300h-537v123h201v70h129v-70h61v70h146v-193z" />
    <glyph glyph-name="uF705" unicode="&#xf705;" 
d="M-757 1524h260v-193h-260v193z" />
    <glyph glyph-name="uF706" unicode="&#xf706;" 
d="M-496 1442v-111h-393v92h-111v131h152q149 0 149 -94v-11l-2 -7h205z" />
    <glyph glyph-name="uF707" unicode="&#xf707;" 
d="M-448 1343h-254v87l-101 -70l-102 70v-87h-180q0 79 74 129q47 32 106 46l102 -68l101 68q93 -21 153 -105h101v-70z" />
    <glyph glyph-name="uF708" unicode="&#xf708;" 
d="M-607 1331h-199v60h-114v94h114v59h199v-59h113v-94h-113v-60z" />
    <glyph glyph-name="uF709" unicode="&#xf709;" 
d="M-663 1331h-286v70q0 119 258 119h231v-117h-94q-109 0 -109 -72z" />
    <glyph glyph-name="uF70A" unicode="&#xf70a;" 
d="M-375 1524h283v-193h-283v193z" />
    <glyph glyph-name="uF70B" unicode="&#xf70b;" 
d="M-86 1454v-123h-434v103h-119v143h166q164 0 164 -104v-12l-2 -7h225z" />
    <glyph glyph-name="uF70C" unicode="&#xf70c;" 
d="M-104 1331h-310v82l-121 -55l-122 55v-82h-211l-1 20q-4 83 63 153q63 65 149 65l122 -60l121 60q54 -7 81 -17q85 -34 108 -114h121v-107z" />
    <glyph glyph-name="uF70D" unicode="&#xf70d;" 
d="M-133 1331h-215v55h-107v103h107v55h215v-55h104v-103h-104v-55z" />
    <glyph glyph-name="uF70E" unicode="&#xf70e;" 
d="M-166 1331h-287v70q0 119 260 119h232v-117h-96q-109 0 -109 -72z" />
    <glyph glyph-name="uF70F" unicode="&#xf70f;" horiz-adv-x="1618" 
d="M92 1174h99l154 2l187 2q441 0 441 -217v-529q0 -110 139 -110q131 0 131 110v737h283v-909q0 -212 -254 -252q-51 -8 -135 -8h-449v127h445q133 0 133 102v68q-100 -102 -282 -102q-107 0 -190 40q-106 51 -106 146v571q0 103 -156 103h-157v-1055h-283v1174z" />
    <glyph glyph-name="uF710" unicode="&#xf710;" 
d="M-578 1419h170v-119h-305q-260 0 -260 121v68h287q0 -70 108 -70z" />
    <glyph glyph-name="uF711" unicode="&#xf711;" 
d="M-447 1381q0 -59 -79 -93q-53 -22 -129 -22q-73 0 -130 22q-78 31 -78 93q0 54 63 84.5t145 30.5q72 0 130 -23q78 -31 78 -92zM-734 1381q0 -18 24 -30.5t55 -12.5q78 0 78 43t-78 43q-79 0 -79 -43z" />
    <glyph glyph-name="uF712" unicode="&#xf712;" 
d="M-807 1382l160 60l162 -60v-86l-162 62l-160 -58h-156v170q0 86 150 86h332v-79h-219q-68 0 -93 -10q-14 -6 -14 -25v-60z" />
    <glyph glyph-name="uF713" unicode="&#xf713;" 
d="M-682 1723h233v-151h-233v151z" />
    <glyph glyph-name="uF714" unicode="&#xf714;" 
d="M-397 1658v-97h-356v80h-101v117h137q134 0 134 -84v-10q-1 -5 -2 -6h188z" />
    <glyph glyph-name="uF715" unicode="&#xf715;" 
d="M-336 1561h-254v48l-100 -31l-103 31v-48h-180q0 75 90 112q25 11 90 22l103 -29l100 29q36 0 61 -6q65 -16 95 -58h98v-70z" />
    <glyph glyph-name="uF716" unicode="&#xf716;" 
d="M-449 1551h-198v60h-115v92h115v59h198v-59h113v-92h-113v-60z" />
    <glyph glyph-name="uF717" unicode="&#xf717;" 
d="M-426 1521h-231v56q0 96 208 96h187v-94h-78q-86 0 -86 -58z" />
    <glyph glyph-name="uF718" unicode="&#xf718;" 
d="M-512 -310h420v-213h-260v110h-160v103z" />
    <glyph glyph-name="uF719" unicode="&#xf719;" 
d="M-344 -384v74h252v-115q0 -98 -328 -98q-332 0 -332 98v12h-129v103h375v-74q0 -37 82 -37q80 0 80 37z" />
    <glyph glyph-name="uF71A" unicode="&#xf71a;" 
d="M-184 -310q92 0 92 -93q0 -92 -92 -92t-92 92q0 93 92 93z" />
    <glyph glyph-name="uF71B" unicode="&#xf71b;" 
d="M-615 1024h615v-1024h-615v1024z" />
    <glyph glyph-name="uF71C" unicode="&#xf71c;" horiz-adv-x="455" 
 />
    <glyph glyph-name="uF71D" unicode="&#xf71d;" horiz-adv-x="455" 
d="M24 -184v180h406v-180h-98v67h-215v-67h-93z" />
  </font>
</defs>
</svg>
